<?xml version="1.0" standalone="no"?>
<!DOCTYPE svg PUBLIC "-//W3C//DTD SVG 20010904//EN"
 "http://www.w3.org/TR/2001/REC-SVG-20010904/DTD/svg10.dtd">
<svg version="1.0" xmlns="http://www.w3.org/2000/svg"
 width="1500.000000pt" height="1500.000000pt" viewBox="0 0 1500.000000 1500.000000"
 preserveAspectRatio="xMidYMid meet">
<metadata>
Created by potrace 1.11, written by Peter Selinger 2001-2013
</metadata>
<g transform="translate(0.000000,1500.000000) scale(0.100000,-0.100000)"
fill="#000000" stroke="none">
<path d="M0 10948 c0 -2229 4 -4058 8 -4065 4 -6 7 12 8 41 0 29 6 61 12 72
10 16 11 13 5 -15 -5 -28 -3 -33 8 -26 8 5 5 -1 -5 -13 -11 -12 -14 -22 -8
-22 6 0 12 4 14 9 1 5 10 11 18 13 8 2 18 8 22 13 7 8 13 -33 9 -58 0 -4 2 -6
6 -6 5 1 15 1 23 0 13 -1 13 -2 0 -11 -13 -8 -13 -10 1 -10 17 0 34 -53 23
-71 -3 -5 -1 -9 4 -9 16 0 23 31 11 46 -6 8 -8 14 -5 14 4 0 1 9 -7 21 -10 14
-12 30 -7 54 5 23 4 36 -4 39 -6 3 -2 4 9 3 14 -1 21 5 23 22 2 15 0 21 -7 16
-6 -3 -9 -11 -5 -16 3 -6 -3 -5 -15 3 -12 7 -17 14 -12 16 6 2 9 9 7 15 -1 7
-1 8 2 4 6 -11 32 13 32 29 0 22 17 16 23 -7 3 -12 10 -18 17 -14 6 3 9 3 8
-2 -2 -4 2 -8 7 -8 6 0 9 2 8 5 -15 46 -14 59 5 57 12 0 20 -4 19 -7 -1 -3 3
-5 8 -5 6 0 10 15 9 33 -1 45 13 40 26 -8 6 -23 15 -38 21 -34 7 4 6 10 -1 19
-8 10 -8 15 1 21 7 4 9 3 5 -4 -3 -6 -1 -14 5 -18 9 -5 10 2 6 24 -5 26 -3 32
11 32 10 0 24 6 31 13 8 6 11 7 8 2 -3 -6 3 -11 14 -11 10 0 19 4 19 8 0 4 -5
8 -12 8 -6 0 -8 3 -4 7 4 5 14 -1 22 -11 8 -12 14 -15 14 -7 0 10 3 11 14 2
11 -9 16 -9 21 0 6 8 10 7 16 -2 5 -8 9 -9 9 -3 0 6 -6 17 -14 23 -11 10 -15
9 -19 -4 -4 -12 -5 -11 -3 2 1 12 10 18 26 19 31 0 50 -13 44 -31 -5 -12 12
-14 36 -5 3 1 8 2 11 2 4 -1 5 9 2 21 -3 13 -1 17 4 11 4 -7 22 -11 40 -11 25
1 30 5 23 18 -7 11 -4 16 8 16 9 0 20 -4 23 -10 4 -5 12 -6 19 -2 21 13 91 12
108 -1 14 -10 21 -9 36 4 11 9 16 12 13 5 -4 -6 -3 -14 3 -18 5 -3 10 0 10 7
0 8 5 6 11 -5 6 -10 8 -21 5 -24 -3 -4 -6 -1 -6 7 0 10 -3 10 -16 0 -8 -8 -14
-9 -12 -4 2 5 -1 10 -7 12 -5 1 -10 -2 -10 -7 0 -5 -4 -13 -9 -18 -5 -4 -6 -3
-2 4 3 6 1 15 -5 18 -7 5 -9 1 -7 -11 2 -11 9 -18 15 -17 6 1 27 4 47 6 36 4
63 17 36 17 -7 0 -11 3 -7 6 3 3 -6 16 -21 29 -25 22 -28 22 -45 7 -10 -9 -18
-12 -17 -7 5 21 -1 29 -10 15 -7 -11 -10 -11 -10 -2 0 7 -4 11 -9 7 -5 -3 -13
0 -17 6 -4 8 -3 9 4 5 8 -4 16 3 22 18 12 32 17 33 16 4 -1 -17 5 -22 28 -23
28 -2 28 -1 23 39 -4 31 -3 37 5 23 5 -11 8 -31 6 -46 -2 -17 1 -28 8 -28 12
0 12 28 1 75 -4 16 -2 20 6 15 18 -11 38 -13 31 -2 -3 5 5 13 18 18 23 10 23
10 -4 10 -17 1 -28 -5 -30 -16 -3 -11 -6 -5 -9 14 -3 18 -2 30 2 27 4 -2 2 12
-3 31 -8 24 -8 44 -1 67 l11 33 1 -31 c1 -16 7 -36 14 -43 10 -11 9 -13 0 -7
-7 4 -13 2 -13 -3 0 -6 11 -10 24 -9 15 1 23 8 21 18 -1 8 2 24 8 35 17 31 17
43 0 57 -14 11 -15 10 -9 -8 3 -12 3 -31 -2 -44 -6 -16 -8 4 -8 61 1 46 -3 94
-7 107 -7 18 -5 22 12 22 17 0 21 6 21 31 0 18 4 28 11 24 5 -4 8 -12 6 -18
-2 -7 4 -22 13 -34 11 -15 17 -36 14 -58 -1 -19 2 -38 8 -41 7 -5 9 -2 5 9 -3
9 -1 18 6 20 9 3 7 14 -5 40 -10 21 -15 37 -12 37 3 0 14 -19 24 -42 13 -28
20 -36 20 -22 0 11 -4 24 -9 30 -13 13 -22 66 -10 59 5 -4 7 -11 4 -16 -4 -5
-2 -9 4 -9 5 0 9 9 8 20 -1 14 -8 20 -24 20 -15 0 -21 -5 -17 -14 3 -8 2 -16
-3 -19 -4 -3 -8 45 -8 106 0 135 -1 142 -24 125 -14 -11 -14 -11 -5 2 6 8 10
23 9 33 -2 9 1 15 6 11 5 -3 7 -10 4 -15 -4 -5 -1 -9 5 -9 7 0 9 7 6 16 -3 9
-6 18 -6 20 0 10 -57 3 -68 -8 -9 -9 -12 -6 -13 15 -2 32 -2 33 -16 77 -18 56
-22 150 -6 150 7 0 13 7 13 15 0 8 7 15 16 15 13 0 15 7 11 35 -4 26 -2 35 9
35 8 0 14 7 14 15 0 8 -7 15 -15 15 -8 0 -15 4 -15 10 0 5 11 9 24 8 14 -1 23
-5 20 -9 -6 -10 24 -5 33 6 4 4 3 5 -3 2 -6 -3 -11 1 -11 9 0 10 4 11 11 4 16
-16 56 -12 56 5 0 19 16 19 24 0 3 -8 17 -15 31 -15 14 0 25 -4 25 -10 0 -5
23 -10 50 -10 38 0 50 -4 50 -15 0 -18 21 -20 39 -3 8 8 11 8 8 2 -4 -7 0 -17
8 -24 12 -10 15 -7 21 14 7 28 24 36 24 11 0 -8 7 -15 15 -15 8 0 15 -5 15
-10 0 -12 22 -9 32 5 5 6 8 5 8 -2 0 -7 7 -13 15 -13 8 0 15 5 15 10 0 23 23
11 78 -39 16 -15 27 -20 30 -13 5 17 22 15 22 -3 0 -8 -4 -15 -10 -15 -5 0
-10 -5 -10 -10 0 -12 22 -9 31 4 4 5 10 -1 14 -13 3 -11 11 -21 18 -21 8 0 8
3 -1 12 -7 7 -12 15 -12 20 0 4 11 -4 25 -17 24 -25 38 -29 83 -25 12 1 22 -3
22 -9 0 -6 -4 -11 -10 -11 -5 0 -10 -4 -10 -8 0 -5 16 -9 35 -10 24 -1 33 2
29 11 -2 7 4 13 16 14 11 1 18 -2 15 -7 -3 -5 -1 -11 5 -15 5 -3 10 3 10 14 0
17 6 21 30 21 17 0 30 -4 30 -10 0 -5 5 -10 11 -10 5 0 7 5 3 12 -5 7 -3 8 5
4 7 -5 10 -14 7 -22 -3 -8 1 -14 8 -14 9 0 12 7 9 20 -5 17 0 20 26 20 21 0
31 -5 31 -15 0 -22 35 -38 49 -21 8 10 9 16 1 21 -10 6 -14 -1 -11 -19 1 -5
-5 -4 -13 4 -9 7 -16 18 -15 24 0 7 2 6 6 -2 2 -6 10 -9 16 -5 30 19 65 -2 54
-32 -4 -8 -2 -17 4 -20 5 -4 9 12 9 37 1 70 6 102 18 106 7 2 12 -4 12 -13 0
-9 4 -14 9 -11 11 7 23 -22 15 -35 -3 -5 1 -9 8 -9 11 0 10 -2 0 -9 -11 -7
-11 -9 2 -14 19 -7 20 1 6 38 -6 17 -6 24 0 20 5 -3 16 9 24 27 9 18 14 25 13
16 -1 -9 2 -17 8 -17 5 -1 10 7 10 17 0 9 6 16 14 14 9 -2 11 3 7 14 -5 13 -3
14 6 7 23 -18 48 -12 43 11 -6 32 -7 33 -14 6 l-7 -25 -6 26 c-4 21 -1 26 11
24 23 -3 41 26 30 47 -7 14 -6 18 6 18 8 0 15 7 15 15 0 8 7 15 15 15 14 0 20
-25 15 -59 -1 -13 1 -13 15 -1 11 9 13 16 5 24 -5 5 -10 14 -10 20 0 5 7 1 16
-10 14 -18 15 -18 10 6 -3 14 -3 19 0 12 5 -10 9 -10 22 0 10 8 13 9 9 1 -4
-6 -3 -14 3 -18 5 -3 10 -1 10 6 0 7 3 10 6 6 3 -3 3 -11 -1 -17 -5 -8 -11 -7
-23 2 -13 11 -14 11 -10 -2 2 -8 14 -15 25 -16 15 -1 19 5 19 27 0 17 -4 25
-10 22 -6 -4 -5 1 3 10 16 21 31 22 31 3 0 -7 9 -16 20 -19 13 -3 18 -11 15
-26 -2 -12 0 -21 6 -21 5 0 10 12 10 28 l1 27 7 -30 c6 -29 21 -25 16 5 -2 8
-6 28 -9 43 -4 22 -2 26 7 18 8 -6 18 -6 27 -1 13 8 12 10 -2 10 -10 0 -18 7
-18 15 0 21 17 19 30 -4 14 -26 13 -31 -6 -31 -9 0 -12 -5 -8 -12 4 -7 3 -8
-4 -4 -7 4 -12 2 -12 -3 0 -6 11 -11 25 -11 20 0 25 -5 25 -25 0 -24 -9 -30
-38 -26 -12 2 -12 -33 1 -46 11 -11 37 -12 37 -2 0 8 -13 13 -31 11 -3 -1 -6
5 -6 12 0 7 6 13 13 13 7 0 11 -4 8 -9 -3 -4 0 -8 5 -8 6 0 11 7 11 15 0 23
19 18 32 -10 7 -17 8 -28 1 -37 -6 -7 -9 -21 -8 -31 2 -9 -1 -15 -5 -12 -5 3
-7 17 -4 31 3 16 1 23 -6 19 -5 -3 -10 -16 -11 -28 -1 -22 -1 -22 -7 -1 -4 13
-14 20 -25 18 -9 -1 -15 2 -11 7 3 5 0 9 -5 9 -6 0 -11 -6 -11 -12 0 -9 -4 -8
-10 2 -9 13 -10 13 -10 0 0 -9 -3 -11 -8 -5 -4 6 -22 8 -42 4 -40 -7 -38 -10
7 -13 18 -1 35 -5 39 -8 3 -3 -11 -5 -32 -4 -21 2 -42 10 -49 20 -11 15 -13
14 -13 -7 1 -19 6 -23 40 -24 22 -1 41 -3 43 -5 8 -8 -8 -57 -17 -52 -6 4 -8
-3 -4 -17 3 -13 3 -18 0 -11 -3 6 -10 10 -15 7 -5 -4 -6 2 -2 11 4 11 3 15 -5
10 -6 -3 -10 -15 -9 -25 1 -21 36 -25 49 -6 4 5 6 -6 5 -25 -2 -32 0 -34 31
-36 28 -1 32 2 27 20 -3 12 -2 15 1 7 5 -11 8 -11 16 0 5 9 6 4 2 -15 -5 -19
-3 -27 4 -23 5 4 9 20 8 35 -2 25 1 28 26 24 16 -3 29 1 29 7 4 35 16 51 33
45 10 -4 13 7 13 40 0 39 -3 46 -19 46 -12 0 -16 -4 -12 -12 5 -7 3 -8 -6 -3
-10 6 -12 1 -8 -19 4 -17 2 -24 -4 -18 -5 5 -6 26 -3 46 6 31 11 36 35 36 28
0 40 15 40 50 0 10 4 21 9 24 4 3 6 -6 3 -19 -2 -15 0 -25 7 -25 7 0 11 6 10
13 -4 29 3 37 31 37 26 0 30 -4 30 -27 0 -14 3 -24 6 -21 10 10 12 42 3 64 -5
14 -3 21 5 21 9 0 12 -14 10 -44 -1 -24 2 -40 7 -37 12 7 11 94 -1 94 -23 0
-9 30 15 32 60 4 60 4 59 -24 -1 -28 9 -37 21 -18 3 6 2 10 -3 10 -6 0 -8 9
-5 20 3 11 9 18 13 15 5 -3 11 -1 15 5 4 6 -5 10 -19 10 -16 0 -26 6 -26 15 0
8 7 15 15 15 9 0 15 9 15 22 0 28 17 12 22 -21 2 -17 10 -25 24 -26 15 -1 21
4 19 14 -1 9 2 22 8 29 7 9 6 11 -7 6 -10 -4 -22 -16 -26 -28 -7 -16 -9 -17
-9 -4 -1 21 40 51 52 39 11 -11 39 -3 32 9 -3 5 9 22 26 39 17 17 29 38 26 45
-5 11 0 12 24 6 22 -7 29 -5 29 6 0 8 10 14 24 14 13 0 26 6 29 14 3 7 18 12
33 12 24 -2 30 -8 37 -39 5 -20 13 -37 18 -37 19 0 8 -19 -18 -32 -14 -7 -28
-20 -31 -28 -3 -9 2 -7 12 5 15 19 15 18 16 -17 0 -37 -9 -45 -43 -39 -5 1 -5
-9 -1 -21 12 -39 13 -68 1 -68 -14 0 -57 -49 -57 -65 0 -7 -9 -15 -19 -18 -14
-3 -18 -11 -15 -25 4 -12 0 -22 -11 -26 -10 -3 -14 -2 -10 5 4 6 9 25 11 42 3
26 2 28 -5 12 -5 -11 -12 -32 -15 -47 -5 -21 -10 -25 -28 -20 -16 4 -19 2 -12
-9 11 -17 17 -45 18 -84 1 -16 7 -34 14 -38 6 -4 12 -19 12 -31 0 -30 26 -41
40 -18 9 14 10 11 6 -13 -2 -17 -2 -35 2 -40 10 -14 43 -15 36 -1 -3 6 2 2 10
-8 13 -16 13 -22 3 -28 -9 -6 -9 -8 1 -8 8 0 10 -5 6 -12 -4 -8 -3 -10 2 -5 5
5 9 14 9 20 0 7 9 11 19 9 15 -3 16 -1 5 11 -8 8 -18 12 -24 9 -5 -3 -4 1 2 9
10 12 10 18 0 28 -9 10 -9 12 3 9 9 -2 14 3 12 12 -2 8 0 12 4 8 4 -4 13 -3
21 4 11 9 15 7 20 -10 3 -12 10 -19 16 -15 6 3 7 1 3 -5 -3 -6 1 -15 10 -20
15 -8 15 -10 0 -15 -10 -4 -15 -3 -12 2 3 5 -1 14 -9 21 -8 7 -15 19 -15 27 0
8 -4 12 -10 8 -5 -3 -7 -13 -4 -23 5 -13 4 -14 -4 -3 -10 14 -19 5 -18 -19 1
-18 36 -27 36 -9 0 8 7 3 16 -9 14 -21 42 -33 29 -13 -3 6 4 15 15 21 17 9 19
14 9 26 -10 12 -9 18 5 32 12 12 16 13 14 3 -2 -7 3 -16 11 -19 8 -3 11 0 7 7
-4 6 -2 9 6 6 42 -15 64 -12 65 7 2 15 -1 17 -11 9 -9 -8 -13 -7 -13 3 0 15
94 20 103 5 2 -4 12 -5 22 -2 9 3 14 3 10 -2 -11 -12 11 -35 27 -29 8 3 11 13
8 21 -4 10 -2 14 4 10 7 -5 9 0 6 14 -4 16 -8 17 -14 7 -6 -9 -9 -9 -9 -1 0
20 20 25 27 7 6 -16 7 -16 14 2 6 16 8 16 8 2 1 -11 6 -15 15 -12 8 3 17 0 21
-6 5 -8 10 -8 20 0 8 6 27 9 43 7 26 -4 29 -2 26 22 -1 14 -2 28 -3 30 -1 2
-9 -7 -20 -20 l-18 -23 1 24 c1 26 32 36 55 17 12 -10 13 -9 6 2 -6 11 -4 13
8 8 9 -3 19 -2 22 3 8 13 55 13 55 0 0 -6 6 -10 13 -9 26 3 37 -2 37 -16 0 -8
3 -14 7 -14 20 3 34 -2 28 -11 -3 -6 -2 -10 4 -10 13 0 9 74 -6 91 -7 9 -8 20
-4 28 6 9 11 10 15 2 4 -6 4 -15 1 -21 -9 -15 19 -12 41 5 26 20 41 19 47 -5
4 -17 2 -18 -14 -9 -12 6 -19 6 -19 0 0 -5 9 -13 20 -16 11 -4 18 -11 15 -16
-4 -5 -1 -9 4 -9 6 0 11 12 12 28 1 21 3 18 11 -15 7 -33 13 -41 25 -36 12 5
15 2 10 -10 -3 -9 -2 -17 2 -17 9 0 27 -76 23 -93 -1 -4 4 -18 13 -30 8 -12
15 -28 15 -35 0 -8 25 -66 55 -128 30 -63 55 -117 55 -120 0 -3 16 -30 35 -60
39 -61 65 -125 65 -164 0 -42 45 -123 91 -166 51 -46 149 -95 228 -114 66 -16
203 -8 256 14 50 21 58 20 50 -6 -6 -16 -4 -20 8 -15 22 8 37 -14 37 -59 1
-71 5 -94 15 -94 27 -1 79 -132 74 -187 -1 -15 1 -39 4 -53 4 -14 8 -59 10
-100 2 -41 7 -82 10 -90 4 -8 6 -22 5 -30 -2 -14 5 -166 18 -417 l6 -102 -44
-38 c-157 -137 -215 -256 -279 -576 l-24 -118 -95 -45 c-52 -25 -155 -82 -230
-127 -74 -44 -218 -123 -320 -174 -102 -51 -228 -116 -280 -144 -204 -109
-390 -199 -492 -240 -27 -10 -74 -32 -105 -48 -32 -16 -116 -52 -188 -81 -71
-29 -175 -73 -230 -100 -142 -67 -247 -103 -430 -149 -88 -22 -210 -58 -271
-80 -61 -23 -176 -59 -255 -81 -79 -21 -180 -53 -224 -69 -144 -53 -586 -237
-720 -301 -33 -15 -105 -46 -160 -69 -56 -23 -138 -64 -185 -91 -46 -27 -122
-66 -169 -86 -47 -20 -108 -51 -136 -68 -52 -33 -116 -65 -267 -135 l-88 -40
0 -1631 0 -1630 3704 0 3705 0 -19 53 c-35 99 -301 799 -415 1092 -36 94 -98
256 -137 360 -109 296 -168 446 -273 705 -135 335 -155 388 -155 423 0 36 20
51 35 27 11 -18 40 -11 81 19 22 16 52 33 67 36 15 4 31 14 35 22 5 8 20 22
34 31 14 9 66 44 114 78 49 33 106 72 127 87 47 32 145 140 241 265 111 145
134 181 167 262 45 110 44 108 152 104 119 -4 182 -13 226 -31 20 -9 59 -16
87 -18 38 -1 62 -9 95 -32 54 -38 83 -69 75 -81 -10 -16 32 -102 49 -102 8 0
15 9 15 19 0 34 15 31 67 -14 28 -25 54 -45 58 -45 4 0 28 -14 53 -31 26 -17
69 -38 97 -46 27 -8 57 -21 65 -28 8 -7 39 -20 67 -30 29 -9 59 -25 66 -35 12
-17 25 -18 118 -16 57 2 120 -1 139 -6 19 -5 42 -11 50 -12 8 -1 24 -7 35 -13
11 -6 25 -10 30 -10 6 1 26 -31 46 -72 21 -40 50 -85 65 -100 16 -15 30 -33
32 -39 6 -33 18 -108 27 -187 4 -33 11 -64 15 -70 4 -5 7 -29 6 -53 0 -23 2
-42 6 -42 3 0 9 -30 13 -68 3 -37 10 -78 15 -92 11 -29 11 -30 44 -250 14 -91
30 -221 36 -290 6 -69 15 -163 20 -210 5 -47 16 -191 25 -320 8 -129 19 -293
25 -365 18 -233 40 -671 40 -812 l0 -63 2720 0 2721 0 -6 53 c-19 165 -29 234
-51 342 -13 67 -33 146 -44 178 -11 31 -20 63 -20 71 0 8 -21 86 -46 173 -96
328 -109 410 -129 803 -23 443 -53 637 -145 955 -35 119 -37 147 -31 405 2 85
0 173 -4 195 -13 75 -64 271 -86 336 -69 200 -210 388 -343 454 -42 21 -64 25
-138 25 -69 0 -101 5 -150 24 -35 13 -92 35 -128 49 -154 58 -210 80 -285 112
-44 18 -125 50 -180 70 -55 20 -136 50 -180 67 -147 56 -259 90 -394 119 -250
55 -446 108 -516 140 -226 103 -478 176 -890 260 -110 22 -216 44 -235 49 -19
4 -114 24 -210 44 -96 20 -240 52 -320 71 -80 19 -239 53 -355 75 -207 40
-433 97 -670 167 -66 19 -128 38 -137 40 -17 5 -32 31 -66 118 -11 28 -37 83
-57 123 -54 105 -52 109 133 321 65 75 139 182 247 356 121 196 259 493 286
615 7 30 66 253 85 317 5 18 16 23 72 29 37 4 71 7 77 5 5 -1 6 1 2 6 -5 4
-12 8 -15 9 -4 0 -14 4 -22 7 -8 3 -31 8 -50 10 -34 3 -35 4 -33 47 3 74 24
107 65 101 7 -1 5 19 -3 34 -4 6 -5 21 -4 35 1 14 -3 28 -9 32 -8 5 -6 17 6
40 11 21 15 48 13 73 -5 49 10 79 25 53 6 -9 16 -23 23 -30 44 -46 56 -70 46
-90 -8 -15 -8 -19 0 -14 6 4 9 1 5 -7 -3 -9 3 -16 15 -20 15 -4 19 0 16 14 -4
20 10 24 39 13 12 -5 14 -10 6 -19 -7 -9 -5 -16 7 -26 16 -13 17 -12 4 4 -17
22 -3 22 21 0 13 -12 18 -13 18 -3 0 7 3 11 6 7 3 -3 -3 -19 -15 -36 -13 -18
-17 -32 -11 -36 6 -4 8 -10 6 -14 -3 -4 0 -8 7 -8 8 0 12 13 10 36 -2 29 -1
32 6 16 18 -38 12 43 -6 96 -15 40 -16 55 -6 92 7 24 10 54 7 68 -4 17 -3 20
4 10 7 -9 12 -10 16 -2 4 6 5 11 2 11 -3 0 2 16 10 36 11 27 12 34 2 28 -7 -4
-6 1 3 12 9 10 29 53 44 94 15 41 31 83 36 92 8 16 39 141 39 159 0 18 -15 9
-27 -17 -6 -14 -9 -32 -6 -40 3 -8 0 -14 -7 -14 -6 0 -9 -4 -6 -9 3 -4 -3 -16
-13 -25 -17 -15 -19 -16 -25 -1 -6 18 2 63 14 80 4 6 8 32 9 59 0 27 5 54 11
60 5 5 10 19 10 30 0 11 8 28 18 39 12 14 13 21 5 24 -7 2 -10 10 -8 16 2 7 6
52 9 101 3 49 11 95 17 102 6 7 7 19 3 25 -4 7 -3 9 4 5 6 -3 13 -2 17 4 4 6
11 8 16 4 5 -3 7 -9 4 -14 -3 -6 -7 -42 -8 -82 -1 -40 -6 -79 -10 -85 -5 -7
-6 -17 -2 -22 3 -5 1 -12 -5 -16 -6 -4 -8 -11 -4 -16 3 -5 0 -17 -7 -25 -9
-11 -9 -18 -1 -26 7 -7 12 -17 12 -22 0 -6 -5 -4 -10 4 -8 11 -10 8 -7 -15 2
-16 0 -45 -4 -62 -4 -18 -3 -33 2 -33 5 0 9 11 9 24 0 13 4 26 9 28 5 2 12 30
16 63 3 33 8 74 10 90 2 17 5 56 6 88 1 31 6 57 11 57 4 0 8 14 8 31 0 16 4
49 10 72 5 23 11 62 13 87 2 28 8 44 15 42 7 -1 12 5 12 14 0 8 -4 13 -9 9 -5
-3 -12 25 -16 62 -10 109 -13 123 -26 141 -12 16 -11 16 4 1 19 -17 31 -58 29
-104 0 -25 1 -27 8 -10 5 11 9 30 9 43 1 24 31 32 31 7 0 -11 11 -15 37 -15
28 0 43 -7 61 -27 13 -16 21 -23 18 -16 -8 16 33 28 47 14 6 -6 7 -11 2 -11
-5 0 1 -7 14 -16 16 -12 20 -19 12 -27 -14 -14 -14 -37 0 -37 5 0 8 4 4 9 -3
5 -1 13 5 16 6 4 10 3 9 -2 -3 -19 2 -27 10 -14 5 7 19 14 32 15 16 1 24 7 23
19 -1 12 2 15 10 9 14 -10 27 -10 45 2 10 6 12 5 7 -2 -5 -8 -2 -10 8 -6 9 3
14 9 13 12 -1 4 3 9 8 12 6 3 11 -8 13 -24 2 -15 0 -26 -5 -23 -5 3 -8 -7 -7
-24 1 -16 -2 -26 -7 -23 -5 3 -6 10 -3 16 5 8 1 9 -10 5 -10 -4 -20 -7 -24 -7
-3 0 3 -7 14 -15 18 -15 18 -15 0 -8 -12 4 -17 3 -13 -4 7 -11 57 -15 55 -4
-6 55 19 83 48 53 16 -15 32 -22 61 -24 8 -1 6 -9 -4 -25 -12 -18 -18 -21 -24
-11 -7 11 -9 11 -9 0 0 -7 -4 -10 -10 -7 -5 3 -10 -3 -10 -15 0 -12 -5 -18
-10 -15 -6 4 -8 10 -6 14 3 4 -1 8 -9 8 -13 0 -12 -4 2 -19 9 -10 29 -18 45
-18 23 0 28 4 28 24 0 27 15 42 25 26 4 -6 10 -8 15 -5 16 10 19 -12 4 -40
-10 -19 -10 -24 -2 -17 7 6 36 9 64 9 48 -2 51 -1 49 23 -1 22 -6 25 -41 26
-61 3 -64 3 -64 14 0 6 33 10 79 10 54 0 81 4 84 13 3 6 4 2 4 -10 -1 -12 -4
-20 -8 -18 -5 4 -5 -42 1 -55 1 -3 2 -9 0 -15 -1 -7 2 -6 9 0 6 6 11 25 13 43
1 17 6 32 9 32 4 0 5 -15 2 -34 -3 -20 -1 -36 6 -41 13 -7 41 11 41 28 0 5 -8
3 -18 -6 -17 -16 -19 -16 -19 0 0 10 3 23 7 28 4 6 6 18 5 27 -2 11 2 15 11
11 12 -4 18 -30 17 -70 -1 -7 8 -13 18 -13 11 0 22 -6 25 -13 7 -19 31 -17 30
2 -1 9 5 15 12 13 6 -1 12 4 12 12 0 7 11 16 25 18 17 4 25 1 25 -9 0 -8 5
-11 12 -7 7 4 8 3 4 -4 -4 -6 -4 -23 0 -37 5 -20 9 -23 15 -13 6 10 9 10 9 1
0 -7 10 -13 21 -13 17 0 20 5 17 25 -6 29 9 45 18 21 9 -22 114 -23 114 -1 0
8 -6 15 -12 15 -9 0 -8 3 2 10 10 6 17 5 23 -6 5 -8 13 -11 19 -8 7 5 9 0 6
-13 -4 -15 -1 -20 11 -19 9 0 15 -5 13 -11 -1 -7 2 -13 8 -13 5 0 10 -5 10
-10 0 -6 -3 -9 -7 -9 -20 3 -24 -2 -13 -16 7 -8 16 -12 21 -9 5 3 17 3 28 -1
13 -4 17 -13 14 -33 -3 -20 -2 -23 6 -12 5 8 7 18 4 24 -3 5 -1 6 5 2 6 -4 9
-13 6 -21 -8 -20 37 -10 55 12 12 16 12 16 7 -7 -7 -24 -7 -24 9 -5 9 12 12
21 5 23 -5 2 -10 10 -10 17 0 8 -10 20 -22 26 -22 12 -23 11 -5 -8 17 -20 17
-21 -7 -25 -37 -7 -62 12 -63 50 0 30 2 32 33 32 31 0 39 8 35 33 -1 4 8 2 19
-5 11 -7 18 -19 15 -26 -3 -8 0 -10 7 -6 7 5 9 2 6 -7 -4 -11 2 -15 21 -14 21
0 25 -4 23 -22 -2 -14 2 -23 10 -23 8 0 9 -3 3 -8 -5 -4 -10 -16 -11 -27 -1
-16 5 -21 22 -21 18 0 22 5 19 21 -2 11 -4 21 -6 23 -1 1 -2 8 -3 15 -1 6 -8
11 -15 9 -7 -1 -10 2 -6 8 3 6 10 8 15 5 4 -3 14 3 21 13 7 9 9 14 5 10 -5 -4
-16 -2 -24 5 -13 10 -14 9 -8 -2 6 -9 5 -12 -4 -9 -32 10 -20 28 19 28 26 0
40 -4 39 -12 -2 -6 12 -14 29 -18 18 -4 30 -4 28 1 -3 4 -1 10 5 14 5 3 10 2
10 -3 0 -5 7 -9 15 -9 8 0 15 6 15 12 0 14 38 35 68 38 12 0 22 6 22 12 0 5 5
3 10 -5 8 -13 10 -13 10 -1 0 11 4 10 14 -4 8 -11 12 -25 9 -32 -4 -9 4 -13
23 -13 25 1 26 2 12 11 -10 5 -18 15 -18 22 0 7 4 6 10 -3 7 -10 10 -11 11 -2
1 6 2 17 3 24 1 16 64 29 73 15 3 -6 1 -7 -5 -3 -7 4 -12 2 -12 -4 0 -19 45
-6 48 14 3 13 0 17 -11 13 -21 -8 -52 17 -44 35 3 9 0 21 -6 28 -9 10 -9 11 1
6 6 -4 12 -2 12 3 0 15 -27 14 -33 -1 -4 -10 -6 -9 -6 1 -1 10 -4 11 -14 3
-11 -9 -13 -5 -13 18 0 16 2 27 6 25 3 -2 5 18 4 43 -1 40 -5 47 -23 50 -17 3
-21 -2 -21 -22 0 -40 -17 -30 -24 14 -3 22 -10 39 -14 39 -27 -4 -35 2 -17 15
10 7 16 20 13 28 -4 8 0 15 7 15 8 0 14 -3 13 -6 0 -3 0 -13 1 -21 1 -13 3
-13 10 -1 14 22 2 41 -26 41 -20 0 -24 4 -20 20 3 11 1 18 -3 15 -5 -3 -12 -1
-15 5 -4 6 -1 9 7 8 7 -2 12 2 11 8 -1 6 4 11 12 11 8 0 12 -4 10 -8 -3 -4 2
-6 12 -5 9 2 17 10 19 19 1 10 -2 14 -8 11 -5 -3 -4 3 3 13 12 19 39 27 39 12
0 -5 15 6 33 24 l32 31 6 -44 c7 -51 11 -45 11 15 1 22 3 32 5 22 3 -10 10
-14 16 -11 8 5 8 2 0 -7 -7 -7 -13 -20 -13 -29 0 -13 1 -13 10 0 5 8 10 10 10
5 0 -6 -5 -16 -11 -22 -6 -6 -8 -16 -5 -22 15 -24 25 -9 24 36 -1 69 0 73 18
73 8 0 12 -4 9 -10 -3 -5 -1 -10 4 -10 6 0 11 -7 11 -15 0 -8 5 -15 11 -15 7
0 9 10 5 25 -5 18 -2 25 9 25 8 0 17 -11 21 -25 5 -20 12 -25 38 -25 41 0 47
6 35 38 -6 17 -6 29 1 36 7 7 15 -3 27 -32 16 -37 22 -42 52 -42 19 0 39 7 45
16 10 14 15 10 31 -25 10 -23 24 -41 32 -41 7 0 13 -7 13 -15 0 -9 9 -15 24
-15 13 0 26 -6 29 -14 3 -7 3 -64 1 -126 -3 -64 -2 -110 4 -107 4 4 7 23 6 44
-1 21 0 32 3 25 2 -6 10 -9 16 -6 8 5 8 2 0 -7 -7 -7 -13 -20 -13 -29 0 -13 1
-13 10 0 6 9 10 10 10 3 0 -6 -5 -15 -10 -18 -14 -9 -2 -27 13 -19 7 3 3 -2
-7 -10 -11 -9 -26 -16 -33 -16 -28 0 -11 -17 17 -18 17 0 30 4 30 9 0 6 -6 7
-12 3 -9 -5 -9 -3 1 9 16 20 32 13 25 -11 -5 -15 -4 -15 9 1 14 17 15 15 12
-17 -2 -20 0 -38 4 -40 4 -3 8 17 8 43 1 42 -2 48 -17 44 -25 -7 -34 13 -35
77 0 42 -4 55 -15 55 -8 0 -16 9 -17 20 -2 15 -1 16 5 5 14 -30 38 -20 33 13
-3 18 40 -20 45 -40 4 -13 9 -23 13 -23 11 0 30 -59 26 -81 -2 -10 1 -19 6
-19 6 0 7 -14 3 -35 -4 -25 -2 -39 10 -50 9 -9 16 -12 16 -6 0 6 5 11 10 11 6
0 10 -7 10 -16 0 -12 3 -14 13 -6 24 20 50 -18 56 -85 0 -7 6 -13 12 -13 7 0
8 5 3 13 -5 7 -2 5 8 -5 9 -10 22 -18 28 -18 10 0 10 -3 1 -14 -9 -11 -9 -16
0 -21 6 -4 15 -1 20 6 7 11 9 9 10 -6 1 -11 1 -23 0 -27 0 -5 3 -8 9 -8 5 0
10 -6 10 -13 0 -8 7 -14 15 -14 11 0 12 4 5 11 -5 5 -10 15 -10 20 0 6 7 0 16
-12 8 -12 21 -22 27 -22 19 0 36 -35 30 -60 -5 -20 -4 -21 16 -11 21 11 27 5
22 -22 -1 -5 3 -6 8 -3 5 4 12 -2 15 -11 3 -10 4 -6 2 9 -5 46 9 54 38 23 14
-15 23 -31 20 -36 -3 -5 0 -9 6 -9 7 0 8 -6 0 -19 -13 -26 -13 -34 2 -25 7 5
8 3 2 -7 -13 -21 -13 -89 0 -81 6 3 18 7 26 7 8 0 14 6 12 14 -1 7 -4 33 -6
57 -2 24 -9 50 -15 58 -16 19 -22 66 -8 66 6 0 5 5 -1 13 -7 8 -7 18 -2 27 9
13 10 13 11 0 1 -8 1 -28 0 -43 -1 -20 2 -26 11 -21 10 6 11 4 1 -7 -16 -16
-17 -33 -1 -23 6 4 8 3 5 -3 -4 -6 0 -13 8 -16 10 -4 12 -16 8 -42 -5 -32 -3
-36 13 -35 36 4 44 0 44 -24 0 -16 7 -26 21 -29 12 -3 18 -10 14 -16 -3 -6 -1
-11 5 -11 6 0 8 -5 4 -12 -5 -8 -2 -9 10 -5 11 5 15 3 10 -5 -5 -8 -2 -9 9 -5
10 4 16 2 14 -5 -1 -7 3 -12 10 -13 6 0 15 -4 20 -9 4 -5 3 -7 -3 -3 -6 3 -18
-7 -27 -23 -16 -27 -16 -28 1 -23 22 5 39 -28 37 -69 -2 -29 4 -31 88 -31 9 0
17 -5 17 -12 0 -7 6 -15 14 -18 9 -4 12 -14 9 -29 -5 -22 -5 -22 9 -4 15 19
53 33 42 15 -3 -5 0 -9 6 -9 6 0 8 -5 4 -12 -5 -8 0 -9 17 -5 20 5 22 4 8 -6
-12 -9 -14 -18 -7 -36 5 -14 6 -31 3 -39 -4 -12 -3 -13 10 -2 15 12 16 11 19
-12 0 -8 15 -13 36 -12 19 0 40 -6 45 -13 12 -14 68 -26 60 -12 -4 5 -10 7
-14 5 -4 -3 -13 -1 -19 3 -10 6 -9 11 4 22 10 8 15 9 11 2 -5 -7 0 -9 13 -6
12 3 20 2 19 -3 -4 -17 36 -94 49 -94 7 0 15 -7 18 -15 4 -9 19 -15 36 -15 25
0 28 -2 19 -14 -7 -8 -21 -13 -32 -11 -11 2 -17 0 -13 -6 3 -5 1 -16 -6 -24
-6 -8 -7 -16 -2 -19 10 -6 27 22 23 38 -1 5 5 4 13 -4 14 -10 16 -10 16 5 0
16 15 13 15 -3 0 -4 4 -12 8 -19 4 -6 2 -15 -4 -19 -7 -4 -9 -3 -5 4 3 6 2 13
-4 17 -5 3 -10 -1 -10 -10 0 -15 13 -24 42 -29 23 -3 39 -17 32 -28 -5 -7 -1
-9 9 -5 9 3 19 2 22 -4 4 -5 11 -6 17 -3 7 4 8 2 4 -5 -6 -9 -12 -9 -24 1 -15
12 -16 11 -3 -5 8 -9 11 -20 8 -24 -4 -3 -2 -12 4 -19 7 -8 7 -14 0 -18 -7 -5
-7 -15 -1 -31 7 -18 6 -25 -3 -25 -20 0 16 -20 36 -20 13 0 17 6 15 22 -2 16
3 24 16 26 11 3 16 0 12 -7 -4 -6 -3 -11 2 -11 5 0 15 -18 22 -40 7 -22 15
-38 18 -35 3 3 11 0 18 -6 8 -6 14 -7 18 0 4 6 13 8 21 5 23 -9 38 5 24 22
-10 12 -8 16 9 21 12 3 22 12 22 20 0 8 5 11 10 8 6 -3 10 0 11 7 0 7 6 -5 14
-27 7 -22 13 -32 14 -22 1 9 8 17 16 17 8 0 14 6 12 13 -1 6 4 11 11 9 7 -1
21 15 30 36 17 40 57 69 68 50 4 -6 10 -5 15 3 6 10 9 10 9 2 0 -6 -5 -15 -10
-18 -8 -5 -8 -11 -1 -19 6 -7 7 -16 3 -21 -4 -4 -1 -6 7 -3 10 3 16 20 17 47
2 47 11 62 24 42 4 -8 15 -11 23 -8 8 3 20 0 27 -6 10 -10 12 -8 6 8 -6 20 -6
20 9 1 8 -11 15 -23 15 -28 0 -4 9 -8 21 -8 11 0 18 4 14 9 -3 5 -1 13 5 16 6
4 9 2 8 -3 -2 -6 -1 -10 2 -10 3 0 19 -6 35 -13 17 -6 41 -12 54 -13 14 -1 26
-8 29 -16 3 -13 2 -12 -7 0 -10 13 -11 13 -11 0 0 -9 -3 -11 -8 -5 -11 16 -42
18 -36 2 6 -16 66 -18 76 -3 5 7 8 6 8 -4 0 -13 1 -13 10 0 6 9 10 10 10 3 0
-14 40 -13 41 2 1 5 2 17 3 25 0 9 11 15 25 15 15 0 25 7 27 18 1 10 -2 15 -9
11 -7 -3 -4 1 6 9 9 8 17 20 17 28 1 10 4 9 14 -4 12 -16 15 -15 29 15 9 18
13 36 11 40 -3 4 0 8 5 8 6 0 11 -4 11 -10 0 -5 5 -10 10 -10 6 0 10 8 10 19
0 10 8 21 18 23 13 4 21 18 25 44 4 22 7 1674 7 3672 l0 3632 -7500 0 -7500 0
0 -4052z m8174 -29 c-2 -4 11 -5 29 -4 17 2 36 0 41 -3 7 -4 69 -6 91 -3 3 1
6 0 8 -1 2 -2 14 4 27 13 23 15 38 16 100 5 14 -2 43 -7 65 -10 22 -4 48 -9
59 -12 13 -4 16 -3 11 6 -6 10 0 12 25 7 18 -4 41 -7 52 -7 10 0 17 -4 14 -8
-3 -5 1 -9 9 -9 8 0 15 4 15 9 0 4 9 8 20 8 14 0 18 -5 13 -17 -4 -10 -2 -14
4 -10 6 4 33 -15 61 -41 115 -108 131 -120 166 -132 20 -6 41 -20 47 -31 5
-11 14 -17 20 -14 5 4 9 -3 9 -14 0 -12 3 -20 8 -20 22 4 33 -5 51 -39 11 -21
27 -45 37 -53 10 -8 15 -9 11 -2 -8 13 18 12 30 -2 5 -4 2 -5 -6 0 -11 6 -13
4 -8 -9 4 -10 7 -22 7 -27 0 -5 5 -9 10 -9 6 0 10 6 8 14 -2 8 0 15 5 15 26 3
29 -2 25 -33 -2 -19 0 -32 5 -29 4 2 14 -1 22 -7 8 -7 15 -9 15 -5 0 4 6 2 14
-4 11 -10 17 -8 25 6 9 14 11 5 9 -43 -2 -41 1 -66 10 -74 11 -10 11 -15 0
-28 -11 -13 -11 -15 4 -10 26 11 36 -61 10 -82 -16 -13 -17 -18 -5 -28 7 -7
10 -19 6 -25 -4 -7 0 -6 10 2 9 7 17 19 17 25 0 6 -5 4 -10 -4 -7 -12 -9 -10
-8 6 2 18 5 20 20 11 10 -7 14 -15 9 -22 -8 -9 -26 -140 -24 -177 0 -10 -4
-18 -9 -18 -6 0 -8 17 -4 44 6 41 5 44 -19 48 -29 6 -31 2 -11 -17 7 -8 17
-11 22 -7 5 4 3 0 -2 -8 -15 -20 -7 -72 12 -86 20 -16 26 -101 7 -108 -8 -3
-11 -10 -8 -16 3 -5 2 -10 -4 -10 -5 0 -8 -10 -6 -21 6 -33 15 -36 15 -6 0 18
5 27 16 27 13 0 14 -3 4 -15 -6 -8 -8 -20 -4 -27 11 -18 13 -58 3 -58 -5 0 -8
-11 -7 -25 1 -14 6 -25 11 -25 5 0 7 9 4 21 -4 16 -3 18 9 8 7 -6 12 -15 9
-19 -3 -4 3 -11 12 -14 15 -6 15 -8 3 -16 -8 -5 -16 -14 -16 -20 -1 -5 -2 -11
-4 -12 -1 -2 -3 -13 -4 -26 -2 -16 2 -21 11 -18 7 3 13 0 13 -7 0 -7 10 -24
22 -37 13 -13 23 -38 23 -55 1 -16 4 -42 8 -57 4 -15 3 -29 -2 -33 -6 -3 -8
-14 -6 -25 2 -11 -1 -20 -6 -20 -6 0 -9 -15 -7 -32 3 -29 0 -33 -20 -32 -12 0
-22 -4 -22 -9 0 -6 -9 -2 -20 8 -11 10 -20 15 -20 11 0 -4 -10 2 -22 14 -12
11 -27 20 -34 20 -6 0 -17 6 -23 14 -16 19 -92 59 -99 52 -3 -3 -11 -1 -19 6
-7 6 -16 8 -20 4 -3 -3 0 -6 8 -7 8 -1 3 -4 -11 -8 -14 -4 -24 -12 -23 -18 1
-6 -11 -9 -28 -8 -16 1 -32 -1 -34 -6 -3 -4 -13 -5 -22 -2 -12 5 -14 3 -8 -8
7 -11 6 -12 -6 -3 -8 6 -25 10 -39 8 -70 -9 -105 -17 -110 -24 -3 -4 -16 -10
-30 -11 -14 -2 -31 -11 -38 -19 -10 -13 -11 -13 -6 3 5 14 2 16 -12 10 -11 -3
-29 -13 -41 -21 -13 -8 -23 -10 -23 -6 0 5 -6 2 -13 -6 -9 -11 -32 -16 -84
-17 -40 0 -79 -6 -86 -12 -8 -6 -16 -8 -20 -5 -3 3 -12 -3 -19 -15 -7 -12 -19
-21 -26 -21 -7 0 -11 4 -7 9 3 6 -7 6 -27 0 -41 -11 -61 -12 -54 -1 3 5 -1 9
-9 9 -8 0 -12 -4 -9 -9 10 -15 -27 -21 -54 -8 -34 17 -53 14 -75 -13 -10 -12
-15 -16 -11 -8 5 9 3 12 -4 7 -7 -4 -12 -16 -12 -27 0 -14 -4 -18 -12 -12 -22
13 -78 11 -78 -4 0 -14 -58 -73 -71 -73 -5 0 -9 -7 -9 -16 0 -18 -23 -44 -39
-44 -15 0 -14 -12 4 -37 14 -20 13 -25 -3 -55 -22 -39 -46 -44 -159 -33 -59 5
-73 10 -73 23 0 10 -9 28 -20 42 -22 28 -26 45 -9 34 6 -3 3 6 -7 22 -26 42
-54 78 -54 70 0 -4 -13 0 -30 9 -16 9 -30 13 -30 11 0 -2 -13 9 -29 25 -16 16
-39 29 -51 29 -11 0 -23 7 -27 15 -5 14 -8 14 -24 -1 -17 -15 -19 -15 -25 -1
-6 16 -44 20 -44 5 0 -4 -3 -7 -7 -6 -5 0 -15 -2 -24 -6 -11 -5 -25 1 -42 18
-14 13 -41 28 -61 31 -21 4 -36 13 -36 21 0 8 -5 14 -11 14 -5 0 -7 -6 -3 -12
6 -10 4 -10 -7 -2 -8 6 -21 12 -29 12 -8 1 -33 5 -56 10 -22 5 -50 5 -61 1
-15 -5 -26 -2 -38 11 -14 15 -22 17 -39 9 -20 -10 -20 -10 -2 5 26 21 16 28
-43 30 -28 0 -51 3 -51 6 0 11 -58 30 -73 24 -9 -3 -37 4 -62 16 -45 22 -76
23 -134 4 -17 -5 -22 -4 -17 5 4 6 11 9 16 6 5 -3 11 -2 14 3 2 4 -4 9 -15 9
-10 1 -26 9 -34 17 -9 8 -23 12 -32 9 -31 -12 -68 -9 -81 6 -10 14 -11 13 -5
-4 6 -17 5 -18 -9 -5 -9 8 -15 19 -15 25 1 5 -13 8 -31 6 -29 -2 -32 0 -28 21
2 13 8 22 13 21 5 -1 10 3 11 10 1 7 3 22 4 34 2 12 -1 21 -7 20 -5 -1 -10 -6
-11 -12 0 -5 -2 -16 -2 -23 -1 -7 -7 -10 -12 -7 -7 5 -8 11 -1 19 15 17 0 33
-30 32 -19 -1 -25 3 -22 12 3 7 12 11 20 8 7 -3 16 1 19 9 7 17 25 20 22 4 -2
-6 5 -13 15 -14 11 -2 17 3 17 16 0 11 -4 18 -9 14 -5 -3 -10 12 -9 32 0 72
-5 114 -13 101 -4 -6 -5 -17 -2 -23 3 -5 0 -5 -6 1 -10 9 -10 17 -2 32 15 27
14 29 -9 35 -11 3 -18 1 -15 -3 3 -5 1 -11 -5 -15 -7 -4 -5 -14 5 -28 19 -27
19 -43 1 -50 -11 -4 -13 0 -10 16 2 11 -1 24 -7 28 -14 8 -30 79 -17 79 5 0 7
4 4 9 -7 10 19 23 28 14 11 -11 6 -24 -6 -17 -7 4 -8 3 -4 -4 11 -18 36 -2 36
23 0 13 4 26 10 30 5 3 8 -7 5 -25 -2 -17 0 -28 5 -25 5 3 6 13 3 22 -4 11 -3
14 5 9 7 -4 12 -14 12 -23 0 -9 3 -13 7 -9 12 11 12 40 1 53 -8 9 -7 13 2 13
8 0 10 3 7 6 -4 4 -13 1 -21 -5 -15 -12 -32 1 -22 17 3 5 -15 8 -39 8 -34 0
-42 -3 -38 -15 2 -10 -1 -9 -9 3 -7 11 -22 29 -34 40 -19 19 -23 53 -4 41 4
-3 14 3 21 12 12 14 12 16 0 8 -11 -6 -13 -2 -7 21 4 16 3 25 -1 19 -13 -16
-30 -15 -45 2 -10 13 -10 17 0 20 15 6 16 29 0 39 -8 5 -9 2 -5 -10 4 -9 3
-15 -2 -12 -9 6 -35 -20 -44 -44 -4 -11 -6 -9 -6 6 -1 11 8 30 19 42 11 12 20
26 20 31 0 6 7 8 16 4 12 -4 15 0 12 21 -2 15 -7 25 -13 24 -5 -2 -9 -10 -7
-18 2 -12 1 -12 -6 -1 -12 17 -3 53 12 44 7 -4 7 -2 -1 7 -9 9 -9 17 0 31 9
14 8 21 -2 31 -11 11 -12 10 -6 -2 5 -8 5 -12 0 -8 -4 4 -14 0 -21 -10 -16
-22 -28 -10 -19 19 6 17 9 19 16 8 5 -8 9 -9 9 -3 0 7 9 14 20 17 15 4 20 0
20 -15 0 -10 4 -17 9 -14 5 3 8 20 7 37 -1 16 1 32 5 35 4 2 6 12 5 22 -3 16
10 32 27 32 4 0 7 -5 7 -11 0 -5 -5 -7 -12 -3 -8 5 -9 -2 -5 -24 4 -19 2 -32
-3 -32 -14 0 -12 -12 6 -35 13 -17 16 -18 24 -5 5 8 7 23 4 33 -6 19 11 24 20
5 4 -7 4 -3 2 8 -2 12 1 28 6 35 8 11 9 10 4 -3 -11 -36 20 -17 34 20 22 55
23 60 6 32 l-15 -25 -1 26 c0 21 5 26 28 26 70 1 75 2 69 23 -8 31 26 45 65
26 39 -20 38 -20 38 3 0 11 3 27 6 36 5 13 8 14 15 3 6 -10 9 -8 9 7 0 17 2
18 10 5 9 -13 12 -13 25 4 7 10 18 15 24 12 5 -4 13 -1 16 5 4 5 13 8 20 5 8
-3 11 2 8 15 -4 13 0 19 11 19 9 0 15 -3 15 -7 -3 -20 2 -23 16 -9 9 9 15 23
13 32 -2 11 12 21 47 35 28 10 51 19 52 19 1 0 0 -8 -3 -17 -5 -15 -4 -16 5
-3 6 8 11 23 11 34 0 31 28 0 36 -40 8 -44 20 -36 28 21 4 25 10 45 14 45 12
0 29 -15 35 -30 3 -9 6 -5 6 11 1 34 50 71 76 57 13 -8 24 -7 36 0 13 8 20 8
29 -3 17 -21 30 -19 30 4 0 11 7 27 16 35 16 17 64 22 64 7 0 -11 53 -1 62 13
5 8 8 7 8 -1 0 -7 6 -10 14 -7 7 3 16 -2 20 -11 5 -14 8 -14 31 1 16 10 24 23
20 32 -4 12 -3 13 10 2 12 -10 15 -10 15 1 0 8 7 4 16 -9 14 -20 47 -32 42
-14 -4 15 14 52 25 53 7 1 17 2 22 4 6 1 15 3 22 3 6 1 15 12 19 25 7 21 8 21
20 -8 7 -16 13 -23 14 -14 0 13 13 16 73 15 39 -1 77 2 83 6 6 5 33 9 60 10
36 1 58 9 82 29 30 23 41 26 98 24 52 -3 64 0 64 12 0 9 6 13 15 9 8 -3 15 -1
15 3 0 5 11 4 24 -2 13 -7 22 -15 20 -18z m-670 -140 c-6 -11 -24 -2 -24 11 0
5 7 7 15 4 8 -4 12 -10 9 -15z m-1253 -491 c11 -21 11 -22 -4 -9 -10 7 -17 17
-17 22 0 15 9 10 21 -13z m3159 -144 c0 -8 -5 -12 -10 -9 -6 4 -8 11 -5 16 9
14 15 11 15 -7z m-3155 -94 c-3 -5 1 -20 10 -33 14 -21 14 -24 0 -24 -9 0 -14
6 -11 13 3 8 1 16 -5 19 -5 4 -9 3 -8 -2 3 -20 -2 -33 -13 -30 -8 1 -13 -9
-14 -25 -1 -22 2 -26 12 -17 11 9 14 8 14 -4 0 -9 -7 -14 -17 -13 -22 4 -38
66 -16 66 7 0 16 8 20 18 7 19 23 42 30 42 2 0 1 -4 -2 -10z m35 -75 c-9 -17
-19 -24 -29 -19 -9 3 -22 7 -28 7 -25 1 -13 23 12 23 19 0 24 -4 20 -15 -3
-10 0 -9 10 3 8 11 15 24 15 30 0 5 3 6 7 3 3 -4 0 -18 -7 -32z m31 -84 c19
-38 19 -69 0 -67 -9 2 -16 15 -18 32 -2 16 -4 35 -5 42 -1 7 -8 12 -17 11 -38
-3 -45 1 -26 15 23 17 47 5 66 -33z m91 -15 c9 -14 -13 -45 -29 -39 -9 3 -11
13 -7 27 6 21 6 21 -10 1 -16 -21 -20 -17 -10 8 6 17 45 19 56 3z m48 -37 c0
-6 -4 -7 -10 -4 -5 3 -10 11 -10 16 0 6 5 7 10 4 6 -3 10 -11 10 -16z m-56
-94 c-4 -8 -10 -12 -15 -9 -11 6 -2 24 11 24 5 0 7 -7 4 -15z m-14 -111 c0 -8
-5 -12 -10 -9 -6 4 -8 11 -5 16 9 14 15 11 15 -7z m220 -264 c0 -5 -8 -10 -17
-10 -15 0 -16 2 -3 10 19 12 20 12 20 0z m5480 -95 c0 -8 -4 -15 -9 -15 -13 0
-22 16 -14 24 11 11 23 6 23 -9z m43 -115 c-3 -12 -8 -19 -11 -16 -5 6 5 36
12 36 2 0 2 -9 -1 -20z m-4838 -52 c103 -21 250 -72 261 -90 3 -5 -7 -3 -24 6
-32 16 -269 80 -337 91 -22 3 -47 10 -55 15 -18 12 12 7 155 -22z m4612 -60
c-3 -7 -5 -2 -5 12 0 14 2 19 5 13 2 -7 2 -19 0 -25z m-2567 -14 c179 -23 360
-64 385 -88 6 -5 3 -6 -10 -2 -40 15 -204 45 -301 55 -54 6 -205 15 -334 21
-129 6 -251 14 -270 18 l-35 6 50 7 c74 10 383 0 515 -17z m-113 -50 c-3 -3
-12 -4 -19 -1 -8 3 -5 6 6 6 11 1 17 -2 13 -5z m-4667 -44 c0 -5 6 -7 14 -4
16 6 31 -12 17 -21 -6 -3 -8 -12 -5 -20 4 -8 11 -12 16 -9 6 4 5 10 -3 16 -11
8 -11 9 1 5 15 -4 17 -7 19 -53 1 -19 5 -25 16 -20 17 6 19 -2 6 -22 -4 -7
-14 -12 -22 -10 -8 2 -13 -3 -11 -10 2 -10 -2 -11 -15 -4 -14 8 -21 4 -35 -18
-9 -16 -15 -38 -13 -49 3 -19 -5 -26 -27 -22 -5 0 -8 -3 -8 -9 0 -5 -9 -10
-20 -10 -16 0 -20 7 -20 36 0 26 4 35 13 31 15 -6 18 5 19 81 1 28 5 52 10 52
4 0 8 11 8 25 0 16 6 25 16 25 8 0 12 5 9 10 -3 6 -1 10 4 10 6 0 11 -4 11
-10z m8029 -73 c0 -9 -2 -8 -6 1 -2 6 -10 9 -15 6 -7 -4 -8 -2 -4 5 9 13 26 5
25 -12z m-2007 -19 c-8 -8 -9 -4 -5 13 4 13 8 18 11 10 2 -7 -1 -18 -6 -23z
m-2489 6 c63 -12 87 -20 87 -31 0 -12 -10 -14 -47 -9 -27 3 -77 8 -113 11 -69
7 -129 22 -144 36 -16 15 122 10 217 -7z m3929 2 c-10 -14 -9 -27 3 -46 7 -12
6 -13 -7 -3 -8 7 -19 9 -24 5 -4 -4 -3 0 3 8 6 8 9 22 8 31 -2 9 3 16 11 16 8
0 10 -5 6 -11z m-1485 -51 c0 -8 -4 -12 -9 -9 -5 3 -6 10 -3 15 9 13 12 11 12
-6z m2213 -15 c0 -5 7 -10 15 -10 8 0 15 -7 15 -15 0 -8 -9 -15 -20 -15 -11 0
-20 4 -20 9 0 5 -3 16 -6 25 -3 9 -1 16 5 16 6 0 11 -4 11 -10z m-6007 -7 c-7
-2 -19 -2 -25 0 -7 3 -2 5 12 5 14 0 19 -2 13 -5z m113 -14 c15 -17 16 -22 4
-29 -27 -17 -65 21 -43 43 11 11 19 8 39 -14z m1091 -1 c16 -8 37 -32 50 -58
12 -25 37 -76 56 -115 19 -38 55 -110 80 -160 26 -49 47 -97 47 -105 0 -8 8
-20 19 -27 13 -8 17 -19 13 -39 -3 -17 -1 -25 6 -20 6 4 8 -2 6 -16 -4 -20 -3
-21 7 -7 11 14 17 10 46 -34 32 -47 33 -54 38 -163 4 -104 3 -116 -15 -134
-21 -21 -27 -35 -11 -26 5 3 14 -1 21 -9 7 -8 16 -13 20 -10 4 3 10 -5 13 -16
3 -12 10 -18 15 -15 6 3 12 -1 16 -9 3 -8 15 -15 27 -15 30 0 61 -36 108 -122
22 -40 36 -174 20 -184 -17 -10 -9 -34 11 -34 23 0 25 -8 5 -34 -8 -10 -12
-23 -8 -29 3 -6 1 -7 -6 -3 -6 4 -8 13 -4 19 4 7 -2 5 -12 -3 -17 -14 -18 -13
-11 13 7 29 9 28 -64 33 -25 1 -46 3 -47 4 -2 2 -9 3 -15 4 -7 1 -13 11 -12
23 0 21 0 21 -35 -3 -20 -13 -41 -24 -48 -24 -7 0 -17 -9 -23 -19 -5 -11 -27
-25 -47 -32 -21 -6 -47 -18 -58 -24 -11 -7 -49 -16 -85 -19 -84 -8 -98 -11
-106 -18 -9 -10 -99 1 -102 12 -2 6 -15 10 -28 10 -13 0 -24 5 -24 11 0 5 -4
8 -8 5 -4 -3 -25 11 -46 30 -20 19 -45 34 -54 34 -15 0 -15 2 -2 10 12 8 9 10
-12 10 -16 0 -28 4 -28 10 0 5 -11 12 -25 16 -14 3 -22 10 -20 15 3 5 -6 11
-20 15 -14 3 -32 16 -40 27 -8 12 -15 18 -15 14 0 -3 -11 -3 -23 2 -14 6 -30
6 -38 0 -12 -7 -12 -9 1 -9 10 0 9 -4 -5 -14 -11 -7 -24 -14 -29 -14 -5 0 -16
-15 -24 -33 -9 -18 -18 -27 -20 -21 -5 15 -32 16 -32 1 0 -6 -12 -2 -27 9 -16
11 -36 18 -46 16 -11 -1 -16 0 -13 3 3 3 -11 18 -31 33 -25 19 -38 37 -39 56
-3 24 -2 25 5 9 5 -11 7 -23 5 -27 -3 -4 0 -9 5 -12 5 -4 8 2 6 11 -2 10 -4
28 -4 41 -1 16 -5 21 -13 16 -10 -6 -10 -5 -1 8 7 8 10 17 7 21 -3 3 -3 15 1
28 5 15 10 18 15 9 5 -8 9 -5 13 9 3 12 1 19 -4 15 -5 -3 -9 0 -9 5 0 6 5 11
11 11 5 0 8 4 5 9 -3 5 1 12 10 15 9 4 14 9 10 13 -10 11 38 38 62 34 13 -1
29 2 35 8 7 6 18 6 26 1 8 -4 20 -6 28 -3 7 3 13 0 13 -5 0 -6 9 -14 21 -17
12 -4 18 -12 15 -21 -3 -7 -1 -16 5 -19 5 -4 7 -10 4 -15 -3 -5 4 -14 15 -20
11 -6 21 -8 21 -5 1 3 3 10 4 15 1 6 3 16 4 23 1 8 4 7 11 -3 8 -13 10 -13 10
0 0 11 3 11 12 2 7 -7 22 -12 34 -12 13 0 24 -6 27 -12 2 -7 2 -3 0 10 -2 16
1 22 16 22 11 0 31 10 46 23 23 20 24 25 14 58 -9 29 -9 43 2 65 9 18 12 42 8
64 -6 35 -6 35 -9 5 l-2 -30 -8 35 c-6 23 -4 42 5 61 10 19 11 29 3 37 -8 8
-8 15 2 27 10 12 10 15 -4 15 -9 0 -16 7 -16 15 0 8 -7 15 -15 15 -11 0 -14 7
-11 25 3 14 1 25 -4 25 -13 0 -5 35 8 36 25 3 27 5 13 13 -12 8 -12 12 -2 24
10 13 9 15 -8 10 -25 -6 -27 13 -6 40 7 11 11 25 9 32 -3 7 0 24 7 37 7 13 16
41 21 63 5 22 10 45 12 50 1 6 6 24 10 40 4 17 12 39 17 50 5 11 13 53 18 94
5 40 14 78 20 84 27 27 127 30 178 5z m1953 -28 c11 -7 6 -10 -20 -10 -19 0
-42 5 -50 10 -11 7 -6 10 20 10 19 0 42 -5 50 -10z m-2987 -28 c-3 -8 0 -17 6
-22 10 -5 9 -9 -2 -13 -9 -3 -21 2 -29 11 -11 13 -11 14 1 7 11 -6 13 -3 9 12
-3 12 0 20 7 20 7 0 11 -7 8 -15z m-2169 -1 c3 -4 -6 -6 -19 -3 -14 2 -25 6
-25 8 0 8 39 4 44 -5z m4255 -43 c13 -34 -22 -65 -84 -74 -46 -6 -49 -6 -36 9
7 9 18 14 24 10 5 -3 7 -1 4 4 -8 13 48 73 68 73 9 0 20 -10 24 -22z m2207 10
c4 -7 4 -10 -1 -6 -4 4 -14 3 -21 -3 -8 -7 -14 -6 -20 2 -4 7 -3 9 4 5 6 -3
13 -2 17 4 8 13 12 13 21 -2z m-2806 -18 c0 -5 -7 -10 -16 -10 -8 0 -12 5 -9
10 3 6 10 10 16 10 5 0 9 -4 9 -10z m2464 -11 c-3 -5 -10 -7 -15 -3 -5 3 -7
10 -3 15 3 5 10 7 15 3 5 -3 7 -10 3 -15z m439 5 c4 -1 10 -2 13 -3 3 0 2 -6
-1 -11 -5 -8 -11 -8 -19 -1 -7 6 -15 9 -18 6 -2 -3 -5 2 -5 10 0 8 5 11 11 7
6 -4 14 -7 19 -8z m-553 0 c0 -8 -19 -13 -24 -6 -3 5 1 9 9 9 8 0 15 -2 15 -3z
m84 -10 c3 -8 2 -12 -4 -9 -6 3 -10 10 -10 16 0 14 7 11 14 -7z m-8884 -34 c0
-5 -5 -10 -11 -10 -5 0 -7 5 -4 10 3 6 8 10 11 10 2 0 4 -4 4 -10z m8085 -11
c-4 -5 -2 -9 3 -9 5 0 10 -22 11 -50 1 -27 -3 -50 -8 -50 -11 0 -36 30 -25 30
5 0 2 5 -6 10 -12 7 -12 10 -1 10 8 0 11 6 7 16 -8 21 4 65 15 58 5 -3 7 -10
4 -15z m-7338 -21 c-3 -8 -6 -5 -6 6 -1 11 2 17 5 13 3 -3 4 -12 1 -19z m5533
12 c0 -5 -2 -10 -4 -10 -3 0 -8 5 -11 10 -3 6 -1 10 4 10 6 0 11 -4 11 -10z
m-5770 -80 c0 -5 -4 -10 -10 -10 -5 0 -10 5 -10 10 0 6 5 10 10 10 6 0 10 -4
10 -10z m9140 -5 c0 -2 -6 -8 -13 -14 -10 -8 -14 -7 -14 2 0 8 6 14 14 14 7 0
13 -1 13 -2z m107 -17 c-3 -8 -6 -5 -6 6 -1 11 2 17 5 13 3 -3 4 -12 1 -19z
m1340 -72 c2 -19 1 -19 -8 -3 -6 9 -15 14 -21 11 -6 -4 -8 -3 -5 3 11 17 33
10 34 -11z m-12067 -36 c0 -5 -4 -10 -10 -10 -5 0 -10 5 -10 10 0 6 5 10 10
10 6 0 10 -4 10 -10z m7845 -19 c3 -5 1 -12 -5 -16 -5 -3 -10 1 -10 9 0 18 6
21 15 7z m21 -7 c-5 -13 -3 -14 6 -7 18 14 43 9 74 -16 l27 -21 -25 0 c-14 0
-28 3 -32 7 -4 4 -19 9 -34 11 -15 2 -28 5 -30 6 -4 4 9 36 15 36 3 0 2 -7 -1
-16z m-89 -11 c2 -6 -3 -13 -12 -16 -10 -5 -15 0 -15 14 0 21 21 22 27 2z
m-7850 -55 c-2 -13 -4 -5 -4 17 -1 22 1 32 4 23 2 -10 2 -28 0 -40z m7580 0
c6 14 49 16 58 2 3 -5 13 -10 21 -10 10 0 12 5 8 13 -6 8 -3 8 9 -1 9 -8 20
-11 24 -9 5 3 23 -1 41 -10 27 -13 37 -14 57 -3 13 7 31 10 40 6 10 -3 14 -2
9 5 -4 8 0 7 15 0 11 -7 21 -17 21 -23 0 -7 6 -4 13 5 15 20 99 27 105 9 2 -7
14 -12 27 -12 23 0 40 -24 29 -41 -3 -5 0 -9 5 -9 6 0 11 7 11 15 0 8 5 15 10
15 6 0 10 -8 10 -19 0 -14 6 -17 26 -13 19 3 22 7 12 13 -11 7 -11 9 0 9 8 0
16 -9 19 -20 6 -23 8 -23 32 -11 10 6 23 6 32 0 10 -6 11 -9 1 -9 -7 0 -10 -5
-7 -11 4 -6 13 -8 21 -5 9 3 14 -2 14 -14 0 -11 5 -20 11 -20 5 0 7 6 3 13 -4
6 -3 8 1 4 17 -15 13 -35 -5 -30 -10 3 -21 0 -24 -6 -4 -6 -34 -11 -66 -11
-94 0 -78 -16 23 -24 123 -9 175 -17 193 -28 10 -7 79 -3 134 7 14 3 29 10 35
18 5 7 17 11 27 9 9 -2 19 2 23 7 3 6 13 11 21 11 10 0 12 -5 8 -12 -5 -9 -2
-9 9 1 11 9 17 10 17 2 0 -21 2 -26 32 -63 18 -23 32 -56 37 -85 10 -67 3
-291 -10 -311 -9 -15 -10 -15 -5 1 3 10 2 16 -3 13 -5 -3 -12 -39 -16 -78 -4
-40 -14 -82 -21 -93 -8 -11 -14 -33 -14 -50 0 -20 -7 -35 -20 -43 -12 -7 -18
-16 -16 -21 9 -13 -41 -61 -62 -61 -22 0 -47 -25 -38 -38 3 -5 -1 -9 -9 -9 -8
0 -15 5 -15 11 0 6 -5 4 -10 -4 -9 -13 -10 -13 -10 0 0 13 -1 13 -10 0 -5 -8
-10 -10 -10 -4 0 14 -32 13 -42 -1 -5 -6 -8 -4 -8 5 -1 12 -3 11 -11 -3 -8
-13 -15 -15 -28 -8 -12 7 -22 6 -29 -1 -9 -9 -12 -8 -12 2 0 13 -2 13 -9 1
-11 -17 -41 -24 -41 -9 0 5 -19 9 -42 8 -24 -1 -47 -1 -53 0 -5 1 -13 2 -17 1
-5 0 -8 10 -8 23 0 18 -7 25 -30 30 -21 4 -30 11 -30 25 0 15 -31 54 -34 43
-4 -12 -39 16 -62 49 -15 22 -33 38 -40 35 -8 -3 -11 0 -7 10 3 8 -1 14 -10
14 -10 0 -13 7 -10 19 3 10 0 22 -6 25 -6 4 -11 3 -11 -3 0 -6 -14 4 -30 22
-57 61 -90 101 -90 108 0 4 -6 6 -12 5 -7 0 -14 3 -15 7 0 5 -13 21 -27 36
-15 15 -24 30 -21 33 3 2 -1 5 -8 5 -11 0 -71 36 -87 53 -7 8 -63 33 -74 34
-10 1 -17 24 -20 67 -2 14 -6 31 -10 37 -9 15 1 32 18 32 13 0 23 20 32 65 3
10 9 22 15 26 6 3 10 15 9 25 -4 38 0 54 15 54 8 0 15 5 15 10 0 6 -9 10 -21
10 -27 0 -79 31 -79 47 0 7 -4 13 -10 13 -5 0 -10 -5 -10 -12 0 -29 -13 6 -16
42 -2 31 2 40 17 45 10 4 23 3 29 0 6 -3 13 1 17 11 5 15 8 14 16 -7 5 -14 11
-19 14 -11z m379 19 c4 -3 -4 -4 -16 -2 -30 6 -40 16 -12 12 12 -2 24 -6 28
-10z m-2845 -25 c0 -11 3 -12 6 -4 6 15 33 16 33 1 0 -6 9 -9 20 -6 11 3 23 0
27 -5 4 -7 1 -8 -8 -3 -8 5 -11 5 -7 0 10 -10 88 -13 94 -3 3 5 11 5 17 1 7
-4 32 -9 57 -11 25 -2 50 -8 56 -13 7 -5 41 -9 75 -9 35 0 82 -2 104 -5 22 -4
47 -7 57 -9 9 -1 23 -8 31 -15 9 -7 18 -8 21 -3 3 6 23 9 45 8 32 -2 38 1 33
13 -5 14 -4 14 12 2 16 -13 33 -15 166 -12 45 1 53 17 15 31 -30 12 -30 11 -1
45 15 17 26 23 30 16 4 -6 5 -15 2 -20 -3 -5 6 -8 20 -8 14 0 28 5 31 12 2 8
11 16 18 19 8 3 12 0 9 -8 -3 -7 4 -13 18 -14 62 -4 116 -21 72 -23 -18 0 -18
-1 1 -9 19 -8 19 -9 -2 -9 -13 -1 -23 4 -23 10 0 6 -7 3 -16 -6 -10 -9 -25
-14 -35 -12 -11 3 -21 1 -24 -3 -3 -5 -16 -7 -30 -4 -13 2 -26 0 -29 -4 -3 -5
12 -10 32 -11 56 -3 103 -15 102 -26 0 -5 -10 -10 -21 -9 -15 0 -19 -5 -17
-19 3 -20 9 -22 83 -31 17 -1 43 -8 58 -15 16 -6 33 -8 39 -5 6 4 8 3 5 -3 -4
-6 0 -19 8 -29 7 -10 11 -29 8 -41 -4 -18 -1 -23 15 -23 27 0 38 -18 17 -26
-13 -6 -14 -8 -3 -15 10 -7 9 -9 -4 -9 -10 0 -19 -11 -23 -31 -4 -17 -12 -28
-18 -26 -14 5 -69 -33 -117 -82 -20 -20 -71 -61 -115 -91 -43 -30 -86 -62 -96
-72 -9 -9 -25 -19 -36 -22 -10 -3 -29 -22 -42 -42 -13 -19 -33 -40 -43 -45
-24 -13 -61 -49 -50 -49 9 0 -90 -91 -119 -108 -18 -12 -23 -12 -31 0 -6 9 -7
6 -3 -9 5 -20 2 -23 -22 -24 -16 -1 -21 -3 -11 -6 30 -8 -1 -28 -38 -27 -19 1
-37 -2 -40 -7 -8 -14 -26 -11 -18 4 5 9 4 9 -6 0 -7 -6 -18 -9 -25 -7 -7 3
-15 -4 -18 -15 -5 -21 -47 -31 -47 -11 0 15 -36 12 -49 -3 -6 -8 -9 -16 -6
-19 3 -2 -2 -5 -9 -5 -8 0 -14 5 -13 10 1 5 -8 11 -21 13 -13 2 -21 1 -18 -4
2 -4 -3 -8 -13 -8 -10 0 -18 6 -18 13 0 7 4 10 9 7 4 -3 8 0 8 6 0 6 -10 10
-22 8 -11 -2 -23 3 -26 10 -2 7 2 11 9 10 7 -2 15 5 17 15 4 18 -22 24 -33 7
-3 -6 1 -7 9 -4 9 3 16 2 16 -3 0 -5 -9 -9 -20 -10 -16 -1 -19 3 -14 21 3 14
0 29 -9 37 -14 14 -40 57 -43 72 -1 4 -2 12 -3 18 -1 7 -11 9 -27 5 -17 -5
-23 -3 -19 4 3 5 -1 10 -9 10 -9 0 -16 7 -16 15 0 8 -6 15 -14 15 -7 0 -13 8
-13 18 1 28 -23 102 -33 102 -6 0 -10 -4 -10 -10 0 -5 -5 -10 -10 -10 -7 0 -8
6 -2 17 11 19 -13 102 -32 109 -15 6 -19 54 -5 54 5 0 7 -4 4 -10 -3 -5 -1
-10 4 -10 6 0 11 16 11 35 0 28 -4 35 -19 35 -11 0 -21 -8 -23 -17 -3 -10 -5
7 -5 37 -1 30 -3 83 -6 118 -3 41 -1 62 7 62 6 0 5 4 -3 9 -9 6 -10 11 -2 15
16 10 26 -24 13 -45 -9 -13 -9 -20 0 -25 7 -4 8 -3 4 4 -4 7 -2 12 3 12 16 0
13 46 -4 60 -8 7 -13 16 -10 20 3 5 1 11 -4 14 -5 4 -13 1 -17 -5 -4 -7 -3 -9
3 -6 5 3 10 0 10 -8 0 -11 -4 -12 -14 -4 -18 16 -16 49 4 71 20 22 33 23 33 3
0 -8 4 -15 9 -15 4 0 7 12 5 26 -1 15 3 28 12 31 8 3 11 9 8 14 -3 5 -2 10 3
10 65 9 73 8 73 -8 0 -14 3 -13 16 5 9 13 14 34 11 47 -2 14 0 22 4 19 5 -3 9
-13 10 -22z m7124 8 c-3 -10 -1 -30 5 -42 10 -21 10 -21 -3 -6 -8 10 -17 15
-21 11 -3 -4 -1 8 5 25 12 34 25 45 14 12z m-9038 -19 c0 -11 -5 -18 -9 -15
-4 3 -5 11 -1 19 7 21 12 19 10 -4z m-205 -9 c-3 -8 1 -18 9 -23 10 -6 8 -8
-7 -7 -13 1 -21 8 -19 18 1 8 -3 18 -9 22 -6 4 -1 6 11 6 13 -2 19 -7 15 -16z
m3248 -3 c0 -5 -4 -9 -8 -9 -5 0 -9 7 -9 15 0 8 4 12 9 9 4 -3 8 -9 8 -15z
m-3205 -17 c-3 -3 0 -11 7 -19 6 -7 8 -16 4 -20 -3 -3 -6 -1 -6 6 0 7 -4 10
-9 7 -4 -3 -8 4 -7 17 1 13 -4 21 -12 19 -8 -1 -11 2 -7 8 5 8 11 7 21 -1 8
-6 12 -14 9 -17z m2862 13 c0 -8 -4 -12 -9 -9 -4 3 -8 9 -8 15 0 5 4 9 8 9 5
0 9 -7 9 -15z m-4200 -20 c0 -8 -4 -12 -9 -9 -5 3 -6 10 -3 15 9 13 12 11 12
-6z m49 6 c8 7 14 6 20 -3 4 -7 3 -10 -1 -5 -10 9 -47 -22 -39 -34 3 -5 -2 -6
-11 -2 -9 3 -12 9 -7 12 5 3 8 14 6 25 -2 14 0 16 8 8 8 -8 15 -8 24 -1z
m1458 -17 c5 -14 4 -15 -9 -4 -17 14 -19 20 -6 20 5 0 12 -7 15 -16z m666 1
c7 -8 8 -15 2 -15 -5 0 -15 7 -22 15 -7 8 -8 15 -2 15 5 0 15 -7 22 -15z
m5195 -137 c2 -50 0 -90 -6 -94 -5 -3 -7 -14 -4 -23 3 -10 -3 -28 -15 -41 -11
-13 -20 -34 -20 -48 0 -24 -47 -76 -112 -123 l-28 -20 -2 28 c-3 58 5 103 18
103 7 0 14 7 18 15 3 8 9 14 13 13 4 -2 9 1 10 6 1 5 7 12 13 16 7 4 14 40 16
86 4 86 9 120 26 177 9 29 15 36 30 31 14 -4 17 -1 13 13 -3 10 2 2 11 -17 10
-21 17 -69 19 -122z m-2354 110 c-3 -21 -6 -26 -9 -15 -3 17 3 47 11 47 2 0 1
-15 -2 -32z m-4038 -44 c4 -4 7 -14 6 -23 0 -10 -4 -7 -10 8 -5 12 -15 21 -22
18 -8 -3 -12 5 -11 24 2 45 5 46 17 12 7 -17 15 -35 20 -39z m124 39 c0 -9 -4
-10 -10 -4 -7 7 -15 7 -22 1 -8 -7 -16 -6 -23 3 -9 10 -4 13 22 13 20 0 33 -5
33 -13z m1091 -5 c-1 -7 3 -23 10 -36 7 -12 10 -28 6 -34 -6 -10 -25 19 -28
44 -1 3 -4 10 -8 14 -13 12 -9 24 7 24 9 0 15 -6 13 -12z m-3971 -60 c-3 -7
-5 -2 -5 12 0 14 2 19 5 13 2 -7 2 -19 0 -25z m1710 15 c0 -9 -4 -10 -14 -2
-7 6 -13 12 -13 14 0 1 6 2 13 2 8 0 14 -6 14 -14z m876 -4 c-8 -8 -13 -7 -18
2 -5 8 -4 10 3 5 7 -4 12 -2 12 5 0 7 3 9 7 6 4 -4 2 -12 -4 -18z m-1653 1 c0
-5 -2 -10 -4 -10 -3 0 -8 5 -11 10 -3 6 -1 10 4 10 6 0 11 -4 11 -10z m1377
-5 c0 -8 -4 -12 -9 -9 -5 3 -6 10 -3 15 9 13 12 11 12 -6z m5349 2 c4 -4 -2
-7 -14 -7 -12 0 -22 4 -22 9 0 10 26 9 36 -2z m1109 -50 c0 -26 -18 -25 -22 1
-2 16 1 22 9 20 7 -3 13 -12 13 -21z m-145 9 c0 -3 -4 -8 -10 -11 -5 -3 -10
-1 -10 4 0 6 5 11 10 11 6 0 10 -2 10 -4z m170 -66 c0 -5 -2 -10 -4 -10 -3 0
-8 5 -11 10 -3 6 -1 10 4 10 6 0 11 -4 11 -10z m3947 -85 c0 -8 -4 -12 -9 -9
-5 3 -6 10 -3 15 9 13 12 11 12 -6z m-12620 -17 c-3 -8 -6 -5 -6 6 -1 11 2 17
5 13 3 -3 4 -12 1 -19z m17 -27 c-7 -45 -24 -56 -24 -16 0 14 5 25 10 25 6 0
10 10 10 22 0 12 2 19 5 16 3 -3 3 -24 -1 -47z m9078 15 c6 -14 7 -33 4 -43
-4 -10 -6 -20 -4 -22 2 -2 -8 -8 -21 -12 -15 -6 -21 -14 -17 -24 3 -8 1 -15
-5 -15 -6 0 -9 -7 -6 -15 4 -8 2 -17 -3 -20 -6 -4 -10 -20 -10 -36 0 -20 4
-28 12 -23 7 4 8 3 4 -5 -4 -6 -11 -9 -16 -6 -11 7 -33 -22 -26 -34 4 -5 -2
-11 -11 -13 -30 -6 -63 4 -63 19 0 9 -5 11 -12 7 -10 -6 -10 -4 -2 7 6 8 10
24 9 37 -2 26 10 29 24 5 10 -17 11 -16 12 2 1 11 1 24 0 28 -1 5 3 6 9 2 5
-3 10 -1 10 5 0 6 5 8 10 5 6 -3 10 -1 10 4 0 6 7 11 15 11 14 0 21 33 17 83
-1 10 5 25 13 33 8 9 15 22 15 30 0 22 19 16 32 -10z m3573 12 c4 -3 2 -9 -3
-12 -5 -3 -15 1 -21 8 -10 11 -9 14 3 12 9 -1 18 -5 21 -8z m42 -33 c0 -8 -4
-12 -9 -9 -5 3 -6 10 -3 15 9 13 12 11 12 -6z m-12673 -37 c-15 -17 -16 -20
-3 -16 13 5 15 1 9 -30 -9 -53 -11 -57 -21 -54 -5 1 -9 -5 -9 -13 0 -16 21
-16 32 0 4 5 6 0 5 -12 0 -12 -6 -19 -12 -15 -5 4 -14 7 -19 7 -5 0 -13 10
-17 23 -5 13 -5 21 0 18 21 -13 36 44 18 71 -4 6 -3 14 3 18 6 4 7 11 4 17 -4
7 -2 8 4 4 7 -4 12 -2 12 5 0 7 3 9 7 6 3 -4 -2 -17 -13 -29z m12770 -26 c3
-5 -1 -9 -9 -9 -8 0 -12 4 -9 9 3 4 7 8 9 8 2 0 6 -4 9 -8z m-6274 -34 c0 -4
-4 -8 -9 -8 -6 0 -12 4 -15 8 -3 5 1 9 9 9 8 0 15 -4 15 -9z m34 -51 c4 4 4 0
0 -10 -3 -9 -11 -17 -17 -17 -6 0 -7 3 -4 7 4 3 1 13 -6 22 -10 14 -10 14 4 4
9 -7 19 -10 23 -6z m6752 -116 c-4 -6 -15 -11 -24 -10 -11 0 -12 3 -4 6 6 2
12 12 12 21 0 12 3 13 11 5 6 -6 8 -16 5 -22z m-8311 -41 c3 -5 1 -10 -4 -10
-6 0 -11 5 -11 10 0 6 2 10 4 10 3 0 8 -4 11 -10z m-5198 -22 c-3 -8 -6 -5 -6
6 -1 11 2 17 5 13 3 -3 4 -12 1 -19z m13797 -20 c-6 -21 -5 -22 11 -8 17 14
17 14 4 -7 -11 -18 -15 -20 -21 -9 -5 8 -5 21 -2 30 9 24 16 19 8 -6z m126
-39 c0 -18 -18 -9 -23 12 -4 16 -3 18 9 8 8 -6 14 -15 14 -20z m-13753 4 c-4
-3 -2 -12 4 -19 7 -8 6 -14 -2 -20 -7 -4 -9 -3 -5 4 3 6 2 13 -4 17 -10 6 -5
25 7 25 4 0 3 -3 0 -7z m-607 -29 c0 -8 -5 -12 -10 -9 -6 4 -8 11 -5 16 9 14
15 11 15 -7z m14467 -9 c4 -4 3 -5 -4 -2 -6 4 -13 2 -15 -5 -3 -8 -6 -6 -10 4
-7 17 15 19 29 3z m-776 -18 c-6 -6 -7 -16 -1 -27 6 -11 5 -17 -4 -17 -7 0
-11 10 -10 21 1 12 3 27 3 34 1 7 6 10 12 6 7 -4 8 -9 0 -17z m-7951 9 c0 -3
-4 -8 -10 -11 -5 -3 -10 -1 -10 4 0 6 5 11 10 11 6 0 10 -2 10 -4z m-5133 -28
c-3 -8 -6 -5 -6 6 -1 11 2 17 5 13 3 -3 4 -12 1 -19z m13183 -29 c0 -5 -7 -9
-15 -9 -15 0 -20 12 -9 23 8 8 24 -1 24 -14z m-13220 -19 c0 -5 -4 -10 -10
-10 -5 0 -10 5 -10 10 0 6 5 10 10 10 6 0 10 -4 10 -10z m13230 -6 c0 -8 -19
-13 -24 -6 -3 5 1 9 9 9 8 0 15 -2 15 -3z m37 -9 c0 -6 -10 -11 -21 -12 -12
-1 -15 1 -8 4 6 3 10 8 8 12 -3 4 1 8 8 8 7 0 13 -5 13 -12z m-8044 -10 c-3
-9 -8 -14 -10 -11 -3 3 -2 9 2 15 9 16 15 13 8 -4z m3377 -74 c0 -10 -7 -22
-16 -25 -8 -3 -13 -2 -11 2 2 4 7 15 10 25 8 23 17 22 17 -2z m-3355 -1 c3 -5
1 -10 -4 -10 -6 0 -11 5 -11 10 0 6 2 10 4 10 3 0 8 -4 11 -10z m2462 -32 c-3
-7 -5 -2 -5 12 0 14 2 19 5 13 2 -7 2 -19 0 -25z m-30 -25 c-3 -10 -5 -4 -5
12 0 17 2 24 5 18 2 -7 2 -21 0 -30z m701 2 c-3 -3 -9 2 -12 12 -6 14 -5 15 5
6 7 -7 10 -15 7 -18z m-8547 -8 c-10 -9 -11 -8 -5 6 3 10 9 15 12 12 3 -3 0
-11 -7 -18z m-57 5 c3 -5 -1 -9 -9 -9 -8 0 -12 4 -9 9 3 4 7 8 9 8 2 0 6 -4 9
-8z m-109 -21 c-3 -5 -1 -12 5 -16 6 -4 8 -11 4 -16 -4 -6 -11 -6 -20 2 -11 9
-11 15 -3 25 13 16 23 19 14 5z m71 -10 c1 -6 0 -7 -3 -1 -2 5 -9 8 -13 5 -5
-3 -11 -1 -14 4 -4 5 2 8 11 7 9 -2 18 -8 19 -15z m7839 9 c3 -5 1 -10 -4 -10
-6 0 -11 5 -11 10 0 6 2 10 4 10 3 0 8 -4 11 -10z m85 -34 c0 5 5 2 10 -6 6
-9 10 -11 10 -3 0 7 6 10 13 7 14 -5 17 -41 4 -61 -5 -8 0 -9 15 -5 13 3 19 1
15 -6 -9 -14 -36 -9 -48 9 -13 21 -11 33 4 20 10 -8 14 -7 14 2 0 7 -10 13
-23 13 -22 0 -22 -1 -7 -29 11 -22 12 -31 3 -37 -8 -5 -7 -9 4 -13 8 -3 17 -1
20 6 2 7 5 4 5 -5 1 -10 6 -18 13 -18 9 0 9 -3 1 -11 -13 -13 -96 -19 -114 -8
-11 7 -10 11 4 21 17 13 17 14 -2 14 -11 0 -18 -2 -16 -4 2 -3 0 -13 -6 -24
-7 -13 -18 -18 -30 -15 -10 3 -19 1 -19 -4 0 -5 -11 -2 -24 6 -14 10 -27 12
-30 6 -5 -8 -27 -8 -46 -1 -3 1 -9 1 -15 0 -5 -1 -30 -2 -55 -2 -25 0 -48 -5
-52 -11 -5 -8 -11 -7 -21 2 -12 10 -18 8 -29 -8 -10 -14 -18 -17 -28 -10 -11
6 -12 9 -2 9 7 0 11 4 7 10 -9 15 -34 0 -37 -23 -2 -11 -9 -22 -16 -23 -7 -1
-8 0 -2 3 8 3 7 9 -1 19 -13 16 -39 19 -39 4 0 -5 5 -10 12 -10 6 0 8 -3 5 -6
-3 -4 -1 -16 5 -28 6 -11 7 -18 3 -13 -5 4 -17 0 -27 -10 -17 -15 -18 -15 -18
1 0 9 4 15 9 11 5 -3 13 0 17 7 4 7 4 10 -1 6 -4 -4 -17 -3 -28 3 -14 8 -18 8
-12 -1 4 -6 -3 -22 -16 -36 -17 -18 -25 -21 -36 -13 -7 6 -10 16 -6 22 4 6 1
7 -6 3 -7 -5 -10 -15 -6 -23 4 -12 2 -13 -8 -5 -8 7 -18 7 -27 2 -8 -5 -19 -5
-25 -1 -10 8 -52 20 -68 20 -5 0 -20 13 -35 30 -15 17 -43 37 -62 45 -19 8
-28 15 -20 16 8 0 21 9 28 20 7 11 19 20 28 20 8 0 13 -4 9 -9 -3 -5 0 -13 6
-17 7 -4 9 -3 5 4 -3 6 -2 13 4 17 5 3 10 1 10 -6 0 -8 4 -8 15 1 8 7 15 9 15
4 0 -5 4 -3 9 5 11 17 38 21 150 21 48 -1 89 4 97 11 10 8 14 8 14 0 0 -11 20
-10 50 2 8 3 29 7 45 9 18 2 29 8 28 16 -2 6 2 12 7 12 6 0 10 -4 10 -10 0 -5
5 -10 11 -10 5 0 8 4 4 9 -3 6 4 9 15 8 15 -1 20 -7 17 -19 -3 -10 -2 -16 3
-13 4 3 10 -2 14 -10 3 -8 12 -12 21 -9 8 3 12 10 9 15 -3 5 1 9 8 9 9 0 9 3
-2 10 -13 8 -12 10 3 10 9 0 17 -6 17 -12 0 -9 4 -8 10 2 9 14 14 7 11 -15 -1
-5 5 -2 13 8 8 11 12 25 9 33 -3 8 0 14 6 14 11 0 15 -12 12 -40 -2 -12 0 -12
7 -1 11 16 21 3 16 -22 -1 -11 1 -16 4 -12 4 4 7 12 7 18 0 7 7 12 15 12 8 0
14 -5 13 -11 -1 -6 4 -11 11 -11 9 0 13 11 11 33 -1 22 2 31 10 27 7 -2 11
-17 10 -33 -1 -16 1 -27 6 -24 5 3 7 9 4 14 -3 4 3 14 12 21 14 12 16 12 11
-2 -4 -9 -1 -16 7 -16 10 0 11 5 4 19 -5 10 -7 23 -4 29 4 5 1 18 -7 27 -12
15 -11 16 5 3 9 -7 17 -10 17 -5z m-122 -37 c2 -27 0 -30 -12 -20 -8 6 -12 21
-9 31 8 30 18 24 21 -11z m33 19 c0 -7 2 -23 5 -36 3 -20 2 -21 -9 -10 -17 17
-27 44 -20 52 10 10 23 7 24 -6z m56 -4 c3 -8 0 -21 -7 -27 -10 -9 -11 -9 -6
0 3 6 2 14 -4 18 -13 8 -13 25 0 25 6 0 13 -7 17 -16z m-8487 -58 c0 -3 -4 -8
-10 -11 -5 -3 -10 -1 -10 4 0 6 5 11 10 11 6 0 10 -2 10 -4z m6975 -46 c3 -5
1 -10 -4 -10 -6 0 -11 5 -11 10 0 6 2 10 4 10 3 0 8 -4 11 -10z m-6939 -28
c-4 -13 -1 -18 14 -18 18 0 24 8 21 29 0 4 4 7 10 7 7 0 8 -7 4 -17 -11 -30
-10 -38 4 -35 11 2 12 0 3 -11 -8 -9 -8 -17 -1 -24 6 -6 5 -10 -5 -10 -7 0
-13 7 -11 16 3 18 -12 41 -27 41 -6 0 -4 -8 3 -17 12 -16 12 -17 -2 -6 -12 10
-18 10 -29 0 -12 -10 -12 -9 -4 3 6 8 9 25 8 38 0 12 3 22 8 22 5 0 7 -8 4
-18z m6294 -104 c0 -46 12 -70 32 -65 12 3 22 -2 29 -15 8 -15 8 -19 0 -14 -6
4 -11 0 -11 -8 0 -9 11 -18 25 -22 19 -5 25 -12 23 -28 -2 -13 2 -20 11 -18 9
2 11 -3 7 -14 -3 -9 -2 -22 4 -29 6 -7 10 -17 9 -21 -1 -5 0 -12 1 -16 1 -5 3
-14 4 -20 1 -7 8 -12 15 -10 8 2 11 -3 8 -13 -4 -9 -1 -15 8 -15 8 0 15 -7 15
-15 0 -14 12 -19 33 -16 4 0 7 -4 7 -10 0 -6 -6 -9 -12 -6 -12 4 -14 -11 -10
-80 1 -13 9 -23 17 -23 11 0 15 -11 15 -40 0 -44 8 -49 33 -22 14 15 15 19 2
19 -8 0 -12 -4 -9 -8 2 -4 0 -10 -6 -14 -6 -4 -10 6 -10 23 0 22 6 31 23 35
21 6 21 6 3 -8 -19 -15 -19 -15 1 -15 20 0 33 -18 33 -43 0 -7 -4 -6 -10 3 -8
12 -10 11 -10 -6 0 -14 6 -21 18 -21 9 0 22 -1 29 -2 14 -1 32 -61 28 -93 -12
-97 -13 -120 -7 -93 l8 30 7 -40 c4 -27 2 -46 -8 -62 -8 -12 -15 -26 -15 -30
0 -4 5 -1 10 7 6 10 10 11 10 3 0 -7 9 -13 19 -13 16 0 19 -5 15 -25 -2 -14 0
-25 5 -25 5 0 8 -12 6 -26 -1 -14 1 -22 6 -17 5 5 10 21 11 36 3 35 16 35 24
0 3 -16 8 -35 12 -43 12 -32 9 -50 -9 -50 -18 0 -23 10 -20 38 1 6 -3 12 -9
12 -5 0 -10 -6 -10 -12 0 -9 -3 -8 -9 2 -6 8 -7 19 -4 25 3 5 -2 3 -11 -6 -9
-9 -18 -25 -19 -37 -1 -12 -5 -22 -9 -22 -13 0 -9 24 7 46 8 12 11 24 7 28 -3
4 -16 -18 -27 -49 -20 -51 -23 -55 -36 -39 -9 11 -9 15 -1 10 6 -4 12 -2 12 4
0 19 -32 60 -46 60 -8 0 -14 5 -14 10 0 6 5 10 11 10 6 0 3 7 -5 16 -9 8 -17
22 -17 30 -2 16 -4 23 -12 44 -3 8 -8 22 -11 30 -3 8 -4 2 -3 -14 1 -16 -4
-31 -10 -33 -8 -3 -13 4 -13 19 0 31 15 52 32 45 11 -4 14 1 10 19 -3 15 -11
24 -23 24 -10 0 -25 10 -33 22 -9 12 -16 17 -16 10 0 -6 -5 -12 -10 -12 -11 0
-9 37 3 57 4 6 2 15 -4 19 -8 5 -10 2 -5 -7 4 -8 0 -5 -8 5 -18 22 -21 40 -6
31 6 -3 10 1 10 10 0 9 -4 14 -9 10 -5 -3 -11 0 -14 7 -2 7 -3 5 -2 -4 2 -10
-1 -21 -6 -24 -5 -3 -9 0 -9 6 0 7 -10 26 -22 43 -12 17 -17 27 -10 23 8 -5
10 -2 6 9 -6 14 -8 14 -21 -2 -13 -16 -14 -15 -9 15 3 17 2 32 -3 32 -5 0 -12
7 -15 16 -5 13 -4 14 7 5 12 -9 13 -7 9 14 -2 14 -7 23 -10 21 -3 -3 -11 -1
-19 5 -10 9 -13 8 -13 -2 -1 -9 -6 -8 -15 5 -8 11 -13 29 -9 40 4 17 3 18 -5
6 -8 -11 -11 -5 -11 29 0 24 -3 41 -7 37 -4 -4 -6 -23 -4 -42 1 -18 -2 -34 -8
-34 -25 0 -43 138 -21 165 6 7 8 14 5 16 -2 3 -7 31 -11 64 -11 99 -9 115 11
115 8 0 14 3 13 8 -3 17 16 42 33 42 13 0 19 -7 19 -22z m-6233 -10 c-3 -8 -6
-5 -6 6 -1 11 2 17 5 13 3 -3 4 -12 1 -19z m8807 -20 c-7 -11 29 -10 60 2 24
9 26 7 27 -18 1 -15 1 -35 0 -44 -2 -18 8 -22 43 -18 10 1 15 -3 12 -9 -4 -5
-16 -8 -27 -6 -15 3 -19 0 -15 -10 3 -10 0 -12 -11 -8 -11 4 -14 2 -9 -5 4 -7
14 -12 22 -12 8 0 14 -4 14 -9 0 -5 3 -17 7 -27 5 -12 3 -15 -6 -9 -10 6 -11
3 -1 -14 8 -15 8 -26 1 -35 -7 -8 -5 -12 9 -13 10 -1 26 9 35 23 8 13 12 24 8
24 -5 0 -1 4 6 9 20 13 50 -4 46 -26 -1 -10 -8 -17 -13 -16 -6 2 -9 -4 -6 -12
4 -8 10 -15 16 -15 5 0 7 4 3 9 -3 5 -1 12 4 15 7 5 8 41 1 41 -8 0 -6 36 2
42 7 4 8 1 3 -8 -6 -11 -5 -11 4 -3 7 6 14 20 16 30 2 11 4 21 5 24 1 3 5 -5
11 -18 5 -13 13 -21 18 -17 6 3 4 -7 -4 -21 -8 -15 -11 -32 -7 -38 23 -37 2
-86 -27 -64 -13 10 -14 10 -3 -2 6 -8 12 -23 11 -34 0 -21 0 -21 -9 -1 -7 17
-8 16 -9 -10 0 -25 -5 -69 -10 -108 -1 -4 -7 -6 -13 -5 -8 2 -12 -6 -10 -19 2
-17 -1 -20 -17 -16 -14 4 -23 -1 -27 -13 -4 -11 -14 -27 -22 -37 -19 -21 -25
-54 -13 -61 4 -3 7 6 5 19 -1 14 1 27 5 29 6 4 7 -21 2 -67 -2 -14 -22 4 -31
27 -7 17 -9 17 -9 4 -1 -10 -8 -18 -16 -18 -8 0 -15 -5 -15 -11 0 -6 -10 -10
-22 -9 -40 4 -47 0 -43 -20 2 -11 -2 -23 -10 -27 -8 -5 -16 -19 -18 -33 -3
-14 -9 -34 -13 -44 -6 -15 -4 -17 7 -11 8 5 11 5 6 -1 -5 -5 -12 -9 -15 -9 -4
0 -13 -4 -19 -8 -7 -5 -13 -4 -13 2 0 5 6 12 13 15 6 3 0 3 -15 1 -28 -4 -35
3 -20 21 4 5 5 8 3 7 -2 -2 -11 3 -20 9 -13 10 -14 10 -4 -1 12 -14 7 -44 -7
-36 -4 2 -5 -7 -2 -22 3 -18 1 -24 -6 -19 -8 5 -10 1 -5 -11 6 -16 5 -16 -11
-4 -9 8 -16 10 -15 5 1 -5 1 -16 0 -24 -1 -13 -2 -13 -11 0 -10 15 -7 -13 6
-72 5 -21 3 -26 -10 -24 -22 3 -29 13 -15 22 8 5 10 3 4 -6 -5 -9 -4 -11 3 -6
9 5 9 13 2 27 -13 23 -22 25 -13 2 5 -12 3 -14 -7 -8 -9 6 -11 4 -5 -5 6 -10
3 -12 -12 -8 -12 3 -27 1 -34 -4 -11 -8 -10 -9 4 -4 9 3 17 1 17 -3 0 -5 2
-16 5 -23 4 -10 -4 -14 -29 -14 -31 0 -35 3 -35 26 0 47 -4 56 -25 58 -15 1
-17 -1 -8 -7 11 -6 10 -10 -4 -15 -13 -5 -15 -9 -6 -18 16 -16 15 -33 -1 -19
-15 12 -14 15 -22 -66 -2 -29 0 -55 4 -57 5 -3 8 4 7 17 -1 14 4 21 13 19 8
-2 18 3 22 10 7 10 9 10 9 -2 0 -11 2 -12 8 -3 5 8 13 9 22 3 13 -8 13 -10 -1
-10 -9 0 -21 -10 -27 -22 -8 -18 -11 -19 -11 -5 -1 9 -5 17 -10 17 -10 0 -9
-26 2 -36 4 -4 7 -14 7 -22 0 -9 -3 -12 -7 -8 -5 4 -8 12 -8 18 0 6 -8 12 -17
14 -15 2 -18 -6 -18 -42 0 -82 -15 -45 -17 42 -2 58 -8 95 -18 110 -14 23 -14
24 5 24 11 0 20 -5 20 -11 0 -5 -4 -7 -10 -4 -6 4 -7 -1 -3 -12 6 -14 9 -13
19 12 7 17 13 40 14 52 0 26 -27 56 -46 49 -9 -3 -11 0 -7 11 4 11 2 14 -5 9
-11 -7 -49 28 -45 42 3 12 -29 42 -38 36 -5 -3 -7 -9 -4 -14 3 -4 -6 -7 -20
-5 -14 1 -28 -2 -31 -7 -9 -14 -24 2 -17 19 5 12 3 14 -8 8 -11 -7 -11 -5 1
10 8 10 10 16 4 12 -17 -10 -24 16 -10 34 6 8 20 18 30 22 10 4 16 10 13 13
-3 3 1 20 8 37 7 18 11 40 10 50 -3 13 2 17 18 15 16 -2 22 4 30 31 6 25 11
31 17 21 6 -10 11 -4 18 21 5 19 14 33 20 32 7 -2 14 8 17 22 3 14 7 36 10 49
5 24 53 51 87 49 10 -1 19 4 19 10 2 11 3 22 8 53 0 6 8 11 16 11 17 0 20 -13
5 -22 -16 -10 -12 -45 6 -45 12 0 15 -7 12 -25 -3 -13 -2 -22 2 -20 9 6 33
145 26 152 -3 4 -6 -1 -6 -10 0 -9 -3 -17 -7 -18 -5 0 -16 -2 -25 -4 -25 -5
-31 10 -12 29 8 9 13 20 9 25 -3 5 8 3 25 -5 16 -9 30 -22 30 -30 0 -8 9 -14
20 -14 22 0 46 36 41 63 -1 9 3 17 9 17 6 0 8 -4 5 -10 -3 -5 -1 -10 4 -10 6
0 11 11 11 24 0 13 5 26 10 28 6 2 12 17 13 33 2 25 7 30 30 30 14 -1 29 5 31
12 3 7 1 13 -5 13 -6 0 -8 4 -5 8 3 5 12 9 20 9 8 0 13 -4 10 -9z m-2841 -30
c12 3 19 1 15 -3 -4 -5 -2 -15 5 -23 10 -13 9 -14 -2 -7 -9 5 -12 4 -7 -3 3
-6 2 -13 -3 -16 -5 -4 -7 -19 -5 -35 3 -20 0 -30 -11 -34 -11 -5 -16 3 -21 34
-4 21 -10 42 -15 44 -4 3 -3 20 4 38 7 21 12 26 15 16 2 -12 10 -15 25 -11z
m2280 -56 c10 -66 -7 -121 -49 -159 -31 -27 -45 -33 -66 -29 -31 6 -33 1 -15
-37 17 -37 26 -38 83 -12 27 13 57 24 67 24 9 1 17 7 17 14 0 12 12 21 63 45
19 9 3 -20 -28 -52 -19 -20 -35 -39 -35 -42 0 -2 -5 -10 -10 -17 -6 -7 -19
-24 -31 -39 -11 -16 -27 -28 -34 -28 -8 0 -17 -9 -20 -20 -3 -11 -18 -23 -33
-27 -29 -7 -46 -24 -64 -63 -14 -32 -18 -79 -6 -86 4 -3 6 -10 2 -15 -4 -6
-11 -6 -19 1 -9 8 -15 8 -20 0 -3 -5 -15 -10 -26 -10 -11 0 -17 -5 -14 -10 3
-6 -1 -13 -9 -16 -9 -3 -13 -11 -9 -17 4 -7 0 -8 -12 -3 -15 5 -16 4 -6 -8 10
-12 6 -14 -30 -12 -24 2 -60 -1 -82 -6 -25 -5 -44 -5 -52 2 -6 5 -15 7 -19 3
-4 -4 -18 -9 -32 -11 -19 -2 -24 1 -18 10 6 10 4 10 -9 0 -9 -8 -21 -11 -27
-7 -6 4 -46 8 -88 10 -42 2 -81 4 -85 4 -5 1 -5 7 -1 14 5 7 0 6 -11 -3 -10
-8 -16 -10 -12 -4 8 14 -15 24 -42 19 -12 -2 -20 1 -18 8 3 18 -55 17 -76 -1
-15 -13 -18 -14 -15 -2 2 10 -8 14 -42 15 -39 0 -46 4 -58 28 -11 23 -16 26
-28 16 -8 -6 -15 -9 -15 -5 -1 3 -2 9 -3 14 -4 18 -23 40 -46 52 -14 7 -31 21
-38 32 -7 10 -20 18 -29 18 -9 0 -13 3 -10 7 9 9 -33 53 -50 53 -8 0 -12 4 -8
9 3 5 1 12 -5 16 -6 4 -7 12 -3 18 4 8 1 7 -9 -1 -13 -10 -22 -11 -38 -2 -11
6 -18 15 -15 20 3 5 1 11 -4 15 -6 3 -8 13 -5 23 5 13 4 14 -4 4 -14 -20 -47
-10 -50 16 -2 12 -10 22 -18 22 -10 0 -12 -5 -8 -12 5 -9 2 -9 -9 1 -9 7 -17
10 -17 5 0 -4 -6 -2 -12 4 -7 7 -13 18 -13 25 0 6 -11 12 -25 12 -14 0 -28 5
-32 10 -4 6 -13 10 -20 10 -7 0 -13 10 -12 23 0 12 -5 22 -12 22 -7 0 -16 5
-20 11 -10 16 38 0 52 -17 7 -8 25 -16 42 -17 16 -1 29 -4 27 -7 -2 -3 16 -16
41 -29 24 -13 44 -28 44 -32 0 -5 3 -8 8 -8 24 4 52 -2 47 -11 -6 -10 -5 -11
30 -15 42 -4 66 -17 61 -31 -6 -16 9 -27 43 -32 21 -3 23 -1 11 12 -11 14 -9
16 10 16 18 0 20 3 11 14 -12 14 -5 46 10 46 13 0 11 34 -2 47 -9 9 -22 7 -51
-8 -53 -27 -107 -19 -136 20 -19 26 -25 28 -65 24 -41 -5 -47 -3 -63 23 -22
33 -25 104 -5 127 18 23 53 21 79 -3 27 -25 37 -25 56 1 13 19 22 21 61 16 26
-2 60 -14 76 -26 16 -12 30 -17 34 -11 3 6 21 10 39 10 43 0 149 -21 161 -31
5 -5 25 -9 45 -9 20 0 61 -7 91 -14 31 -8 77 -16 103 -17 26 -2 49 -6 52 -10
2 -4 27 -1 55 6 28 8 56 12 63 9 13 -5 138 22 236 51 30 9 71 18 89 21 19 2
51 9 70 14 42 11 91 17 107 12 7 -2 14 -20 17 -40z m935 16 c-3 -25 29 -71 44
-62 4 3 8 0 8 -6 0 -7 -7 -9 -16 -6 -12 4 -15 2 -10 -9 3 -8 2 -15 -3 -15 -5
0 -11 14 -15 32 -3 17 -8 29 -10 27 -12 -12 9 -61 30 -69 13 -5 24 -12 24 -15
0 -4 -4 -3 -10 0 -10 6 -11 3 -14 -34 0 -11 -5 -23 -10 -28 -5 -5 -7 1 -3 14
3 13 2 25 -2 28 -4 2 -8 -1 -9 -8 -1 -7 -3 -28 -6 -47 -3 -19 -5 -38 -5 -42
-1 -5 -12 -8 -26 -8 -14 0 -25 -4 -25 -10 0 -5 8 -10 17 -10 23 0 12 -9 -18
-13 -18 -3 -24 -10 -23 -28 1 -20 -4 -25 -26 -25 -24 -1 -27 2 -25 28 2 16 8
35 14 41 14 14 14 6 1 -28 -5 -14 -6 -24 -1 -21 5 4 11 1 13 -6 3 -7 7 -5 11
6 4 10 3 15 -3 11 -6 -3 -10 1 -10 10 0 9 4 13 10 10 6 -4 7 2 1 18 -6 14 -6
29 0 38 9 15 12 8 12 -34 0 -10 2 -16 4 -13 3 2 3 6 1 9 -1 3 4 13 13 23 12
14 14 25 8 39 -9 18 -9 18 -5 -2 2 -13 0 -26 -5 -29 -10 -6 -12 3 -9 62 1 23
-3 45 -8 48 -6 3 -8 15 -5 26 6 24 23 17 18 -9 -2 -10 1 -24 6 -32 7 -12 9
-12 10 1 1 8 0 26 -1 39 -1 15 2 21 9 16 6 -3 9 -10 6 -15 -3 -5 -1 -11 5 -15
6 -4 7 -11 4 -17 -5 -7 -2 -8 5 -3 9 5 10 10 2 18 -6 6 -7 17 -2 26 5 9 7 31
6 49 -1 18 2 35 7 38 5 3 6 10 3 15 -4 5 -1 9 5 9 6 0 10 -10 8 -22z m-3041
-20 c-3 -7 -5 -2 -5 12 0 14 2 19 5 13 2 -7 2 -19 0 -25z m-144 -8 c-3 -12 1
-22 10 -25 15 -6 16 -52 2 -76 -7 -10 -10 -8 -16 7 -7 17 -8 17 -8 2 -1 -10
-5 -18 -10 -18 -5 0 -5 17 0 41 6 23 9 49 8 58 -2 24 0 31 10 31 5 0 7 -9 4
-20z m3104 -2 c-3 -8 -6 -5 -6 6 -1 11 2 17 5 13 3 -3 4 -12 1 -19z m-2959
-63 c-3 -3 -9 2 -12 12 -6 14 -5 15 5 6 7 -7 10 -15 7 -18z m2382 -103 c0 -5
-7 -9 -15 -9 -8 0 -15 4 -15 9 0 4 7 8 15 8 8 0 15 -4 15 -8z m570 -2 c0 -5
-5 -10 -11 -10 -5 0 -7 5 -4 10 3 6 8 10 11 10 2 0 4 -4 4 -10z m-2625 -80 c3
-5 -1 -10 -10 -10 -9 0 -13 5 -10 10 3 6 8 10 10 10 2 0 7 -4 10 -10z m610 -9
c3 -5 2 -12 -3 -15 -5 -3 -9 1 -9 9 0 17 3 19 12 6z m1968 -68 c-9 -3 -10 -10
-3 -24 9 -15 8 -17 -5 -13 -9 4 -13 9 -11 12 3 3 2 10 -4 16 -6 8 -2 12 13 13
12 0 16 -1 10 -4z m-124 -171 c0 -11 -2 -12 -6 -4 -2 6 -9 10 -14 7 -5 -4 -6
1 -3 9 8 20 24 11 23 -12z m-812 3 c0 -6 -6 -12 -12 -12 -6 0 -12 6 -12 12 0
6 6 12 12 12 6 0 12 -6 12 -12z m732 -9 c9 -10 8 -16 -4 -26 -13 -11 -15 -8
-15 14 0 30 3 32 19 12z m-28 -60 c-6 -7 -8 -16 -4 -19 3 -4 2 -7 -4 -7 -18 0
-22 12 -10 30 6 10 15 16 19 13 5 -2 4 -10 -1 -17z m-609 -51 c2 3 4 -5 2 -18
-1 -12 -3 -26 -3 -31 -2 -19 -20 9 -25 37 -4 23 -2 26 8 18 7 -6 15 -9 18 -6z
m-1558 -29 c-4 -11 -11 -23 -15 -24 -5 -2 -7 -8 -3 -13 3 -5 -1 -9 -9 -9 -10
0 -13 11 -11 38 2 45 0 41 24 35 16 -4 19 -11 14 -27z m1502 12 c0 -10 -1 -18
-3 -18 -1 0 -7 8 -12 18 -7 13 -6 19 2 19 7 0 13 -9 13 -19z m581 -19 c6 -8
10 -24 8 -35 -2 -10 -4 -24 -4 -31 -1 -7 -7 -10 -15 -7 -18 7 -15 36 4 51 13
10 12 11 -4 10 -11 -1 -20 5 -21 15 -4 21 15 19 32 -3z m-654 -15 c32 -2 37
-4 37 -12 0 -4 -9 -8 -20 -9 -11 -1 -20 3 -20 8 0 5 -6 4 -13 -3 -8 -7 -12
-20 -10 -29 3 -9 -3 -19 -13 -23 -25 -10 -32 4 -10 20 15 10 16 14 5 15 -10 0
-10 2 -1 6 6 2 9 10 6 15 -5 7 -2 8 6 3 9 -5 11 -4 6 4 -6 8 -12 9 -20 2 -13
-11 -26 -5 -26 10 0 12 44 15 50 4 3 -6 13 -11 23 -11z m74 -9 c0 -6 -6 -12
-14 -12 -7 0 -13 6 -13 12 0 6 6 12 13 12 8 0 14 -6 14 -12z m548 -17 c-1 -13
-3 -29 -4 -36 0 -7 -5 -11 -11 -7 -5 3 -8 11 -6 18 1 7 1 9 -1 4 -3 -4 -10 -4
-16 0 -9 5 -9 3 -1 -8 13 -17 12 -39 -1 -39 -11 0 -16 37 -8 57 3 7 9 10 14 7
5 -3 12 2 15 10 9 24 22 19 19 -6z m-849 -85 c-2 -11 -13 -19 -27 -20 l-24 -2
25 8 c14 5 21 9 17 10 -5 1 -5 6 -2 11 9 15 14 12 11 -7z m659 -26 c0 -27 4
-32 23 -31 23 1 27 -4 14 -22 -11 -18 -44 -13 -37 5 3 9 -4 5 -16 -9 -17 -20
-20 -21 -14 -5 13 36 15 74 4 81 -8 4 -7 9 2 15 18 11 23 4 24 -34z m-363 5
c-7 -2 -12 -8 -12 -13 0 -6 4 -8 9 -5 5 4 7 -3 4 -14 -6 -24 9 -26 31 -5 8 8
20 15 26 15 7 0 2 -8 -10 -18 -18 -14 -19 -19 -7 -19 9 0 14 4 11 8 -2 4 8 6
23 4 16 -1 27 -8 26 -14 -2 -6 0 -10 5 -10 20 3 32 -2 26 -12 -4 -8 0 -8 15 0
25 14 27 29 4 38 -15 6 -14 7 3 14 25 9 44 -7 44 -38 0 -17 -4 -22 -12 -17
-10 6 -10 5 -1 -8 7 -8 10 -18 6 -21 -3 -4 -2 -7 4 -7 6 0 13 -6 16 -13 7 -19
-25 -17 -42 2 -7 9 -7 5 2 -10 9 -15 13 -30 9 -34 -4 -4 -8 -11 -8 -16 -1 -5
-2 -13 -3 -19 0 -5 -8 -10 -15 -10 -11 0 -14 -11 -12 -45 1 -24 -1 -42 -6 -39
-5 3 -5 10 -2 16 4 6 2 8 -4 5 -13 -9 -4 -47 11 -47 6 0 2 -6 -8 -14 -11 -8
-24 -12 -29 -9 -5 4 -6 1 -2 -6 6 -9 11 -9 22 0 8 7 14 7 14 1 0 -15 -25 -22
-41 -11 -12 8 -11 12 6 26 16 12 16 14 3 10 -11 -4 -23 1 -31 13 -17 24 -30
15 -16 -11 8 -15 6 -19 -6 -19 -9 0 -13 5 -10 10 3 6 2 10 -4 10 -6 0 -13 -11
-17 -25 -3 -14 -10 -25 -15 -25 -5 0 -8 -3 -8 -7 5 -28 -2 -36 -14 -18 -16 21
-39 12 -30 -11 5 -13 1 -15 -17 -9 -16 5 -20 4 -15 -4 4 -7 -7 -26 -24 -43
-17 -18 -31 -40 -31 -50 0 -10 -8 -19 -17 -20 -10 0 -24 -2 -31 -2 -7 -1 -17
-8 -22 -16 -5 -8 -10 -11 -10 -7 0 5 -6 5 -12 0 -7 -4 -37 -6 -66 -4 -30 1
-59 -2 -67 -9 -8 -7 -37 -10 -72 -7 -34 2 -68 -2 -82 -9 -29 -15 -50 -8 -60
19 -8 20 -8 20 -13 -1 -4 -12 -2 -20 3 -16 5 3 9 0 9 -5 0 -14 -13 -14 -28 1
-9 9 -12 9 -12 0 0 -9 -5 -10 -19 -3 -10 6 -21 8 -24 4 -3 -3 -19 -7 -36 -8
-22 -2 -37 5 -57 26 -15 16 -38 29 -52 29 -27 0 -52 21 -52 44 0 9 -8 15 -17
14 -44 -3 -74 2 -67 13 5 9 -1 10 -20 5 -16 -4 -26 -2 -26 4 0 6 6 8 13 4 8
-5 8 -3 -2 9 -7 9 -17 15 -21 12 -11 -7 -31 20 -22 31 4 4 0 4 -8 -2 -8 -6
-27 -10 -41 -9 -18 1 -26 -3 -25 -14 1 -10 -8 -17 -22 -19 -19 -3 -23 0 -20
15 2 10 9 17 16 16 7 -2 9 4 5 14 -4 10 -2 14 5 9 6 -3 14 -1 18 6 4 7 4 10
-1 6 -4 -4 -14 -3 -22 4 -8 6 -13 7 -12 2 3 -19 -1 -34 -10 -34 -6 0 -6 12 -1
30 5 18 5 30 -1 30 -5 0 -9 -9 -9 -20 0 -11 -4 -20 -9 -20 -5 0 -7 10 -5 23 2
12 2 16 -2 10 -3 -7 -12 -13 -20 -13 -9 0 -12 -5 -8 -12 4 -7 3 -8 -4 -4 -8 4
-8 15 -2 31 9 24 6 29 -14 26 -5 -1 -6 5 -3 13 4 9 2 18 -4 21 -5 4 -8 1 -7
-6 4 -17 -52 -19 -59 -2 -3 8 -12 12 -19 9 -17 -7 -23 3 -25 46 -2 28 -7 34
-23 32 -12 -1 -20 -7 -18 -13 1 -7 -2 -9 -8 -6 -8 5 -7 12 3 23 16 19 14 79
-2 95 -14 14 -14 40 -1 32 9 -6 14 8 11 29 -1 4 4 15 11 23 14 18 -4 33 -34
28 -10 -2 -18 0 -18 6 0 5 8 10 18 11 73 6 72 6 72 -23 0 -16 -4 -29 -8 -29
-4 0 -8 -12 -9 -27 l-2 -28 11 28 c5 15 14 25 19 21 5 -3 7 -9 4 -14 -3 -4 2
-7 11 -6 18 3 39 34 30 43 -3 4 -6 1 -6 -6 0 -7 -4 -9 -10 -6 -6 4 -7 -1 -3
-12 4 -13 3 -15 -6 -7 -6 6 -9 17 -6 26 8 19 58 17 79 -4 19 -20 22 -35 3 -19
-8 6 -18 7 -22 3 -5 -4 -5 1 -2 11 8 23 0 22 -13 -2 -8 -16 -7 -19 8 -16 9 1
23 -2 30 -8 6 -5 12 -6 12 -2 0 5 9 0 19 -9 14 -13 21 -14 27 -5 5 8 3 10 -6
4 -9 -5 -11 -4 -6 3 4 7 13 12 21 12 9 0 12 8 9 25 -3 18 0 25 11 25 8 0 15
-7 15 -15 0 -14 24 -20 58 -16 10 2 17 -17 13 -41 0 -4 12 -6 28 -6 22 1 28 5
24 17 -3 12 -2 12 7 -2 6 -9 8 -23 4 -30 -6 -9 -4 -9 7 -1 8 6 24 10 36 9 12
-1 20 2 17 7 -3 4 -1 8 5 8 6 0 7 8 4 18 -6 15 -5 15 11 3 10 -8 41 -15 72
-15 48 -1 54 1 54 19 0 15 2 17 9 6 5 -8 14 -10 21 -6 8 5 11 4 7 -2 -4 -6 2
-13 14 -16 11 -3 22 0 25 7 3 7 22 13 42 13 41 1 95 8 159 21 28 6 40 6 36 -1
-3 -5 0 -7 8 -5 8 3 13 10 12 17 -2 7 17 9 57 7 33 -2 57 0 55 4 -7 11 25 21
38 13 20 -13 46 -13 53 -2 4 8 12 3 20 -12 7 -13 13 -18 14 -11 0 6 5 12 11
12 5 0 7 -6 3 -12 -4 -8 -3 -10 2 -5 5 5 10 13 10 18 1 5 2 13 3 18 0 4 11 8
24 7 12 -1 21 -7 20 -14 -2 -7 8 -12 25 -12 15 0 34 -6 41 -12 8 -9 11 -9 9
-1 -4 15 34 52 47 45 5 -3 4 -7 -3 -10z m-1416 -19 c-4 -4 -12 -1 -19 7 -9 10
-9 11 1 6 7 -4 12 -2 13 6 0 11 2 11 6 0 3 -7 2 -16 -1 -19z m1872 -31 c-1
-18 -4 -28 -8 -22 -4 6 -15 8 -25 4 -15 -6 -17 -4 -12 10 4 10 7 20 7 23 0 3
6 0 14 -6 12 -11 14 -7 11 21 -3 23 -2 29 5 18 5 -8 9 -30 8 -48z m-308 38 c0
-5 -4 -10 -10 -10 -5 0 -10 5 -10 10 0 6 5 10 10 10 6 0 10 -4 10 -10z m177
-46 l-16 -29 3 30 c2 17 4 34 5 40 0 5 6 4 12 -2 8 -8 7 -19 -4 -39z m-1722
16 c-3 -5 -12 -10 -18 -10 -7 0 -6 4 3 10 19 12 23 12 15 0z m26 -27 c13 -16
12 -17 -3 -4 -10 7 -18 15 -18 17 0 8 8 3 21 -13z m209 13 c0 -3 -4 -8 -10
-11 -5 -3 -10 -1 -10 4 0 6 5 11 10 11 6 0 10 -2 10 -4z m1403 -33 c-3 -7 -6
-13 -8 -13 -2 0 -5 6 -8 13 -3 8 1 14 8 14 7 0 11 -6 8 -14z m-1682 -20 c-12
-20 -14 -14 -5 12 4 9 9 14 11 11 3 -2 0 -13 -6 -23z m-1536 -120 c38 -76 102
-160 184 -239 169 -166 297 -230 554 -279 110 -21 120 -27 298 -151 85 -59
213 -148 284 -198 72 -49 231 -165 355 -256 124 -91 254 -187 290 -212 36 -25
84 -65 106 -87 37 -37 44 -40 68 -31 14 5 66 47 114 93 48 46 101 94 118 108
49 38 205 169 254 213 53 47 139 121 190 162 78 63 201 174 300 271 134 130
199 183 226 183 33 0 100 55 140 115 20 30 40 55 45 55 9 0 11 -463 3 -586
l-6 -82 -60 -33 c-32 -19 -85 -49 -116 -67 -31 -19 -154 -86 -272 -149 -237
-127 -306 -170 -455 -283 -84 -64 -110 -78 -162 -89 -34 -8 -72 -11 -85 -7
-13 4 -102 13 -200 21 -181 14 -198 18 -258 66 -19 16 -69 44 -110 63 -82 37
-415 146 -522 170 -127 29 -373 67 -508 78 l-135 12 -65 45 c-120 84 -376 348
-475 491 -65 93 -195 381 -195 434 0 28 53 236 59 232 4 -3 20 -31 36 -63z
m1592 42 c0 -8 -4 -12 -9 -9 -5 3 -6 10 -3 15 9 13 12 11 12 -6z m1623 -55 c0
-5 -2 -10 -4 -10 -3 0 -8 5 -11 10 -3 6 -1 10 4 10 6 0 11 -4 11 -10z m-1533
-112 c-3 -7 -5 -2 -5 12 0 14 2 19 5 13 2 -7 2 -19 0 -25z m283 -109 c0 -28
-15 -23 -18 7 -1 14 2 23 8 19 6 -3 10 -15 10 -26z m690 -123 c0 -11 -19 -15
-25 -6 -3 5 1 10 9 10 9 0 16 -2 16 -4z"/>
<path d="M6448 10382 c-4 -14 -2 -20 5 -15 7 4 8 0 4 -11 -4 -10 -3 -15 3 -11
6 3 10 1 10 -5 0 -6 5 -8 10 -5 8 5 8 11 1 19 -6 7 -7 17 -3 21 4 5 2 5 -5 1
-7 -3 -13 1 -15 11 -3 15 -5 14 -10 -5z"/>
<path d="M6644 9854 c-4 -14 -3 -29 2 -34 5 -5 9 6 10 26 1 41 -3 43 -12 8z"/>
<path d="M6611 9823 c-8 -14 -12 -15 -25 -4 -14 12 -16 12 -10 -2 3 -10 -1
-17 -13 -20 -10 -3 -5 -5 11 -4 17 1 35 11 44 25 8 12 12 22 9 22 -3 0 -10 -8
-16 -17z"/>
<path d="M6537 9761 c-4 -17 -3 -21 5 -13 5 5 8 16 6 23 -3 8 -7 3 -11 -10z"/>
<path d="M6442 9724 c-1 -12 3 -26 8 -29 6 -4 7 1 3 10 -3 10 0 20 6 25 10 5
10 8 -1 12 -9 4 -14 -2 -16 -18z"/>
<path d="M6613 9725 c0 -6 6 -12 12 -12 6 0 12 6 12 12 0 6 -6 12 -12 12 -6 0
-12 -6 -12 -12z"/>
<path d="M6515 9720 c-4 -6 -10 -8 -15 -5 -5 3 -11 1 -14 -4 -8 -13 22 -7 36
7 7 7 9 12 6 12 -4 0 -10 -5 -13 -10z"/>
<path d="M6485 9660 c-3 -5 -4 -10 0 -10 3 0 1 -9 -5 -20 -6 -11 -15 -18 -20
-15 -6 3 -7 -1 -4 -10 6 -14 8 -13 21 5 14 19 26 60 18 60 -2 0 -7 -4 -10 -10z"/>
<path d="M6396 9562 c-3 -5 1 -9 9 -9 8 0 12 4 9 9 -3 4 -7 8 -9 8 -2 0 -6 -4
-9 -8z"/>
<path d="M6391 9864 c0 -11 3 -14 6 -6 3 7 2 16 -1 19 -3 4 -6 -2 -5 -13z"/>
<path d="M4546 8901 c-3 -5 1 -14 8 -20 12 -10 13 -8 9 8 -6 23 -9 25 -17 12z"/>
<path d="M8289 7988 c-3 -15 -5 -78 -2 -65 2 9 9 17 14 17 5 0 9 11 9 25 0 14
-4 25 -10 25 -5 0 -10 -1 -11 -2z"/>
<path d="M7704 7874 c-4 -14 -2 -30 5 -37 8 -8 11 -1 11 26 0 43 -7 48 -16 11z"/>
<path d="M7461 7724 c0 -11 3 -14 6 -6 3 7 2 16 -1 19 -3 4 -6 -2 -5 -13z"/>
<path d="M8545 8140 c3 -5 16 -10 28 -9 21 0 21 1 2 9 -28 12 -37 12 -30 0z"/>
<path d="M8678 8123 c7 -3 16 -2 19 1 4 3 -2 6 -13 5 -11 0 -14 -3 -6 -6z"/>
<path d="M6436 8198 c3 -5 10 -6 15 -3 13 9 11 12 -6 12 -8 0 -12 -4 -9 -9z"/>
<path d="M5842 8168 c-14 -14 -16 -28 -3 -28 5 0 11 9 14 20 6 23 5 24 -11 8z"/>
<path d="M5863 7985 c-3 -9 -3 -18 -1 -21 3 -3 8 4 11 16 6 23 -1 27 -10 5z"/>
<path d="M5876 7942 c-3 -5 1 -9 9 -9 8 0 12 4 9 9 -3 4 -7 8 -9 8 -2 0 -6 -4
-9 -8z"/>
<path d="M5866 7911 c-3 -5 2 -15 12 -22 15 -12 16 -12 5 2 -7 9 -10 19 -6 22
3 4 4 7 0 7 -3 0 -8 -4 -11 -9z"/>
<path d="M5921 7744 c0 -11 3 -14 6 -6 3 7 2 16 -1 19 -3 4 -6 -2 -5 -13z"/>
<path d="M5991 7564 c0 -11 3 -14 6 -6 3 7 2 16 -1 19 -3 4 -6 -2 -5 -13z"/>
<path d="M6251 7294 c0 -11 3 -14 6 -6 3 7 2 16 -1 19 -3 4 -6 -2 -5 -13z"/>
<path d="M8527 7076 c-3 -8 2 -20 11 -27 14 -11 15 -11 5 0 -6 7 -9 20 -6 27
3 8 3 14 0 14 -3 0 -7 -6 -10 -14z"/>
<path d="M6325 6921 c-3 -5 -2 -12 3 -15 5 -3 9 1 9 9 0 17 -3 19 -12 6z"/>
<path d="M6290 6677 c0 -9 4 -18 9 -21 5 -3 7 -16 5 -29 -4 -20 -4 -20 5 -2 5
13 5 25 -3 34 -6 8 -9 16 -8 18 2 3 1 7 -2 11 -3 3 -6 -2 -6 -11z"/>
<path d="M6526 6492 c-3 -5 1 -9 9 -9 8 0 12 4 9 9 -3 4 -7 8 -9 8 -2 0 -6 -4
-9 -8z"/>
<path d="M6456 6372 c-2 -4 -1 -14 5 -22 7 -12 9 -10 9 8 0 23 -5 28 -14 14z"/>
<path d="M6553 6215 c0 -6 8 -12 17 -12 9 -1 17 5 17 12 0 7 -8 13 -17 12 -9
0 -17 -6 -17 -12z"/>
<path d="M6625 6070 c-4 -12 -5 -24 -2 -27 3 -2 8 5 12 17 4 12 5 24 2 27 -3
2 -8 -5 -12 -17z"/>
<path d="M6703 6048 c-10 -17 -13 -79 -3 -73 5 3 7 13 5 23 -1 9 2 27 6 40 9
24 5 29 -8 10z"/>
<path d="M6723 6025 c0 -8 4 -12 9 -9 5 3 6 10 3 15 -9 13 -12 11 -12 -6z"/>
<path d="M6791 5998 c0 -15 4 -30 9 -33 6 -3 10 -11 10 -16 0 -6 -5 -7 -12 -3
-7 5 -8 3 -3 -5 5 -9 10 -10 18 -2 7 7 7 14 0 23 -6 7 -13 24 -16 38 l-4 25
-2 -27z"/>
<path d="M9001 6864 c0 -11 3 -14 6 -6 3 7 2 16 -1 19 -3 4 -6 -2 -5 -13z"/>
<path d="M9006 6611 c-3 -5 0 -14 8 -20 10 -8 16 -8 25 3 8 10 9 16 1 21 -6 4
-9 3 -8 -2 2 -4 -1 -9 -7 -10 -5 -2 -9 2 -7 7 3 12 -5 13 -12 1z"/>
<path d="M8657 6587 c-3 -8 -1 -20 4 -28 6 -10 9 -7 9 14 0 29 -5 35 -13 14z"/>
<path d="M8589 6575 c-4 -14 -6 -21 -13 -38 -5 -9 -5 -34 -1 -53 5 -32 8 -35
20 -23 21 21 32 81 14 77 -9 -2 -14 5 -13 20 1 19 -4 31 -7 17z"/>
<path d="M9108 6483 c7 -3 16 -2 19 1 4 3 -2 6 -13 5 -11 0 -14 -3 -6 -6z"/>
<path d="M8440 6251 c0 -4 5 -12 10 -17 7 -7 1 -9 -20 -6 -17 2 -27 9 -23 15
3 5 1 7 -5 3 -7 -4 -8 -17 -2 -36 9 -32 10 -36 10 -46 0 -4 7 -1 15 6 9 7 14
19 11 26 -3 7 -1 16 4 19 6 4 11 1 11 -4 3 -21 4 -26 12 -39 5 -7 13 -10 18
-7 9 6 13 -7 10 -31 -1 -6 5 -17 13 -23 12 -10 17 -8 26 8 11 21 10 22 -12 25
-6 0 -13 7 -16 15 -3 8 0 11 5 8 5 -3 9 6 8 21 0 28 -19 36 -42 19 -15 -11
-16 -6 -4 25 7 20 6 24 -10 25 -10 1 -19 -2 -19 -6z m-13 -51 c1 -11 -2 -22
-6 -24 -3 -3 -8 6 -9 20 -1 13 2 24 6 24 4 0 8 -9 9 -20z m83 1 c0 -13 -16
-27 -27 -25 -24 3 -25 4 -14 17 11 14 41 19 41 8z m13 -78 c-3 -7 -9 -10 -14
-7 -14 8 -11 21 5 21 8 0 12 -6 9 -14z"/>
<path d="M8374 6197 c0 -25 4 -43 9 -40 10 6 9 55 -2 72 -5 8 -8 -3 -7 -32z"/>
<path d="M8556 6178 c-3 -7 -5 -20 -5 -28 0 -8 -2 -24 -3 -35 -2 -11 2 -21 7
-23 6 -2 15 -12 21 -24 9 -17 11 -15 9 18 -1 22 -6 50 -12 64 -6 14 -9 28 -6
33 2 4 2 7 -2 7 -3 0 -7 -6 -9 -12z m21 -67 c0 -10 -7 -18 -14 -18 -14 0 -16
8 -7 31 8 20 23 11 21 -13z"/>
<path d="M6057 6837 c-3 -7 1 -21 9 -31 12 -17 13 -17 20 8 3 15 4 30 0 33 -3
4 -6 -4 -6 -16 0 -12 -4 -20 -10 -16 -5 3 -7 12 -3 20 3 8 3 15 0 15 -3 0 -7
-6 -10 -13z"/>
<path d="M7445 6628 c-6 -14 -26 -28 -53 -36 -23 -8 -39 -18 -36 -24 3 -5 11
-7 18 -5 6 2 35 1 64 -3 46 -6 52 -4 47 9 -4 9 -9 31 -12 49 -7 38 -15 41 -28
10z"/>
<path d="M8011 6584 c-16 -43 -11 -50 17 -25 25 21 27 34 9 49 -10 9 -16 3
-26 -24z"/>
<path d="M7740 6556 c0 -8 5 -18 10 -21 6 -3 10 1 10 9 0 8 -4 18 -10 21 -5 3
-10 -1 -10 -9z"/>
<path d="M7390 6261 c0 -6 4 -13 10 -16 6 -3 7 1 4 9 -7 18 -14 21 -14 7z"/>
<path d="M7420 6257 c0 -8 7 -14 15 -14 11 0 12 4 4 14 -6 7 -13 13 -15 13 -2
0 -4 -6 -4 -13z"/>
<path d="M7886 6192 c-3 -5 1 -9 9 -9 8 0 12 4 9 9 -3 4 -7 8 -9 8 -2 0 -6 -4
-9 -8z"/>
<path d="M9291 6644 c0 -11 3 -14 6 -6 3 7 2 16 -1 19 -3 4 -6 -2 -5 -13z"/>
<path d="M6741 6165 c0 -5 3 -16 8 -23 7 -11 9 -10 14 3 4 9 3 14 -2 10 -5 -3
-12 1 -14 7 -3 7 -6 9 -6 3z"/>
<path d="M6920 5986 c0 -2 7 -7 16 -10 8 -3 12 -2 9 4 -6 10 -25 14 -25 6z"/>
<path d="M7870 5950 c-9 -6 -10 -10 -3 -10 6 0 15 5 18 10 8 12 4 12 -15 0z"/>
<path d="M8184 5949 c-4 -7 -3 -9 4 -5 6 3 15 -2 21 -11 6 -10 11 -13 11 -7 0
20 -27 37 -36 23z"/>
<path d="M8440 5955 c0 -5 5 -17 10 -25 5 -8 10 -10 10 -5 0 6 -5 17 -10 25
-5 8 -10 11 -10 5z"/>
<path d="M8258 5928 c8 -9 11 -22 7 -28 -3 -5 -4 -10 -1 -10 3 0 11 10 17 23
6 12 8 19 4 15 -5 -4 -15 -2 -24 5 -14 10 -14 10 -3 -5z"/>
<path d="M7197 5923 c-4 -3 -7 -11 -7 -17 0 -6 5 -5 12 2 6 6 9 14 7 17 -3 3
-9 2 -12 -2z"/>
<path d="M8335 5919 c-4 -5 -3 -22 1 -37 4 -15 7 -30 6 -34 -1 -5 4 -7 11 -5
6 1 11 -4 9 -11 -1 -8 2 -11 7 -8 13 9 6 42 -9 38 -8 -2 -10 3 -6 13 3 9 2 13
-4 10 -6 -3 -10 3 -10 14 0 10 6 22 13 24 9 4 9 6 0 6 -6 1 -15 -4 -18 -10z"/>
<path d="M8295 5909 c-11 -16 -1 -19 13 -3 7 8 8 14 3 14 -5 0 -13 -5 -16 -11z"/>
<path d="M8310 5886 c0 -8 4 -17 9 -20 5 -4 7 3 4 14 -6 23 -13 26 -13 6z"/>
<path d="M8376 5878 c3 -5 10 -6 15 -3 13 9 11 12 -6 12 -8 0 -12 -4 -9 -9z"/>
<path d="M6920 5865 c5 -7 6 -16 2 -21 -4 -5 -3 -5 2 -1 15 12 15 34 0 34 -9
0 -11 -4 -4 -12z"/>
<path d="M6953 5865 c0 -8 4 -12 9 -9 5 3 6 10 3 15 -9 13 -12 11 -12 -6z"/>
<path d="M8278 5873 c7 -3 16 -2 19 1 4 3 -2 6 -13 5 -11 0 -14 -3 -6 -6z"/>
<path d="M8402 5861 c-11 -6 -9 -9 6 -13 15 -4 19 -2 15 8 -6 16 -4 16 -21 5z"/>
<path d="M6971 5846 c-9 -11 -9 -16 1 -22 7 -4 10 -4 6 1 -4 4 -3 14 3 22 6 7
9 13 6 13 -2 0 -10 -6 -16 -14z"/>
<path d="M8425 5808 c4 -20 -11 -25 -18 -5 -2 6 -6 0 -9 -15 -5 -26 -4 -26 19
-11 13 9 21 18 18 21 -2 3 0 10 5 17 7 8 5 12 -4 12 -8 0 -13 -8 -11 -19z"/>
<path d="M8368 5725 c-10 -13 -18 -27 -18 -32 0 -4 5 0 11 10 6 9 14 15 20 12
5 -4 9 3 9 14 0 26 -1 26 -22 -4z"/>
<path d="M6961 5704 c0 -11 3 -14 6 -6 3 7 2 16 -1 19 -3 4 -6 -2 -5 -13z"/>
<path d="M7020 5700 c0 -5 0 -12 0 -15 0 -12 14 -4 16 10 1 8 -2 15 -7 15 -5
0 -9 -4 -9 -10z"/>
<path d="M7710 5415 c0 -2 6 -8 13 -14 10 -8 14 -7 14 2 0 8 -6 14 -14 14 -7
0 -13 -1 -13 -2z"/>
<path d="M12295 9071 c-3 -6 3 -8 13 -6 11 2 19 -2 19 -8 -1 -31 4 -47 14 -47
7 0 8 7 4 18 -4 9 -7 25 -7 35 1 18 -32 24 -43 8z"/>
<path d="M12220 9020 c0 -5 5 -10 10 -10 6 0 10 5 10 10 0 6 -4 10 -10 10 -5
0 -10 -4 -10 -10z"/>
<path d="M12452 9008 c4 -30 43 -33 43 -3 0 13 -8 21 -23 23 -20 3 -23 0 -20
-20z m15 -10 c-3 -8 -6 -5 -6 6 -1 11 2 17 5 13 3 -3 4 -12 1 -19z"/>
<path d="M12453 8907 c0 -18 5 -24 21 -23 14 1 21 8 21 21 0 13 -8 21 -21 23
-17 2 -21 -2 -21 -21z m30 -4 c-3 -7 -6 -13 -8 -13 -2 0 -5 6 -8 13 -3 8 1 14
8 14 7 0 11 -6 8 -14z"/>
<path d="M10341 8823 c-10 -11 -15 -12 -21 -3 -5 9 -9 8 -13 -3 -8 -21 8 -41
28 -34 9 4 14 11 10 16 -3 5 -1 12 4 16 6 3 8 -3 6 -15 -2 -11 0 -20 5 -20 14
0 18 25 6 42 -10 13 -13 14 -25 1z"/>
<path d="M12658 8824 c-3 -5 -2 -18 2 -28 3 -11 9 -15 12 -10 3 5 2 18 -2 28
-3 11 -9 15 -12 10z"/>
<path d="M12030 8761 c0 -10 26 -9 36 2 4 4 -2 7 -14 7 -12 0 -22 -4 -22 -9z"/>
<path d="M11027 8663 c-4 -3 -7 -11 -7 -17 0 -6 5 -5 12 2 6 6 9 14 7 17 -3 3
-9 2 -12 -2z"/>
<path d="M12143 8615 c0 -6 11 -11 24 -11 13 0 23 3 23 7 0 4 -10 9 -23 11
-14 3 -24 0 -24 -7z"/>
<path d="M12740 8614 c0 -8 5 -12 10 -9 6 4 8 11 5 16 -9 14 -15 11 -15 -7z"/>
<path d="M10941 8603 c-5 -10 -11 -22 -13 -28 -1 -5 -7 -9 -11 -7 -5 1 -6 -2
-2 -8 5 -8 11 -7 21 1 8 6 12 14 10 17 -3 2 -1 13 5 23 5 11 7 19 5 19 -3 0
-10 -8 -15 -17z"/>
<path d="M11025 8604 c-11 -9 -14 -14 -6 -14 10 0 11 -3 2 -14 -8 -10 -9 -16
-1 -21 6 -3 8 -11 5 -16 -4 -5 -3 -9 2 -10 4 0 15 -2 24 -4 11 -2 15 7 16 40
2 48 -12 61 -42 39z m30 -35 c1 -16 -3 -33 -8 -36 -6 -3 -7 -1 -3 5 3 6 2 13
-4 17 -7 4 -7 12 0 24 5 10 7 21 5 25 -3 3 -2 4 2 1 4 -3 7 -19 8 -36z"/>
<path d="M11330 8576 c0 -10 -5 -14 -12 -10 -7 4 -8 3 -4 -5 4 -6 11 -9 16 -6
13 8 27 -18 25 -52 -2 -25 1 -30 13 -25 9 3 11 7 5 9 -5 2 -8 15 -5 28 2 15
-4 34 -17 51 -16 20 -21 23 -21 10z"/>
<path d="M11354 8578 c4 -20 26 -21 26 -1 0 14 -2 15 -9 4 -6 -9 -10 -10 -14
-2 -4 8 -5 8 -3 -1z"/>
<path d="M10816 8563 c-4 -11 -2 -13 9 -9 9 3 15 0 15 -9 0 -22 16 -18 17 4 2
24 -33 35 -41 14z"/>
<path d="M10967 8563 c3 -7 10 -11 16 -10 7 1 11 -4 10 -10 -3 -15 13 -17 22
-4 3 5 1 12 -5 16 -6 4 -8 10 -6 14 3 4 -6 7 -19 7 -14 0 -21 -5 -18 -13z"/>
<path d="M11429 8559 c-3 -46 -5 -55 -12 -66 -4 -6 -3 -14 2 -17 15 -10 42 56
29 72 -6 7 -7 12 -2 10 5 -2 11 1 14 6 3 5 -3 10 -12 12 -12 1 -18 -5 -19 -17z"/>
<path d="M11286 8552 c-3 -5 1 -9 9 -9 8 0 12 4 9 9 -3 4 -7 8 -9 8 -2 0 -6
-4 -9 -8z"/>
<path d="M11165 8531 c2 -19 18 -17 21 2 1 8 -4 14 -11 14 -7 0 -12 -7 -10
-16z"/>
<path d="M11882 8538 c2 -7 -3 -12 -11 -10 -9 2 -11 -3 -7 -15 5 -16 4 -16 -6
-3 -17 21 -99 21 -114 0 -7 -8 -9 -21 -6 -29 4 -10 8 -8 14 9 8 22 9 22 28 5
12 -11 17 -23 12 -29 -7 -10 -8 -20 -3 -42 0 -3 12 8 26 25 17 20 33 28 46 26
14 -3 19 0 16 9 -3 8 1 23 9 34 9 14 11 23 4 27 -6 4 -9 1 -8 -7z m-75 -29
c-1 -4 3 -6 8 -5 6 0 9 4 8 9 -5 13 3 8 23 -15 15 -19 16 -20 2 -9 -10 7 -19
11 -19 7 -1 -3 -2 -10 -3 -15 0 -5 -4 -12 -8 -15 -5 -3 -6 -3 -3 1 3 3 -4 16
-15 28 -15 16 -17 22 -6 22 8 0 14 -4 13 -8z"/>
<path d="M11273 8509 c-2 -23 3 -25 10 -4 4 8 3 16 -1 19 -4 3 -9 -4 -9 -15z"/>
<path d="M11725 8520 c3 -5 8 -10 11 -10 2 0 4 5 4 10 0 6 -5 10 -11 10 -5 0
-7 -4 -4 -10z"/>
<path d="M11325 8510 c4 -6 11 -8 16 -5 14 9 11 15 -7 15 -8 0 -12 -5 -9 -10z"/>
<path d="M11760 8487 c0 -8 7 -14 15 -14 11 0 12 4 4 14 -6 7 -13 13 -15 13
-2 0 -4 -6 -4 -13z"/>
<path d="M11440 8482 c0 -5 7 -9 15 -9 8 0 15 4 15 9 0 4 -7 8 -15 8 -8 0 -15
-4 -15 -8z"/>
<path d="M11873 8403 c4 -3 1 -13 -6 -22 -11 -14 -10 -14 5 -2 16 12 16 31 1
31 -4 0 -3 -3 0 -7z"/>
<path d="M2358 8355 c-16 -13 -24 -26 -19 -30 5 -3 11 -2 14 2 2 5 2 1 -1 -7
-3 -8 -5 -25 -5 -37 -1 -13 -5 -23 -11 -23 -5 0 -1 -6 9 -14 11 -8 25 -11 33
-8 11 4 11 6 1 13 -7 4 -16 6 -20 3 -4 -2 -4 6 -1 18 5 19 7 20 10 6 5 -23 19
-23 31 1 7 13 6 24 -4 37 -13 17 -13 16 -8 -16 2 -19 2 -32 -1 -29 -12 11 -13
55 -2 68 8 11 8 13 -1 7 -7 -4 -13 -3 -13 3 0 5 6 11 13 14 6 2 10 7 7 10 -3
3 -17 -5 -32 -18z"/>
<path d="M1270 8280 c0 -5 5 -10 11 -10 5 0 7 5 4 10 -3 6 -8 10 -11 10 -2 0
-4 -4 -4 -10z"/>
<path d="M13075 8260 c-3 -5 -1 -10 4 -10 6 0 11 5 11 10 0 6 -2 10 -4 10 -3
0 -8 -4 -11 -10z"/>
<path d="M2213 8247 c6 -15 -15 -42 -25 -32 -3 3 -11 -1 -18 -10 -8 -10 -9
-15 -1 -15 6 0 11 6 11 13 0 9 2 9 8 0 6 -9 12 -7 25 7 20 24 21 36 5 46 -7 5
-9 2 -5 -9z"/>
<path d="M2342 8217 c3 -33 3 -32 30 -5 13 13 16 19 6 16 -9 -4 -21 -1 -27 5
-8 8 -11 4 -9 -16z"/>
<path d="M3030 8225 c-7 -8 -17 -12 -24 -8 -6 4 -4 -2 4 -12 8 -10 10 -16 3
-12 -17 10 -46 -59 -34 -80 10 -19 20 -6 27 34 3 15 8 30 11 33 3 3 3 -5 0
-18 -4 -19 -2 -22 11 -18 15 5 15 4 0 -8 -19 -14 -25 -32 -9 -21 5 3 13 0 17
-6 4 -7 3 -9 -2 -6 -6 3 -15 -3 -22 -13 -12 -19 -2 -34 22 -35 5 0 10 -8 12
-18 2 -14 -1 -16 -11 -7 -10 8 -15 8 -21 -2 -12 -18 -12 -52 1 -60 13 -9 41
-10 32 -1 -4 3 -2 12 4 20 8 9 8 13 1 13 -6 0 -15 -7 -20 -16 -8 -15 -10 -15
-15 0 -4 10 -3 14 2 11 5 -3 13 0 16 6 4 5 13 8 21 5 11 -4 13 0 8 18 -3 13
-1 27 5 30 7 4 9 1 5 -8 -3 -8 0 -24 6 -36 7 -13 7 -20 2 -16 -6 4 -8 -2 -5
-14 11 -40 23 -19 25 45 1 39 -2 44 -27 39 -28 -5 -28 -6 -27 104 1 39 0 72
-2 72 -2 0 -9 -7 -16 -15z m7 -37 c-3 -8 -6 -5 -6 6 -1 11 2 17 5 13 3 -3 4
-12 1 -19z"/>
<path d="M2270 8180 c0 -5 5 -10 10 -10 6 0 10 5 10 10 0 6 -4 10 -10 10 -5 0
-10 -4 -10 -10z"/>
<path d="M13218 8173 c0 -5 -2 -19 -3 -34 -2 -22 1 -25 25 -21 20 3 27 9 25
20 -2 10 -4 20 -4 25 -2 15 -18 6 -29 -15 -11 -22 -11 -21 -6 5 4 15 3 27 0
27 -3 0 -7 -3 -8 -7z"/>
<path d="M3664 8140 c0 -24 12 -26 32 -6 18 18 19 32 1 17 -9 -7 -17 -7 -23
-1 -6 6 -10 3 -10 -10z"/>
<path d="M2044 8142 c3 -6 2 -13 -3 -16 -11 -7 -11 -55 0 -62 5 -3 9 1 10 8 0
7 3 25 5 40 2 14 -1 30 -7 34 -7 4 -9 3 -5 -4z"/>
<path d="M3515 8141 c-3 -5 -1 -12 5 -16 5 -3 10 1 10 9 0 18 -6 21 -15 7z"/>
<path d="M3500 8111 c0 -7 -4 -9 -10 -6 -5 3 -18 1 -27 -5 -16 -10 -16 -11 2
-6 20 6 20 6 1 -9 -11 -8 -14 -15 -7 -15 16 0 56 38 48 47 -4 3 -7 1 -7 -6z"/>
<path d="M2890 8085 c0 -29 -40 -75 -66 -75 -14 0 -20 -8 -22 -25 -1 -14 3
-25 9 -25 5 0 7 6 3 13 -9 13 26 -11 38 -28 5 -7 8 -7 8 0 0 6 8 -1 16 -15 14
-22 15 -23 11 -4 -3 15 2 25 17 32 30 13 56 -2 49 -29 -5 -16 -2 -20 13 -17
37 6 47 43 13 45 -12 1 -24 4 -27 7 -11 11 -7 83 4 83 6 0 9 -9 6 -21 -4 -21
-4 -21 12 -1 l16 20 -7 -20 c-6 -20 -6 -20 15 -1 20 18 21 21 6 37 -10 11 -12
19 -5 24 6 3 11 11 11 17 0 7 -5 6 -14 -1 -8 -7 -17 -8 -20 -3 -3 5 -24 10
-46 10 -36 1 -40 -2 -40 -23z m44 3 c8 13 39 9 43 -5 6 -18 -17 -26 -23 -9 -3
9 -10 13 -15 10 -5 -3 -7 -9 -4 -14 3 -5 1 -12 -5 -15 -8 -5 -8 -11 -1 -19 8
-9 7 -13 -4 -13 -8 0 -12 4 -9 8 2 4 0 10 -5 13 -5 3 -11 -3 -14 -14 -3 -11
-1 -21 4 -21 5 -1 13 -2 18 -3 5 0 13 -5 18 -10 5 -5 3 -6 -4 -2 -8 5 -13 1
-14 -11 -1 -17 -2 -17 -6 0 -2 9 -8 17 -13 17 -4 0 -6 -9 -3 -20 4 -16 0 -20
-18 -20 -25 0 -65 20 -41 20 6 0 12 6 12 14 0 7 8 20 17 27 11 10 14 10 9 2
-4 -7 -4 -13 -1 -13 3 0 11 14 17 31 7 20 13 27 18 19 5 -8 10 -9 14 -2 3 6 2
13 -4 17 -5 3 -10 12 -10 18 0 8 3 8 9 -2 5 -8 11 -9 15 -3z m52 -150 c4 -7 3
-8 -4 -4 -7 4 -12 2 -12 -5 0 -7 -3 -10 -6 -6 -6 5 3 27 11 27 2 0 7 -5 11
-12z"/>
<path d="M13276 8025 c4 -8 8 -15 10 -15 2 0 4 7 4 15 0 8 -4 15 -10 15 -5 0
-7 -7 -4 -15z"/>
<path d="M3161 7997 c12 -21 11 -21 -6 -7 -17 14 -17 14 -5 -7 8 -11 19 -19
26 -16 15 6 7 40 -12 47 -12 5 -12 2 -3 -17z"/>
<path d="M13306 7981 c-4 -7 -5 -15 -2 -18 9 -9 19 4 14 18 -4 11 -6 11 -12 0z"/>
<path d="M13341 7954 c6 -7 16 -11 21 -8 11 7 3 17 -18 20 -12 2 -13 -1 -3
-12z"/>
<path d="M2752 7935 c3 -32 32 -30 36 3 3 17 -2 22 -17 22 -16 0 -20 -6 -19
-25z"/>
<path d="M3091 7924 c0 -11 3 -14 6 -6 3 7 2 16 -1 19 -3 4 -6 -2 -5 -13z"/>
<path d="M2680 7910 c0 -11 4 -20 9 -20 5 0 7 9 4 20 -3 11 -7 20 -9 20 -2 0
-4 -9 -4 -20z"/>
<path d="M13398 7913 c-31 -5 -36 -24 -13 -43 17 -14 21 0 5 16 -7 7 -6 11 3
11 8 0 14 -7 14 -16 0 -19 -27 -52 -37 -46 -4 3 -10 -1 -13 -9 -4 -9 4 -13 24
-14 16 0 30 2 30 6 1 4 3 23 5 42 2 19 6 41 9 48 2 6 3 11 2 11 -1 -1 -14 -4
-29 -6z"/>
<path d="M2630 7900 c0 -5 5 -10 11 -10 5 0 7 5 4 10 -3 6 -8 10 -11 10 -2 0
-4 -4 -4 -10z"/>
<path d="M13506 7872 c-3 -5 1 -9 9 -9 8 0 12 4 9 9 -3 4 -7 8 -9 8 -2 0 -6
-4 -9 -8z"/>
<path d="M13366 7861 c-4 -5 -2 -12 3 -15 5 -4 12 -2 15 3 4 5 2 12 -3 15 -5
4 -12 2 -15 -3z"/>
<path d="M13511 7794 c0 -11 3 -14 6 -6 3 7 2 16 -1 19 -3 4 -6 -2 -5 -13z"/>
<path d="M13571 7801 c-10 -6 -9 -10 3 -14 8 -3 18 -2 21 3 8 13 -9 20 -24 11z"/>
<path d="M13600 7786 c-7 -9 -16 -13 -21 -10 -5 3 -9 1 -9 -4 0 -11 48 -13 55
-3 2 4 0 13 -4 19 -6 10 -11 9 -21 -2z"/>
<path d="M13683 7745 c0 -8 4 -12 9 -9 5 3 6 10 3 15 -9 13 -12 11 -12 -6z"/>
<path d="M13654 7736 c1 -8 5 -18 8 -22 4 -3 5 1 4 10 -1 8 -5 18 -8 22 -4 3
-5 -1 -4 -10z"/>
<path d="M13733 7726 c-3 -6 -3 -8 2 -4 4 4 13 3 20 -2 8 -7 12 -5 12 3 0 16
-25 18 -34 3z"/>
<path d="M13705 7699 c-3 -4 2 -6 10 -5 21 3 28 13 10 13 -9 0 -18 -4 -20 -8z"/>
<path d="M13845 7621 c-3 -5 -1 -12 5 -16 5 -3 10 1 10 9 0 18 -6 21 -15 7z"/>
<path d="M13882 7568 c6 -16 36 -19 41 -4 3 7 -5 13 -20 14 -15 1 -23 -3 -21
-10z"/>
<path d="M13813 7545 c0 -8 4 -15 9 -15 4 0 8 4 8 9 0 6 -4 12 -8 15 -5 3 -9
-1 -9 -9z"/>
<path d="M960 7536 c0 -7 6 -19 14 -25 15 -13 16 -28 2 -50 -7 -11 -5 -13 8
-8 10 4 20 7 23 7 3 0 -1 7 -8 17 -13 15 -12 15 7 5 20 -11 34 -7 34 9 0 3 -9
9 -21 12 -12 3 -18 10 -14 16 3 6 2 11 -4 11 -5 0 -11 -5 -13 -12 -3 -7 -7 -5
-11 6 -4 9 -3 15 1 12 4 -2 14 -1 22 5 11 6 8 9 -12 9 -17 0 -28 -5 -28 -14z"/>
<path d="M14490 7521 c0 -5 5 -13 10 -16 6 -3 10 -2 10 4 0 5 -4 13 -10 16 -5
3 -10 2 -10 -4z"/>
<path d="M14380 7500 c0 -5 5 -10 11 -10 5 0 7 5 4 10 -3 6 -8 10 -11 10 -2 0
-4 -4 -4 -10z"/>
<path d="M9781 7484 c0 -11 3 -14 6 -6 3 7 2 16 -1 19 -3 4 -6 -2 -5 -13z"/>
<path d="M14386 7465 c4 -8 10 -12 15 -9 11 6 2 24 -11 24 -5 0 -7 -7 -4 -15z"/>
<path d="M13908 7444 c-8 -8 3 -44 13 -44 5 0 8 11 7 25 -2 24 -9 31 -20 19z"/>
<path d="M9903 7415 c0 -8 4 -12 9 -9 5 3 6 10 3 15 -9 13 -12 11 -12 -6z"/>
<path d="M13938 7357 c-4 -21 -2 -27 8 -23 8 3 13 2 13 -2 -4 -24 2 -62 10
-62 5 0 8 18 8 40 -1 23 -7 40 -14 40 -6 0 -13 8 -15 18 -3 11 -6 8 -10 -11z"/>
<path d="M13891 7304 c0 -11 3 -14 6 -6 3 7 2 16 -1 19 -3 4 -6 -2 -5 -13z"/>
<path d="M14010 7279 c0 -5 5 -7 10 -4 6 3 10 8 10 11 0 2 -4 4 -10 4 -5 0
-10 -5 -10 -11z"/>
<path d="M13862 7235 c1 -19 5 -35 8 -35 3 0 6 16 7 35 1 19 -3 35 -8 35 -5 0
-9 -16 -7 -35z"/>
<path d="M13990 7239 c0 -6 -5 -7 -12 -3 -7 4 -8 3 -4 -4 8 -13 51 -10 51 3 0
4 -8 9 -17 11 -10 1 -18 -2 -18 -7z"/>
<path d="M13971 7184 c0 -11 3 -14 6 -6 3 7 2 16 -1 19 -3 4 -6 -2 -5 -13z"/>
<path d="M503 7159 c11 -17 14 -16 20 7 1 4 -6 8 -15 10 -14 2 -15 -1 -5 -17z"/>
<path d="M14065 7130 c-3 -5 -1 -10 4 -10 6 0 11 5 11 10 0 6 -2 10 -4 10 -3
0 -8 -4 -11 -10z"/>
<path d="M284 7084 c7 -13 -18 -37 -27 -27 -4 3 -8 1 -8 -5 -3 -26 -4 -31 -11
-38 -5 -4 -8 -12 -8 -18 0 -6 5 -4 10 4 8 12 10 12 10 1 0 -18 13 -6 16 14 1
8 -3 15 -9 15 -5 0 -7 3 -3 7 4 4 16 -3 27 -17 l19 -25 -10 29 c-6 16 -8 31
-5 34 3 3 5 1 5 -4 0 -6 11 -10 25 -10 14 0 25 6 25 12 0 7 4 15 9 18 5 4 7
-3 4 -14 -3 -12 0 -20 6 -20 7 0 10 4 7 8 -2 4 0 14 6 22 8 12 9 12 4 -2 -3
-10 -1 -20 4 -23 6 -4 10 5 10 19 0 32 -29 35 -55 5 l-19 -20 -19 23 c-10 13
-16 18 -13 12z"/>
<path d="M154 7018 c-12 -14 -13 -18 -3 -10 30 23 41 -18 12 -50 -15 -17 -15
-18 7 -18 13 0 21 3 17 6 -3 3 -2 16 3 28 4 13 4 30 -2 42 -6 12 -2 10 11 -6
11 -14 21 -20 21 -14 0 11 -31 44 -42 44 -3 0 -13 -10 -24 -22z"/>
<path d="M320 7005 c0 -9 6 -12 15 -9 8 4 15 7 15 9 0 2 -7 5 -15 9 -9 3 -15
0 -15 -9z"/>
<path d="M150 6880 c0 -4 3 -10 8 -14 4 -4 7 -11 7 -14 1 -4 6 -17 13 -28 6
-12 13 -36 14 -53 2 -29 5 -31 43 -31 26 0 35 3 26 9 -9 6 -10 11 -2 15 6 4
11 12 11 18 0 6 -7 5 -17 -3 -10 -7 -8 -2 4 12 34 38 28 47 -9 13 -17 -16 -27
-23 -23 -15 6 11 4 13 -11 8 -15 -6 -15 -4 4 11 18 14 20 20 10 30 -8 8 -8 12
-1 12 6 0 14 -8 18 -17 6 -17 7 -17 20 0 10 13 14 15 18 5 4 -8 6 -7 6 5 1 13
-7 17 -33 17 -39 0 -68 9 -62 19 3 4 -6 7 -20 7 -13 0 -24 -3 -24 -6z m34 -32
c-3 -4 -1 -8 5 -8 5 0 12 5 14 10 3 6 4 5 3 -2 -5 -23 -29 -14 -33 12 -2 18
-1 21 6 10 5 -8 7 -18 5 -22z m36 -83 c5 3 11 1 14 -4 4 -5 -2 -8 -11 -7 -9 2
-18 8 -19 15 -1 6 0 7 3 1 2 -5 9 -8 13 -5z"/>
<path d="M288 6817 c-12 -23 -18 -57 -10 -57 10 0 51 54 46 62 -3 4 3 5 13 1
10 -3 15 -3 12 1 -16 18 -49 14 -61 -7z"/>
<path d="M325 6800 c-3 -5 -2 -10 4 -10 5 0 13 5 16 10 3 6 2 10 -4 10 -5 0
-13 -4 -16 -10z"/>
<path d="M125 6750 c-3 -5 -1 -10 4 -10 6 0 11 5 11 10 0 6 -2 10 -4 10 -3 0
-8 -4 -11 -10z"/>
<path d="M145 6720 c3 -5 8 -10 11 -10 2 0 4 5 4 10 0 6 -5 10 -11 10 -5 0 -7
-4 -4 -10z"/>
<path d="M8090 3206 c0 -16 24 -54 31 -50 15 9 10 29 -11 42 -11 7 -20 10 -20
8z"/>
<path d="M9000 2594 c0 -5 9 -70 20 -144 11 -74 23 -157 25 -185 7 -73 26
-185 31 -185 6 0 -6 152 -12 161 -2 4 -6 38 -10 77 -6 82 -39 270 -48 279 -3
4 -6 2 -6 -3z"/>
<path d="M9072 2040 c0 -17 3 -28 8 -25 5 3 7 15 5 27 -7 32 -12 31 -13 -2z"/>
<path d="M7791 1864 c-76 -54 -47 -177 47 -201 34 -8 88 20 107 58 48 91 -71
201 -154 143z m89 -75 c7 -11 9 -27 6 -35 -9 -23 -35 -16 -42 10 -11 44 16 63
36 25z"/>
</g>
</svg>
