<?xml version="1.0" standalone="no"?>
<!DOCTYPE svg PUBLIC "-//W3C//DTD SVG 20010904//EN"
 "http://www.w3.org/TR/2001/REC-SVG-20010904/DTD/svg10.dtd">
<svg version="1.0" xmlns="http://www.w3.org/2000/svg"
 width="500.000000pt" height="500.000000pt" viewBox="0 0 500.000000 500.000000"
 preserveAspectRatio="xMidYMid meet">
<metadata>
Created by potrace 1.11, written by Peter Selinger 2001-2013
</metadata>
<g transform="translate(0.000000,500.000000) scale(0.100000,-0.100000)"
fill="#000000" stroke="none">
<path d="M3120 4955 c0 -27 5 -70 11 -94 7 -30 7 -47 -1 -55 -5 -5 -10 -33 -9
-60 1 -41 3 -46 9 -26 8 25 8 25 9 2 1 -35 20 -16 21 21 6 188 5 192 -17 227
l-23 35 0 -50z m17 -187 c-3 -8 -6 -5 -6 6 -1 11 2 17 5 13 3 -3 4 -12 1 -19z"/>
<path d="M1740 4836 c0 -12 40 -46 55 -46 3 0 5 9 5 20 0 13 -10 24 -26 30
-33 13 -34 13 -34 -4z"/>
<path d="M1920 4726 c0 -9 5 -16 10 -16 6 0 10 4 10 9 0 6 -4 13 -10 16 -5 3
-10 -1 -10 -9z"/>
<path d="M4647 4603 c-13 -13 -7 -53 8 -53 10 0 15 10 15 30 0 29 -9 38 -23
23z"/>
<path d="M3133 4528 c-14 -16 -16 -29 -14 -100 1 -42 5 -58 15 -58 17 0 26 31
25 90 -1 60 -11 87 -26 68z"/>
<path d="M2345 4513 c-11 -3 -27 -14 -36 -24 -9 -11 -21 -19 -26 -19 -16 0
-197 -149 -207 -170 -6 -13 -15 -18 -27 -15 -26 9 -79 -60 -77 -102 1 -18 -2
-36 -7 -41 -4 -4 -5 3 -2 16 8 33 2 27 -32 -33 -17 -30 -36 -55 -42 -55 -5 0
-7 5 -4 10 3 6 2 10 -4 10 -5 0 -13 -9 -16 -20 -4 -11 -11 -18 -16 -15 -5 4
-9 1 -9 -6 0 -7 -3 -9 -6 -6 -4 4 -2 12 4 19 16 19 25 85 14 92 -6 3 -13 2
-17 -4 -4 -6 -11 -8 -16 -5 -5 4 -9 1 -9 -4 0 -6 -7 -11 -15 -11 -8 0 -15 -9
-15 -21 0 -11 -11 -37 -25 -57 -14 -20 -25 -43 -26 -52 0 -11 -3 -9 -8 4 -6
15 -12 9 -33 -35 -15 -30 -29 -62 -32 -71 -10 -32 -25 -19 -21 16 3 19 0 38
-5 41 -6 4 -10 -5 -10 -20 0 -15 -4 -24 -10 -20 -5 3 -10 1 -10 -4 0 -6 4 -11
8 -11 4 0 9 -14 10 -31 2 -22 -1 -30 -10 -26 -9 3 -13 -5 -12 -26 1 -31 -21
-67 -42 -67 -7 0 -11 -7 -10 -16 2 -24 -23 -29 -31 -7 -4 10 -13 24 -20 31
-13 13 -16 31 -15 85 1 23 -2 26 -13 17 -9 -8 -12 -22 -8 -41 3 -17 1 -29 -5
-29 -6 0 -10 -21 -10 -47 1 -87 -24 -175 -65 -230 -39 -53 -52 -86 -16 -43 17
21 19 22 10 3 -14 -27 -14 -36 -1 -28 16 10 11 -29 -7 -55 -12 -17 -13 -25 -5
-28 9 -3 11 -18 6 -53 -5 -34 -3 -49 5 -49 6 0 11 7 11 15 0 8 4 15 8 15 5 0
6 -22 2 -49 -3 -28 -3 -48 2 -45 4 3 8 -3 8 -12 0 -16 1 -16 14 2 14 18 15 16
22 -23 3 -24 10 -40 15 -37 5 3 9 -6 9 -20 0 -13 -6 -27 -12 -29 -10 -4 -10
-6 -1 -6 9 -1 11 -14 7 -43 -5 -42 6 -135 21 -170 4 -11 3 -18 -4 -18 -6 0
-15 15 -21 33 l-10 32 5 -35 c3 -19 8 -48 11 -64 4 -18 3 -27 -3 -23 -6 4 -6
-7 1 -29 l11 -36 5 56 c3 31 8 56 13 56 4 0 11 0 15 0 5 0 8 -45 7 -100 -3
-112 11 -208 16 -115 5 109 5 222 -1 265 l-6 45 -9 -44 c-7 -40 -9 -42 -17
-21 -5 12 -5 39 -1 59 3 20 6 44 5 53 0 9 7 20 17 23 18 5 41 44 41 70 0 7 19
68 41 136 36 105 48 129 86 166 24 24 48 41 53 38 6 -3 10 -1 10 4 0 6 5 11
11 11 5 0 7 -5 3 -11 -4 -7 2 -9 17 -7 18 2 23 9 22 25 -3 26 44 68 61 54 6
-4 25 -9 43 -9 24 0 30 3 26 14 -4 11 4 14 41 12 26 0 49 -5 52 -10 3 -4 19
-8 35 -8 17 0 28 3 25 8 -2 4 9 15 25 24 24 14 29 15 29 3 0 -8 5 -15 11 -15
5 0 8 4 4 9 -3 5 2 17 11 26 15 15 17 15 28 -1 7 -9 28 -18 47 -20 52 -6 71
-15 65 -29 -3 -8 0 -16 7 -19 9 -5 9 -7 -1 -12 -7 -3 -18 -11 -25 -18 -7 -7
-19 -15 -27 -19 -11 -4 -9 -6 6 -6 11 -1 36 13 54 29 36 33 55 39 46 15 -3 -8
-1 -15 4 -15 6 0 10 8 10 18 0 12 3 14 8 4 6 -9 12 -6 21 11 10 18 19 22 45
19 21 -2 37 2 45 12 8 9 25 16 40 16 14 1 43 7 64 14 33 12 43 12 85 -4 49
-18 92 -66 92 -102 0 -10 7 -21 15 -24 10 -4 13 -13 9 -26 -4 -14 -2 -18 5
-14 7 4 11 -1 11 -13 0 -11 5 -23 10 -26 6 -3 10 3 10 15 0 18 3 19 20 10 12
-6 23 -24 27 -41 3 -16 10 -29 15 -29 6 0 8 -8 6 -18 -6 -20 20 -49 32 -36 4
5 10 18 13 29 4 18 5 18 6 -3 1 -23 42 -95 61 -107 5 -3 10 -18 10 -33 1 -15
7 -38 14 -51 7 -13 11 -32 8 -43 -3 -12 1 -18 12 -18 9 0 21 -11 26 -24 5 -13
13 -25 18 -27 10 -4 30 -40 62 -109 12 -25 25 -53 30 -62 6 -10 10 -27 10 -38
0 -11 4 -20 8 -20 5 0 12 -72 16 -160 4 -88 10 -170 15 -181 11 -32 -15 -172
-51 -264 -16 -44 -37 -99 -45 -122 -8 -22 -23 -50 -34 -62 -10 -11 -19 -27
-19 -35 0 -9 -6 -13 -14 -10 -11 4 -13 0 -9 -16 4 -16 0 -23 -15 -27 -12 -3
-22 -15 -24 -27 -2 -16 -9 -21 -30 -19 -22 1 -26 -2 -24 -21 1 -12 5 -27 9
-33 4 -6 -2 -13 -13 -16 -16 -4 -20 0 -20 19 0 13 -4 24 -10 24 -5 0 -10 -13
-10 -29 0 -17 -4 -33 -10 -36 -5 -3 -10 2 -10 11 0 26 -13 8 -16 -23 -4 -32
-59 -89 -70 -72 -3 6 0 15 7 20 9 6 10 9 2 9 -17 0 -43 -29 -43 -48 -1 -21
-25 -54 -33 -45 -4 3 -10 -2 -14 -12 -6 -18 -7 -18 -14 1 -7 17 -8 17 -8 -3
-1 -22 -21 -34 -21 -12 0 5 -4 8 -9 5 -4 -3 -6 -17 -4 -30 4 -17 -2 -30 -16
-42 -12 -10 -21 -28 -21 -39 0 -12 -10 -31 -23 -43 -19 -18 -26 -19 -37 -9
-10 9 -12 9 -6 -1 12 -20 -3 -35 -21 -21 -12 10 -16 10 -23 0 -4 -8 -13 -10
-19 -7 -6 4 -16 -3 -22 -16 -11 -26 -49 -55 -49 -38 0 5 -7 10 -15 10 -8 0
-15 6 -16 13 0 6 -4 2 -9 -10 -6 -14 -15 -21 -23 -17 -8 3 -17 -2 -20 -10 -4
-9 -15 -16 -25 -16 -11 0 -31 -9 -45 -20 -14 -11 -28 -20 -32 -20 -5 0 -14 -8
-22 -17 -13 -17 -13 -17 -11 2 3 17 -3 20 -29 19 -21 0 -33 5 -33 13 0 7 7 13
15 13 8 0 15 5 15 10 0 16 -18 12 -39 -9 -14 -14 -22 -16 -30 -8 -7 7 -16 5
-31 -8 -18 -16 -24 -14 -22 6 1 4 -7 9 -18 12 -11 3 -18 0 -17 -7 1 -6 -10
-11 -25 -12 -21 -1 -28 4 -28 19 0 13 -5 17 -15 13 -8 -3 -15 -1 -15 5 0 6 -7
8 -16 5 -8 -3 -13 -2 -9 3 9 16 -5 37 -28 38 -14 2 -17 -1 -9 -6 7 -4 12 -12
10 -17 -4 -14 35 -61 48 -57 6 2 16 -8 24 -22 7 -14 19 -25 26 -25 7 0 20 -10
28 -22 9 -12 16 -19 16 -16 0 4 26 -2 58 -13 31 -12 84 -22 117 -24 47 -2 63
-8 77 -25 10 -12 18 -18 18 -14 0 5 5 2 10 -6 6 -10 10 -11 10 -2 0 6 5 12 10
12 6 0 10 -19 10 -42 0 -32 3 -39 10 -28 5 8 10 10 10 3 0 -6 -13 -22 -29 -36
-22 -18 -27 -27 -18 -36 6 -6 7 -11 1 -11 -5 0 -2 -5 6 -10 13 -9 13 -11 0
-20 -13 -8 -12 -10 5 -11 11 -1 25 -1 32 0 14 2 35 -33 26 -43 -3 -3 -1 -6 5
-6 5 0 13 6 15 13 7 17 27 -11 20 -29 -2 -7 0 -21 5 -31 10 -17 11 -17 17 -1
4 10 11 15 16 12 5 -3 34 8 64 25 30 17 55 27 55 22 0 -5 9 -11 20 -14 16 -4
20 -14 20 -47 0 -49 -11 -71 -57 -116 -38 -38 -59 -90 -42 -110 18 -22 -7 -51
-75 -89 -83 -46 -102 -46 -116 4 -5 21 -21 50 -34 64 -14 15 -29 33 -33 40 -4
7 -38 32 -75 56 -38 24 -68 46 -68 50 0 3 -33 40 -72 81 -91 95 -171 214 -198
294 -28 85 -69 336 -54 336 3 0 14 -10 24 -23 10 -12 21 -19 25 -15 8 8 -39
58 -53 58 -5 0 -12 8 -15 18 -4 9 -18 35 -32 57 -13 22 -28 47 -32 55 -3 8
-17 25 -31 38 l-24 23 4 -38 c5 -34 1 -42 -40 -82 -31 -31 -42 -37 -37 -22 8
27 1 26 -44 -1 -50 -31 -71 -50 -65 -60 11 -17 -7 -27 -32 -18 -21 8 -26 6
-34 -15 -9 -24 -50 -37 -50 -15 0 5 7 7 15 4 9 -4 16 3 20 19 4 13 17 30 31
37 13 8 22 16 19 18 -6 6 -99 -40 -103 -50 -2 -5 -12 -8 -23 -8 -10 0 -19 -4
-19 -8 0 -15 -45 -30 -113 -37 -36 -4 -66 -10 -65 -14 2 -21 -6 -30 -37 -35
-41 -8 -91 -32 -76 -37 6 -2 2 -10 -9 -17 -17 -10 -20 -10 -20 3 0 8 -7 15
-15 15 -8 0 -15 -7 -15 -15 0 -12 -4 -13 -17 -6 -23 12 -125 3 -176 -15 -22
-8 -48 -14 -58 -14 -10 0 -41 -5 -70 -11 -36 -8 -47 -14 -38 -20 12 -7 11 -9
-2 -9 -8 0 -20 5 -26 11 -7 7 -14 1 -23 -20 -7 -17 -19 -31 -26 -31 -8 0 -15
-7 -15 -15 -1 -8 -2 -21 -3 -27 -1 -7 -12 -12 -24 -11 -27 3 -62 -13 -62 -28
0 -6 4 -8 9 -4 5 3 12 1 16 -5 3 -5 1 -10 -4 -10 -17 0 -51 -33 -51 -50 0 -9
-3 -11 -8 -5 -16 22 -37 9 -49 -30 l-11 -40 -1 35 c-1 29 -3 32 -12 17 -5 -9
-7 -21 -4 -26 3 -6 -2 -14 -12 -19 -12 -8 -18 -27 -21 -76 -2 -36 0 -72 6 -79
10 -13 37 -94 46 -142 l6 -30 -15 25 c-8 14 -14 37 -15 52 0 14 -3 28 -7 30
-5 2 -22 31 -40 65 l-31 63 -7 -43 c-4 -23 -12 -51 -18 -62 -6 -11 -10 -24 -9
-29 2 -5 -6 -6 -18 -3 -11 3 -23 0 -27 -5 -4 -7 -1 -8 7 -3 10 6 11 4 5 -11
-21 -51 15 -256 60 -344 9 -17 14 -34 11 -37 -7 -7 -45 69 -75 151 -15 38 -32
71 -40 74 -10 3 -11 0 -5 -9 4 -8 9 -41 9 -74 1 -33 7 -73 13 -88 15 -35 15
-58 1 -34 -13 22 -31 23 -22 1 5 -13 1 -15 -18 -10 -13 3 -18 3 -11 0 6 -3 12
-17 12 -30 0 -25 -15 -33 -23 -11 -3 6 -6 0 -6 -15 -1 -23 3 -27 21 -25 15 1
23 -4 24 -16 1 -12 0 -13 -3 -2 -6 19 -17 19 -33 0 -14 -17 -8 -64 17 -137
l17 -48 2292 0 2292 0 7 63 c14 129 -14 384 -36 332 -7 -15 -8 -13 -6 13 3 24
0 32 -10 28 -9 -4 -13 3 -13 19 0 18 -7 26 -26 31 -18 5 -24 12 -21 25 3 11 0
16 -8 13 -7 -3 -16 0 -21 7 -4 8 -3 10 4 5 7 -4 12 -2 12 3 0 6 -5 11 -11 11
-5 0 -7 5 -4 10 3 6 -3 10 -15 10 -11 0 -23 7 -26 15 -7 17 -69 36 -91 28 -13
-5 -15 -2 -11 15 4 12 0 26 -9 33 -10 9 -11 14 -3 19 8 5 7 9 -4 13 -9 4 -16
2 -16 -3 0 -6 -14 -10 -31 -10 -29 0 -30 1 -24 33 10 42 11 43 47 29 47 -17
48 -5 3 35 -22 19 -50 43 -61 54 -19 16 -23 17 -28 4 -3 -8 -12 -15 -21 -15
-8 0 -15 -4 -15 -10 0 -5 4 -10 10 -10 17 0 -6 -43 -25 -46 -10 -1 -23 -8 -29
-15 -8 -9 -6 -10 11 -6 14 3 20 1 17 -7 -3 -7 -15 -12 -27 -12 -12 1 -21 -4
-20 -11 2 -7 -6 -17 -16 -22 -29 -16 -36 23 -7 43 l21 15 -22 0 c-13 1 -23 6
-23 12 0 5 5 7 10 4 6 -3 10 -1 10 5 0 8 -7 9 -17 5 -10 -4 -34 -9 -53 -11
l-35 -5 30 14 c17 8 36 26 43 41 11 24 10 27 -10 35 l-23 8 23 7 c12 4 20 12
17 17 -9 14 24 23 39 10 11 -9 15 -6 18 14 6 27 -1 32 -20 13 -9 -9 -12 -8
-12 5 0 9 -4 17 -9 17 -4 0 -20 11 -35 25 -15 14 -36 25 -47 25 -10 0 -19 5
-19 10 0 6 -9 10 -20 10 -10 0 -25 6 -32 14 -11 11 -14 11 -24 -2 -10 -13 -13
-13 -31 5 -12 12 -53 31 -92 43 -39 13 -71 25 -71 27 0 6 74 -9 85 -17 6 -4
26 -10 45 -14 31 -5 32 -5 13 6 -13 6 -23 15 -23 20 0 5 -4 6 -10 3 -6 -3 -10
-2 -10 3 0 5 -9 12 -20 15 -13 3 -18 1 -13 -6 5 -9 3 -9 -8 -1 -8 6 -32 17
-54 23 -22 7 -58 21 -80 31 -34 16 -51 21 -105 35 -3 0 -36 15 -73 33 -38 18
-73 32 -78 32 -5 0 -9 4 -9 10 0 5 -3 9 -7 8 -5 -1 -21 4 -38 11 -16 7 -44 15
-62 18 -18 3 -40 15 -50 27 -18 21 -18 21 4 3 15 -14 26 -16 38 -9 14 7 9 13
-30 31 -26 12 -50 20 -53 17 -3 -3 0 -6 6 -6 7 0 12 -6 12 -12 0 -7 -13 1 -28
18 -33 36 -129 87 -149 80 -8 -3 -11 -1 -8 4 3 6 -1 10 -9 10 -14 0 -56 49
-56 66 0 4 12 -4 28 -18 28 -26 64 -48 79 -48 14 0 17 40 7 102 -6 35 -8 37
-33 32 -36 -9 -41 -13 -41 -30 0 -8 -4 -14 -10 -14 -12 0 -13 17 -1 24 4 3 11
20 15 38 6 29 49 104 68 118 4 3 14 26 22 50 42 122 65 175 73 173 6 -1 10 11
11 27 0 15 10 50 22 78 12 27 23 57 24 67 1 9 9 21 17 26 11 7 11 9 -3 9 -13
0 -17 7 -13 28 2 15 9 67 16 115 l12 88 20 -31 c27 -43 41 -40 51 11 2 13 7
32 11 41 5 13 0 21 -21 29 l-29 11 28 10 c15 5 27 16 27 23 0 7 12 20 26 30
24 15 27 15 43 1 17 -15 19 -15 32 0 12 14 14 14 26 -2 18 -25 27 -11 19 31
-4 22 -16 41 -32 52 -24 15 -26 15 -57 -13 -18 -16 -42 -39 -53 -52 -41 -46
-43 -17 -2 43 51 76 96 116 130 114 7 0 4 -4 -6 -8 -18 -7 -18 -8 4 -28 12
-12 30 -19 39 -16 12 3 13 2 3 -4 -10 -8 -9 -17 3 -46 8 -20 15 -46 15 -57 0
-23 18 -27 26 -5 4 8 12 15 20 15 17 0 17 -5 3 -32 -10 -18 -9 -20 5 -15 10 4
16 1 16 -7 0 -8 -13 -19 -30 -25 -26 -8 -30 -7 -31 7 -2 18 -20 -92 -20 -120
0 -10 -4 -18 -8 -18 -5 0 -13 -31 -19 -69 -7 -38 -14 -76 -17 -84 -4 -9 1 -16
14 -20 19 -5 21 -1 21 51 0 52 1 55 16 40 13 -12 14 -20 5 -37 -7 -12 -11 -27
-9 -34 1 -6 -3 -22 -10 -33 -8 -16 -18 -20 -37 -16 -23 4 -26 1 -24 -19 4 -42
-1 -59 -15 -59 -7 0 -16 -9 -19 -20 -3 -11 -2 -20 2 -20 4 0 8 -15 8 -32 1
-76 8 -143 17 -150 10 -7 75 23 76 35 0 4 -9 3 -19 -3 -31 -16 -37 -13 -49 26
-9 31 -8 38 9 55 14 14 17 24 10 37 -6 10 -6 24 -1 32 7 11 10 8 15 -12 4 -14
6 -34 5 -44 -1 -11 -2 -35 -1 -54 1 -26 4 -31 11 -20 9 15 6 105 -5 141 -10
30 3 58 24 52 15 -4 18 0 14 20 -4 19 0 27 16 32 22 7 26 16 14 29 -5 4 -8 36
-8 69 0 34 -2 68 -5 76 -3 7 1 16 8 18 7 3 12 -5 12 -21 0 -18 4 -24 15 -20 8
4 15 1 15 -5 0 -6 -5 -11 -10 -11 -7 0 -10 -34 -9 -92 2 -90 2 -92 19 -70 10
12 24 22 32 22 10 0 11 2 0 9 -10 6 -10 10 2 20 11 9 15 9 19 -1 5 -13 8 -7
22 37 8 26 27 16 23 -12 -3 -24 1 -28 26 -30 16 -1 33 -8 37 -15 10 -16 10
-66 1 -91 -7 -16 -10 -16 -30 7 -13 15 -28 23 -37 20 -10 -4 -15 0 -15 10 0
10 -9 16 -25 16 -16 0 -25 -6 -25 -16 0 -11 5 -14 17 -10 39 15 45 -59 8 -94
-31 -29 -34 -9 -5 35 11 17 20 33 20 38 0 14 -24 7 -47 -15 -20 -19 -25 -20
-33 -8 -7 10 -10 -7 -10 -52 0 -36 -3 -73 -6 -82 -4 -10 -1 -16 9 -16 10 0 13
7 10 20 -7 25 2 25 38 -1 29 -20 29 -20 29 0 0 11 7 26 15 35 10 9 11 17 5 21
-12 7 -4 25 11 25 5 0 9 -11 9 -25 0 -14 5 -25 10 -25 6 0 10 5 10 10 0 6 4
10 9 10 6 0 9 -19 9 -43 -2 -62 -48 -109 -48 -49 0 20 -3 23 -9 12 -6 -8 -7
-18 -5 -22 3 -4 0 -8 -5 -8 -6 0 -11 4 -11 10 0 5 -9 14 -19 20 -28 14 -76
-29 -66 -60 4 -12 9 -19 12 -16 4 3 12 1 19 -5 8 -7 14 -7 19 1 3 5 -1 10 -9
10 -21 0 -20 10 4 40 l20 25 0 -34 c0 -20 7 -39 17 -46 17 -12 17 -14 -2 -35
-14 -15 -28 -20 -48 -17 -26 3 -28 2 -22 -22 8 -31 23 -43 50 -37 29 7 60 -37
45 -65 -9 -15 -8 -24 1 -35 6 -8 9 -17 5 -21 -3 -3 -6 0 -6 7 0 9 -5 7 -14 -5
-16 -23 -10 -41 8 -26 9 8 18 7 30 -2 16 -12 16 -14 3 -26 -11 -9 -21 -10 -35
-2 -16 8 -21 6 -30 -15 -11 -23 -10 -24 13 -18 14 3 25 2 25 -4 0 -17 48 0 53
19 7 26 47 26 47 0 0 -10 7 -22 16 -25 23 -9 34 -7 34 5 0 6 -7 9 -15 5 -10
-4 -15 1 -15 14 0 22 15 27 26 9 4 -8 9 -7 15 2 9 14 1 -119 -8 -133 -2 -5 5
-8 16 -8 10 0 21 -5 23 -12 2 -6 10 -8 17 -4 15 10 -4 36 -25 36 -8 0 -14 7
-14 15 0 9 9 15 24 15 18 0 26 6 28 22 4 29 28 36 28 8 0 -12 4 -19 10 -15 5
3 7 -14 3 -45 -4 -34 -2 -50 5 -50 8 0 9 -8 2 -25 -5 -14 -7 -31 -4 -38 3 -8
0 -26 -5 -40 -6 -15 -7 -27 -2 -27 12 0 58 109 66 158 5 31 11 42 25 42 10 0
21 7 24 16 4 9 9 15 12 12 2 -3 0 -18 -6 -34 -6 -15 -13 -48 -16 -73 -4 -43
-19 -65 -36 -55 -5 3 -8 2 -7 -3 1 -4 -3 -20 -9 -34 -6 -14 -13 -53 -16 -87
-4 -46 -2 -61 9 -66 9 -3 12 0 9 8 -4 10 2 12 21 8 23 -4 26 -2 23 18 -2 13 3
25 11 28 10 3 12 -1 8 -17 -3 -11 -1 -21 3 -21 4 0 6 -9 3 -20 -4 -14 0 -20
11 -20 9 0 16 7 16 15 0 8 5 15 11 15 7 0 17 6 23 14 6 7 23 16 39 20 34 8 37
-16 5 -38 -12 -9 -19 -18 -15 -22 3 -3 18 6 32 22 17 19 22 31 15 38 -18 18
-11 26 15 16 13 -5 27 -5 30 -1 3 5 -2 12 -11 15 -8 3 -13 10 -9 15 3 6 13 7
22 4 13 -5 15 -2 10 11 -4 10 -7 22 -7 27 0 5 -7 9 -16 9 -9 0 -14 8 -13 18 1
9 1 30 0 45 l-1 28 -22 -25 c-24 -25 -77 -48 -64 -27 4 6 14 11 22 11 8 0 14
4 14 9 0 5 -15 9 -34 8 -19 0 -34 -3 -34 -6 2 -24 -33 -71 -52 -71 -11 0 -7
44 5 73 4 9 5 26 2 36 -3 13 0 18 8 15 9 -4 12 6 11 33 -1 34 2 38 26 41 34 4
56 28 40 44 -21 21 -14 40 11 32 12 -3 23 -11 25 -15 2 -5 11 -2 19 7 13 13
14 17 3 24 -10 6 -8 11 9 21 11 8 21 19 21 26 0 7 6 13 14 13 8 0 21 8 28 18
7 10 25 19 40 20 21 1 28 -3 32 -26 10 -42 73 -104 99 -97 16 5 18 4 8 -3 -16
-11 -6 -32 15 -32 8 0 14 -5 14 -12 0 -19 52 -68 72 -68 11 0 18 7 18 19 0 12
10 21 28 26 59 14 73 32 70 86 -3 54 -7 59 -26 29 -10 -17 -10 -20 3 -20 20 0
19 -14 -1 -35 -13 -12 -19 -13 -24 -4 -5 8 -10 5 -14 -9 -7 -21 -36 -39 -36
-21 0 5 -11 7 -25 3 -29 -7 -32 2 -8 28 13 14 14 21 5 30 -17 17 -15 48 4 48
13 0 14 3 4 15 -7 8 -10 25 -6 40 4 16 2 25 -5 25 -8 0 -10 18 -5 63 8 65 27
107 50 107 9 0 17 17 21 50 6 42 10 50 27 50 19 0 20 2 6 18 -21 24 -56 102
-64 140 -5 22 -11 31 -20 28 -16 -6 -19 10 -4 19 15 9 2 25 -15 18 -8 -3 -15
0 -15 7 0 6 5 8 10 5 6 -3 10 3 10 14 0 14 -5 19 -15 15 -9 -4 -15 0 -15 10 0
9 -5 16 -12 16 -6 0 -8 3 -4 7 4 4 15 8 24 8 25 0 30 92 6 102 -10 3 -26 15
-36 25 -15 15 -15 18 -3 18 8 0 15 -4 15 -9 0 -4 11 -6 25 -3 21 4 26 11 31
53 4 27 11 52 16 55 6 4 8 -6 3 -25 -6 -31 -6 -32 13 -20 16 10 26 10 47 1 23
-11 27 -17 23 -47 -3 -24 0 -35 9 -35 7 0 13 5 13 10 0 6 5 10 11 10 7 0 17 7
24 17 8 10 14 12 19 5 3 -6 -4 -20 -16 -31 -12 -12 -16 -22 -10 -22 46 -5 72
-2 72 7 0 6 7 17 15 24 13 10 19 10 34 -4 16 -15 20 -15 30 -2 10 11 10 24 3
48 -6 18 -14 52 -17 75 -8 54 -27 70 -62 54 -28 -13 -46 -6 -23 9 12 8 10 10
-7 10 -12 0 -24 4 -27 9 -9 14 20 21 33 8 6 -6 14 -7 18 -3 4 4 1 11 -6 16 -9
5 -11 14 -6 26 4 11 7 26 6 35 -1 8 7 24 18 34 20 17 21 17 30 -6 5 -15 5 -26
-1 -30 -7 -4 -6 -9 1 -13 16 -10 17 10 6 114 -8 78 -12 93 -24 86 -5 -3 -4 10
2 29 l10 34 14 -27 c8 -14 12 -35 9 -45 -2 -10 -1 -44 4 -75 5 -32 11 -74 13
-95 5 -49 10 -52 46 -36 30 14 37 37 10 31 -8 -1 -3 7 10 18 18 16 21 24 13
32 -16 16 -15 65 1 71 9 4 8 8 -3 16 -9 6 -10 11 -3 11 19 0 17 214 -2 230
-19 16 -19 30 0 30 13 0 15 26 15 170 0 164 -1 170 -20 170 -20 0 -20 -1 -4
-25 11 -16 12 -25 5 -25 -7 0 -16 12 -22 28 -9 25 -12 27 -60 23 -49 -3 -51
-2 -44 19 5 16 3 21 -6 18 -7 -2 -17 -17 -22 -34 -5 -16 -16 -36 -24 -45 -12
-15 -11 -16 13 -11 20 4 25 1 22 -9 -2 -8 -16 -15 -31 -17 -27 -3 -54 -28 -43
-39 4 -4 11 -1 16 7 13 21 22 7 27 -43 6 -50 -9 -88 -35 -86 -16 1 -16 2 1 6
18 5 24 23 6 23 -5 0 -7 5 -4 10 3 6 3 20 0 31 -5 16 -12 19 -31 15 -14 -4
-24 -2 -24 4 0 6 -12 4 -30 -5 -16 -9 -30 -20 -30 -25 0 -18 -16 -10 -17 9 -1
11 9 23 23 30 19 8 23 16 18 35 -4 18 0 30 15 43 12 9 21 25 21 35 0 10 5 18
10 18 11 0 13 42 4 78 -9 32 -22 27 -42 -15 -9 -21 -24 -38 -32 -38 -11 0 -16
-16 -20 -67 -8 -103 -31 -111 -34 -11 -1 42 -6 62 -18 71 -19 14 -14 42 8 42
8 0 14 9 14 20 0 12 7 20 18 20 14 0 17 7 14 43 -3 35 -9 46 -35 62 -47 28
-51 30 -44 11 6 -14 3 -16 -13 -11 -12 4 -20 2 -20 -5 0 -7 -7 -10 -15 -6 -9
3 -15 0 -15 -8 0 -8 -7 -16 -15 -20 -8 -3 -15 -1 -15 4 0 14 -32 0 -56 -24
-31 -31 -44 -60 -37 -84 5 -21 23 -31 23 -13 0 10 41 23 49 16 2 -3 -4 -14
-14 -25 -10 -11 -15 -28 -12 -40 4 -16 -1 -23 -20 -31 -20 -8 -24 -14 -18 -32
4 -12 8 -35 9 -52 1 -27 -2 -30 -29 -30 -22 0 -31 5 -33 20 -2 11 -11 29 -21
39 -12 14 -13 20 -3 23 19 7 14 35 -5 31 -10 -1 -24 1 -30 5 -7 5 -38 0 -68
-9 -58 -19 -76 -38 -25 -27 19 3 30 1 30 -6 0 -6 -12 -11 -26 -11 -20 0 -25
-4 -20 -16 3 -9 6 -22 6 -31 0 -10 6 -13 16 -9 12 4 14 1 9 -14 -4 -13 -2 -20
7 -20 20 0 35 13 42 38 11 32 23 27 18 -8 -3 -18 0 -30 7 -30 23 0 10 -28 -20
-40 -36 -15 -22 -30 29 -30 20 0 31 -4 27 -10 -3 -5 0 -11 7 -11 7 -1 -5 -5
-27 -9 l-40 -7 48 -2 c26 0 47 3 47 9 0 5 11 -2 25 -16 30 -30 31 -37 5 -29
-15 5 -22 -1 -34 -27 -18 -39 -44 -74 -51 -67 -3 3 3 14 13 25 27 28 33 51 16
58 -9 3 -14 -1 -14 -12 0 -10 -6 -26 -14 -37 -19 -28 -30 -85 -17 -85 6 0 11
-4 11 -10 0 -5 -6 -10 -14 -10 -12 0 -12 -7 -4 -36 5 -20 13 -124 16 -232 8
-223 6 -219 88 -187 46 17 57 42 30 64 -13 11 -12 15 5 32 20 20 20 21 2 34
-10 9 -13 14 -5 15 6 0 12 12 12 26 0 21 4 25 23 22 12 -2 22 -10 23 -18 2
-36 5 -41 16 -38 7 3 15 17 19 33 7 23 4 31 -16 47 -32 25 -32 42 -1 34 49
-12 141 89 133 147 -2 18 1 27 10 27 12 0 18 25 14 60 0 8 -5 46 -9 83 -5 37
-5 70 0 73 4 3 8 -2 8 -11 0 -9 4 -14 8 -11 5 3 14 -22 21 -55 8 -32 17 -59
20 -59 4 0 16 7 27 16 10 8 13 13 7 9 -8 -4 -11 -1 -7 9 3 8 11 13 18 10 15
-6 41 22 42 45 1 9 2 26 3 39 1 26 18 30 23 5 4 -23 50 71 52 107 1 14 7 34
13 45 17 30 18 57 3 87 -15 31 -7 66 13 50 7 -5 21 -6 32 -1 32 12 35 10 25
-17 -12 -32 -13 -67 -1 -60 5 3 11 -1 15 -9 3 -10 -1 -15 -13 -15 -14 0 -17
-6 -13 -29 2 -16 -1 -32 -7 -35 -7 -5 -11 2 -12 16 0 16 -9 6 -30 -37 -32 -67
-36 -95 -13 -95 8 0 12 -5 9 -10 -5 -8 -11 -8 -20 0 -10 8 -17 2 -33 -23 -11
-19 -23 -44 -27 -56 -3 -11 -10 -21 -14 -21 -4 0 -27 -18 -51 -40 -24 -22 -47
-40 -51 -40 -4 0 -7 -10 -7 -22 0 -29 -20 -105 -37 -138 -23 -46 -27 -80 -10
-80 19 0 19 -21 0 -46 -14 -19 -14 -19 -15 3 0 34 -17 37 -32 6 -7 -16 -20
-28 -28 -29 -47 -3 -49 -4 -48 -34 1 -17 -4 -36 -10 -42 -18 -18 -14 -32 3
-18 9 7 18 10 21 7 9 -9 -16 -47 -31 -47 -8 0 -15 -7 -15 -16 0 -12 9 -15 41
-13 31 3 43 -1 51 -15 13 -24 4 -31 -37 -27 -39 3 -75 -13 -75 -34 0 -8 -2
-15 -4 -15 -17 0 -131 34 -153 46 -16 7 -34 14 -40 14 -7 0 -13 5 -13 11 0 6
-7 8 -16 5 -14 -5 -44 14 -44 28 0 3 14 13 31 22 l32 16 -7 112 c-4 62 -11
130 -16 151 -5 22 -5 44 0 50 8 10 6 68 -5 163 -5 37 -11 52 -21 52 -11 0 -13
6 -9 23 4 12 11 26 16 32 5 5 9 13 9 18 0 11 -43 -2 -52 -17 -11 -17 -19 0
-12 27 3 15 15 29 25 32 10 4 19 11 19 16 0 6 -5 7 -10 4 -22 -13 -69 6 -77
31 l-8 25 -27 -20 c-15 -12 -29 -17 -32 -12 -4 5 6 19 21 30 22 16 24 20 10
21 -16 0 -16 3 -3 35 10 23 11 35 4 35 -6 0 -3 9 7 20 17 18 17 20 2 14 -26
-10 -20 14 9 39 25 22 26 25 13 65 -8 30 -18 42 -31 42 -13 0 -18 7 -18 25 0
30 -13 32 -39 6 -11 -11 -22 -17 -25 -14 -3 4 -6 -4 -6 -16 0 -14 -5 -21 -12
-18 -8 2 -13 22 -12 50 0 40 -2 45 -17 37 -12 -7 -19 -5 -23 7 -7 17 -21 10
-21 -10 0 -7 -16 -13 -35 -15 -27 -2 -32 0 -20 8 12 9 12 10 -5 7 -11 -2 -19
-9 -17 -15 1 -8 -12 -12 -35 -12 -28 0 -34 -3 -23 -10 8 -5 22 -7 32 -4 22 7
33 -13 17 -32 -10 -12 -8 -17 7 -29 10 -8 15 -15 9 -16 -17 -3 -39 -6 -59 -8
-11 0 -17 -4 -14 -7 4 -3 2 -19 -2 -35 -8 -28 2 -49 15 -29 3 5 10 10 16 10 5
0 0 -9 -11 -20 -12 -12 -28 -19 -38 -18 -12 2 -16 -3 -14 -17 2 -20 -45 -81
-55 -71 -3 3 -1 11 4 18 6 7 13 25 17 40 5 20 2 27 -11 31 -12 2 -6 7 17 13
l35 10 -23 19 c-12 11 -22 25 -22 33 0 7 -7 27 -16 44 -9 16 -11 27 -6 24 6
-4 13 -2 17 4 3 5 17 7 30 4 12 -3 26 -1 30 6 11 17 2 21 -31 11 -34 -9 -54
-4 -54 14 0 10 11 12 40 8 22 -3 40 -3 40 -1 0 3 -14 21 -31 39 -28 31 -30 39
-26 90 5 60 1 74 -23 74 -8 0 -16 9 -19 20 -2 11 -6 22 -10 25 -4 3 -20 22
-35 43 -19 24 -24 37 -15 37 26 0 -13 19 -54 26 -22 3 -47 14 -56 23 -10 9
-26 21 -37 28 -15 10 -16 11 -1 7 26 -9 20 7 -15 39 -22 19 -27 27 -14 22 19
-6 19 -5 1 15 -10 11 -24 20 -32 20 -8 0 -12 4 -8 9 3 6 -5 15 -17 22 -27 13
-67 59 -68 75 0 6 -7 17 -15 24 -8 7 -13 16 -10 20 3 4 -1 10 -9 13 -7 3 -12
16 -11 30 2 19 -1 24 -19 22 -29 -2 -41 6 -25 16 10 6 5 12 -19 22 -18 7 -29
16 -25 20 3 4 -8 7 -26 7 -24 0 -34 5 -38 20 -3 11 -9 18 -13 15 -5 -3 -11 -1
-15 5 -3 5 -11 10 -18 10 -6 0 -1 -7 11 -16 30 -21 28 -40 -3 -20 -13 9 -37
16 -52 16 -24 1 -25 2 -10 11 9 5 22 7 29 3 6 -4 8 -3 4 4 -3 5 0 13 6 16 7 3
0 2 -16 -1 -20 -4 -27 -2 -22 5 5 8 1 10 -9 5 -13 -5 -14 -7 -3 -14 8 -5 9 -9
2 -9 -6 0 -17 6 -23 14 -9 11 -9 15 1 19 7 3 2 6 -12 7 l-25 1 25 20 c14 12
24 24 23 28 -1 3 12 4 30 3 18 -2 28 0 24 4 -4 4 -22 9 -40 9 -53 3 -117 16
-123 26 -3 5 3 9 12 9 10 0 15 3 11 6 -3 4 -14 3 -24 -1 -10 -4 -31 -9 -48
-11 -16 -1 -59 -6 -94 -10 -43 -4 -62 -3 -58 4 4 5 -7 12 -26 15 -17 2 -35 0
-38 -5 -7 -10 -39 0 -39 13 0 11 -27 12 -32 1 -1 -5 -18 -12 -36 -15 -21 -4
-31 -3 -27 3 3 6 15 10 25 10 10 0 22 5 25 10 3 6 -2 10 -12 10 -15 0 -16 2
-3 10 24 16 -14 13 -55 -4 -19 -8 -35 -11 -35 -6 0 4 6 11 13 13 6 3 3 6 -8 7
-19 1 -19 1 -2 14 16 12 16 14 1 20 -8 3 -16 5 -17 5 -1 -1 -11 -4 -22 -6z m5
-63 c-8 -5 -19 -10 -25 -10 -5 0 -3 5 5 10 8 5 20 10 25 10 6 0 3 -5 -5 -10z
m110 -50 c0 -5 -5 -10 -11 -10 -5 0 -7 5 -4 10 3 6 8 10 11 10 2 0 4 -4 4 -10z
m267 -20 c34 -18 36 -20 12 -20 -28 0 -79 21 -79 33 0 13 29 7 67 -13z m190
-6 c-3 -3 -12 -4 -19 -1 -8 3 -5 6 6 6 11 1 17 -2 13 -5z m-12 -164 c3 -5 -3
-10 -14 -10 -11 0 -23 5 -26 10 -3 6 3 10 14 10 11 0 23 -4 26 -10z m-188 -36
c-3 -3 -12 -4 -19 -1 -8 3 -5 6 6 6 11 1 17 -2 13 -5z m262 -58 c18 -22 -11
-41 -38 -24 -24 15 -26 24 -8 31 22 9 34 7 46 -7z m-1265 -173 c-4 -16 -12
-34 -20 -42 -11 -12 -13 -9 -12 18 1 18 8 36 17 41 22 13 22 13 15 -17z m1714
-144 c17 -2 39 -8 65 -18 31 -12 28 -31 -4 -31 -24 0 -80 52 -78 72 1 7 3 5 6
-4 2 -10 8 -18 11 -19z m112 -99 c0 -5 -6 -10 -14 -10 -8 0 -18 5 -21 10 -3 6
3 10 14 10 12 0 21 -4 21 -10z m37 -6 c-3 -3 -12 -4 -19 -1 -8 3 -5 6 6 6 11
1 17 -2 13 -5z m19 -51 c-3 -8 -1 -11 4 -8 6 3 10 1 10 -5 0 -6 4 -9 9 -5 5 3
12 1 16 -5 13 -21 -25 -21 -54 0 -30 21 -35 38 -16 52 13 10 37 -12 31 -29z
m54 -53 c0 -5 -4 -10 -10 -10 -5 0 -10 5 -10 10 0 6 5 10 10 10 6 0 10 -4 10
-10z m950 -94 c-14 -14 -24 0 -16 21 6 15 8 15 16 3 6 -9 5 -19 0 -24z m-925
-6 c3 -6 -1 -7 -9 -4 -18 7 -21 14 -7 14 6 0 13 -4 16 -10z m887 -45 c4 -5 8
-20 8 -31 0 -17 -7 -23 -30 -26 -29 -4 -34 1 -31 29 1 6 -3 14 -9 18 -5 3 -10
11 -10 16 0 13 62 7 72 -6z m-672 -24 c0 -20 6 -31 18 -35 26 -7 71 1 89 16
15 11 16 11 10 -5 -4 -11 -10 -29 -13 -42 -4 -16 -11 -21 -24 -18 -11 3 -16
11 -13 19 4 10 -3 14 -21 14 -16 0 -26 -6 -26 -15 0 -8 -4 -15 -10 -15 -5 0
-10 -11 -10 -25 0 -26 -1 -26 -49 2 -2 2 8 14 23 28 15 14 21 25 14 25 -7 0
-19 -9 -26 -20 -7 -11 -19 -20 -28 -20 -15 0 -15 2 1 26 12 19 13 29 5 38 -5
8 -7 21 -4 31 5 13 9 14 15 3 7 -10 9 -9 9 5 0 10 8 17 20 17 15 0 20 -7 20
-29z m36 -18 c-10 -10 -19 5 -10 18 6 11 8 11 12 0 2 -7 1 -15 -2 -18z m609
-92 c-6 -6 -23 -12 -40 -15 -16 -3 -36 -13 -42 -23 -12 -16 -13 -15 -13 3 1
10 17 31 37 47 33 25 38 26 52 12 10 -9 12 -18 6 -24z m-3115 7 c0 -18 -2 -20
-9 -8 -6 8 -7 18 -5 22 9 14 14 9 14 -14z m2237 0 c-3 -8 -6 -5 -6 6 -1 11 2
17 5 13 3 -3 4 -12 1 -19z m353 2 c0 -11 -4 -20 -9 -20 -5 0 -7 9 -4 20 3 11
7 20 9 20 2 0 4 -9 4 -20z m-64 -28 c11 2 20 -1 22 -7 1 -5 -6 -10 -16 -11
-21 -1 -72 -42 -72 -58 0 -6 5 -4 10 4 7 11 12 12 21 3 14 -14 4 -47 -11 -38
-5 3 -10 2 -10 -3 0 -5 -18 -16 -40 -25 -23 -9 -40 -22 -40 -31 0 -9 -5 -16
-10 -16 -6 0 -10 6 -8 13 2 6 -2 14 -7 16 -6 2 -20 -17 -33 -43 -21 -40 -43
-61 -42 -38 1 16 68 126 79 128 6 2 7 0 1 -3 -19 -9 -10 -23 15 -23 17 0 25 6
25 18 0 13 2 14 9 3 5 -7 14 -10 20 -6 9 5 9 10 1 20 -8 10 -8 20 1 37 6 13 8
20 4 16 -4 -4 -17 2 -27 15 -18 20 -18 22 -3 25 10 2 20 0 24 -6 11 -17 41 -9
41 11 0 15 3 17 14 8 7 -6 22 -10 32 -9z m-2496 -13 c0 -6 -4 -7 -10 -4 -5 3
-10 11 -10 16 0 6 5 7 10 4 6 -3 10 -11 10 -16z m2967 5 c-3 -3 -12 -4 -19 -1
-8 3 -5 6 6 6 11 1 17 -2 13 -5z m-790 -36 c-3 -8 -6 -5 -6 6 -1 11 2 17 5 13
3 -3 4 -12 1 -19z m167 -11 c-3 -8 -12 -18 -20 -21 -10 -4 -13 -2 -8 7 21 37
41 47 28 14z m-2354 6 c0 -5 -5 -15 -10 -23 -8 -12 -10 -11 -10 8 0 12 5 22
10 22 6 0 10 -3 10 -7z m3110 -9 c0 -17 -22 -14 -28 4 -2 7 3 12 12 12 9 0 16
-7 16 -16z m-570 -42 c0 -10 5 -23 12 -30 17 -17 3 -25 -21 -12 -20 10 -28 40
-14 53 12 13 23 7 23 -11z m535 -1 c7 -12 -12 -24 -25 -16 -11 7 -4 25 10 25
5 0 11 -4 15 -9z m121 -80 c14 -13 37 -24 53 -25 27 -1 28 -2 14 -18 -10 -11
-12 -18 -5 -18 7 0 12 -4 12 -10 0 -16 -27 -12 -34 5 -3 8 -16 15 -30 15 -21
0 -37 17 -40 43 -1 4 -7 11 -15 16 -11 7 -11 13 0 32 12 23 13 23 17 4 3 -11
15 -31 28 -44z m-696 26 c0 -27 -24 -64 -33 -51 -5 9 21 74 29 74 2 0 4 -10 4
-23z m592 -1 c4 -6 6 -17 3 -24 -3 -8 -5 -20 -5 -28 0 -8 -7 -14 -15 -14 -8 0
-15 5 -15 12 0 6 -7 4 -18 -5 -30 -27 -35 -19 -11 15 16 21 19 33 11 36 -7 2
-12 10 -12 18 0 11 7 13 28 8 15 -4 30 -12 34 -18z m-840 -39 c-12 -6 -22 -16
-22 -24 0 -7 -7 -13 -15 -13 -8 0 -15 -7 -15 -15 0 -9 -6 -12 -15 -9 -19 8
-20 -25 -2 -50 12 -16 14 -16 26 8 23 42 100 61 84 21 -9 -25 15 -17 33 10 19
29 39 33 31 8 -2 -10 -6 -25 -8 -32 -2 -8 -14 -25 -26 -37 -13 -12 -23 -26
-23 -32 0 -6 -12 -20 -27 -31 -22 -18 -24 -23 -12 -34 53 -45 57 -87 5 -46
-14 11 -26 16 -26 10 0 -6 -8 -11 -18 -11 -14 0 -17 -8 -18 -37 0 -21 -4 -47
-8 -58 -8 -17 -10 -15 -22 20 -7 22 -13 34 -13 28 -1 -18 -21 -16 -21 2 0 8 5
15 11 15 5 0 7 5 4 10 -4 6 -1 18 6 26 18 22 4 27 -29 10 l-31 -16 6 38 c6 42
29 74 41 56 11 -18 52 2 52 26 0 12 -5 18 -10 15 -6 -4 -8 -11 -5 -16 4 -5 4
-9 1 -9 -2 0 -13 -3 -23 -7 -16 -6 -16 -5 -4 10 12 15 11 17 -3 17 -9 0 -16
-4 -16 -10 0 -5 -5 -10 -11 -10 -11 0 -9 34 6 121 6 32 9 35 35 31 21 -3 32 2
46 21 16 20 23 23 39 14 19 -10 19 -10 -3 -20z m878 23 c0 -5 -5 -10 -11 -10
-5 0 -7 5 -4 10 3 6 8 10 11 10 2 0 4 -4 4 -10z m320 0 c0 -5 -4 -10 -10 -10
-5 0 -10 5 -10 10 0 6 5 10 10 10 6 0 10 -4 10 -10z m-1055 -20 c3 -5 1 -10
-4 -10 -6 0 -11 5 -11 10 0 6 2 10 4 10 3 0 8 -4 11 -10z m721 -55 c-4 -14
-11 -25 -17 -25 -6 0 -7 5 -2 13 8 12 10 18 12 39 0 6 4 9 7 5 4 -3 4 -18 0
-32z m-643 -30 c-3 -9 -8 -14 -10 -11 -3 3 -2 9 2 15 9 16 15 13 8 -4z m507 5
c0 -5 -5 -10 -11 -10 -5 0 -7 5 -4 10 3 6 8 10 11 10 2 0 4 -4 4 -10z m55 -20
c-3 -5 -10 -10 -16 -10 -5 0 -9 5 -9 10 0 6 7 10 16 10 8 0 12 -4 9 -10z m380
-30 c-8 -13 -35 -13 -35 0 0 6 6 17 13 24 10 12 13 12 20 0 4 -8 5 -19 2 -24z
m-702 -22 c6 -4 8 -10 4 -14 -13 -14 -38 21 -30 42 7 19 8 18 11 -1 3 -11 9
-23 15 -27z m782 12 c-4 -6 -10 -8 -15 -5 -5 3 -21 -6 -36 -20 -15 -14 -33
-25 -40 -25 -8 0 -14 -4 -14 -10 0 -5 -4 -10 -9 -10 -21 0 16 48 49 63 40 18
74 22 65 7z m-1135 -20 c0 -5 -2 -10 -4 -10 -3 0 -8 5 -11 10 -3 6 -1 10 4 10
6 0 11 -4 11 -10z m1075 -78 c-13 -13 -23 22 -12 40 11 17 12 17 15 -8 2 -14
1 -29 -3 -32z m-109 32 c-4 -10 -2 -14 6 -11 17 6 89 -34 82 -45 -3 -4 -10 -6
-15 -3 -5 4 -9 -10 -9 -30 0 -28 -5 -37 -24 -45 -14 -5 -30 -18 -36 -30 -15
-29 -26 -25 -35 13 -11 44 -8 68 13 84 13 11 14 13 2 12 -53 -5 -66 10 -25 29
14 6 25 18 25 27 0 8 5 15 11 15 6 0 8 -7 5 -16z m-272 -19 c-4 -8 -2 -15 4
-15 6 0 8 -9 5 -20 -5 -20 -23 -28 -23 -10 0 17 -27 11 -69 -17 -52 -34 -53
-50 -3 -44 18 3 15 -26 -4 -33 -49 -19 -63 12 -33 71 19 38 26 43 55 43 23 0
38 6 46 20 15 23 30 27 22 5z m96 -5 c0 -5 -5 -10 -11 -10 -5 0 -7 5 -4 10 3
6 8 10 11 10 2 0 4 -4 4 -10z m-507 -47 c-9 -92 -31 -108 -71 -53 -26 34 -29
48 -6 25 15 -15 17 -14 30 11 11 21 29 40 49 54 1 0 -1 -17 -2 -37z m901 28
c3 -5 -5 -16 -19 -25 -27 -18 -44 -5 -23 18 15 17 34 20 42 7z m-1085 -27 c-6
-8 -15 -14 -20 -14 -14 0 -11 28 4 33 20 7 29 -4 16 -19z m276 -4 c3 -5 1 -10
-4 -10 -6 0 -11 5 -11 10 0 6 2 10 4 10 3 0 8 -4 11 -10z m345 -38 c0 -15 -2
-15 -10 -2 -13 20 -13 33 0 25 6 -3 10 -14 10 -23z m-347 -29 c-4 -24 -11 -33
-24 -33 -12 0 -19 -7 -19 -20 0 -12 -7 -20 -16 -20 -9 0 -27 -9 -41 -20 -28
-22 -43 -25 -43 -10 0 17 40 51 51 44 8 -4 8 0 0 14 -9 16 -7 19 7 18 12 -1
16 6 14 23 -2 18 2 22 14 17 8 -3 25 1 37 9 26 18 26 18 20 -22z m297 11 c13
-33 13 -54 0 -54 -5 0 -10 9 -10 21 0 11 -5 29 -10 40 -8 13 -7 19 0 19 6 0
15 -12 20 -26z m90 -29 c0 -18 -5 -25 -20 -25 -21 0 -24 8 -14 34 10 25 34 19
34 -9z m-554 -1 c-3 -9 -6 -17 -6 -20 0 -2 -7 -1 -15 2 -12 5 -13 10 -4 20 16
19 33 18 25 -2z m-456 -18 c0 -3 -4 -8 -10 -11 -5 -3 -10 -1 -10 4 0 6 5 11
10 11 6 0 10 -2 10 -4z m16 -43 c-10 -10 -19 5 -10 18 6 11 8 11 12 0 2 -7 1
-15 -2 -18z m600 0 c-1 -19 -7 -27 -23 -29 -16 -3 -23 1 -23 12 0 10 6 14 15
11 8 -4 17 -2 20 3 4 6 0 10 -7 10 -9 0 -9 3 2 10 8 5 15 10 16 10 1 0 1 -12
0 -27z m308 19 c2 -4 -6 -9 -20 -10 -13 -1 -24 3 -24 8 0 12 37 14 44 2z m196
-6 c0 -3 -4 -8 -10 -11 -5 -3 -10 -1 -10 4 0 6 5 11 10 11 6 0 10 -2 10 -4z
m192 -11 c0 -5 -5 -11 -11 -13 -6 -2 -11 4 -11 13 0 9 5 15 11 13 6 -2 11 -8
11 -13z m-182 -45 c0 -14 -14 -12 -28 2 -19 19 -14 30 8 18 11 -6 20 -15 20
-20z m-330 1 c0 -5 -7 -14 -15 -21 -13 -10 -15 -9 -15 9 0 12 6 21 15 21 8 0
15 -4 15 -9z m381 -11 c25 -14 24 -36 -2 -50 -11 -7 -22 -10 -24 -8 -9 9 -8
68 1 68 3 0 14 -5 25 -10z m-925 -62 c13 -44 30 -45 55 -4 22 38 39 47 39 21
0 -8 -4 -15 -10 -15 -5 0 -10 -6 -10 -14 0 -11 10 -13 42 -9 31 5 39 3 33 -6
-4 -7 -15 -11 -25 -8 -9 2 -26 -1 -36 -7 -52 -29 -114 -3 -114 49 0 35 15 31
26 -7z m44 7 c0 -8 -7 -15 -15 -15 -16 0 -20 12 -8 23 11 12 23 8 23 -8z m890
-61 c0 -8 5 -14 10 -14 6 0 10 -8 10 -17 1 -17 1 -17 11 0 12 20 29 23 29 5 0
-7 -25 -25 -55 -40 -41 -20 -55 -23 -55 -12 0 8 8 14 18 14 26 0 50 18 35 28
-16 10 -30 68 -14 58 6 -4 11 -14 11 -22z m-1375 -23 c-3 -6 -11 -11 -16 -11
-5 0 -4 6 3 14 14 16 24 13 13 -3z m505 -6 c0 -16 46 -39 59 -30 5 2 8 -6 7
-18 -2 -34 -37 -34 -58 0 l-16 27 -13 -27 c-7 -15 -16 -27 -21 -27 -13 0 -9
16 7 30 8 7 15 16 15 21 0 10 -71 0 -84 -12 -16 -14 -26 -10 -26 10 0 20 26
36 34 22 7 -10 54 -2 62 10 9 15 34 10 34 -6z m687 -7 c-3 -8 -6 -5 -6 6 -1
11 2 17 5 13 3 -3 4 -12 1 -19z m-877 -48 c0 -5 -4 -10 -10 -10 -5 0 -10 5
-10 10 0 6 5 10 10 10 6 0 10 -4 10 -10z m1128 -40 c-14 -22 -24 -19 -15 5 4
8 11 15 17 15 6 0 6 -7 -2 -20z m-1143 -19 c-9 -16 -25 -3 -18 15 4 10 9 12
15 6 6 -6 7 -15 3 -21z m209 -6 c-4 -8 -11 -12 -16 -9 -6 4 -5 10 3 15 19 12
19 11 13 -6z m175 -26 c28 15 36 14 21 -4 -7 -8 -19 -15 -26 -15 -8 0 -14 -7
-14 -15 0 -8 5 -15 10 -15 6 0 10 -7 10 -16 0 -11 6 -15 20 -11 19 5 20 4 3
-24 -18 -30 -40 -40 -29 -14 7 19 -14 66 -25 59 -5 -3 -6 2 -3 10 7 19 0 20
-26 6 -16 -8 -18 -8 -14 5 4 8 11 15 16 15 6 0 8 9 5 21 -5 20 -5 20 13 4 14
-13 23 -14 39 -6z m-345 -41 c-4 -56 -5 -58 -14 -28 -13 39 -11 70 3 70 9 0
13 -13 11 -42z m46 6 c-6 -14 -6 -23 -2 -20 10 6 57 -62 49 -71 -4 -3 -23 10
-42 30 -40 41 -48 87 -15 87 17 0 18 -3 10 -26z m730 17 c0 -6 -4 -13 -10 -16
-5 -3 -10 1 -10 9 0 9 5 16 10 16 6 0 10 -4 10 -9z m-260 -56 c0 -8 -4 -15
-10 -15 -5 0 -10 7 -10 15 0 8 5 15 10 15 6 0 10 -7 10 -15z m130 -5 c-6 -11
-13 -20 -15 -20 -3 0 -5 9 -5 20 0 11 7 20 15 20 13 0 14 -4 5 -20z m132 -20
c17 0 19 -4 13 -30 -4 -19 -3 -30 4 -30 6 0 11 -9 11 -20 0 -13 5 -18 15 -14
9 4 15 0 15 -9 0 -9 -8 -18 -17 -20 -14 -4 -13 -5 4 -6 15 -1 21 -6 17 -15
-10 -25 -35 -27 -53 -4 -18 22 -18 21 -13 -11 l5 -33 -42 22 c-40 20 -42 23
-39 62 4 51 23 60 34 16 8 -31 9 -29 14 27 4 33 2 63 -3 66 -6 4 -6 13 -1 20
7 11 9 10 12 -3 2 -10 12 -18 24 -18z m108 20 c0 -5 -5 -10 -11 -10 -5 0 -7 5
-4 10 3 6 8 10 11 10 2 0 4 -4 4 -10z m-656 -20 c4 -5 -2 -13 -14 -20 -12 -6
-24 -9 -28 -6 -3 3 0 6 6 6 7 0 12 5 12 10 0 6 -7 10 -15 10 -8 0 -15 5 -15
11 0 11 38 3 54 -11z m376 10 c0 -5 -5 -10 -11 -10 -5 0 -7 5 -4 10 3 6 8 10
11 10 2 0 4 -4 4 -10z m235 -10 c-3 -5 -11 -10 -16 -10 -6 0 -7 5 -4 10 3 6
11 10 16 10 6 0 7 -4 4 -10z m-395 -15 c0 -8 -7 -15 -15 -15 -16 0 -20 12 -8
23 11 12 23 8 23 -8z m-132 -6 c-10 -5 -18 -19 -18 -29 0 -13 -12 -25 -36 -35
-46 -19 -60 -19 -44 0 7 8 23 15 36 15 18 0 24 5 24 23 0 29 7 37 34 37 19 -1
19 -2 4 -11z m330 -1 c-6 -18 -28 -21 -28 -4 0 9 7 16 16 16 9 0 14 -5 12 -12z
m-501 -34 c-7 -37 39 -113 65 -106 10 2 18 9 18 14 0 5 8 7 19 3 10 -3 24 1
31 10 14 17 30 20 30 5 0 -6 -11 -16 -25 -22 -14 -6 -25 -17 -25 -24 0 -7 -6
-11 -14 -8 -8 3 -17 0 -22 -7 -4 -7 -2 -15 4 -17 7 -2 19 -17 27 -33 10 -19
20 -26 31 -22 8 3 13 12 10 20 -4 9 -2 11 7 6 32 -20 47 -13 47 20 0 23 8 41
25 57 26 24 33 14 15 -21 -9 -16 -7 -19 10 -19 21 0 27 -14 10 -25 -15 -9 -12
-25 4 -19 23 9 28 -14 9 -46 -10 -18 -24 -29 -35 -28 -9 2 -23 -6 -31 -16 -10
-14 -19 -17 -33 -11 -17 7 -18 8 -1 12 18 5 24 33 7 33 -5 0 -10 7 -10 15 0 8
-5 15 -11 15 -7 0 -9 -10 -5 -26 5 -17 3 -23 -4 -19 -5 3 -10 -1 -10 -9 0 -9
-6 -15 -12 -13 -8 1 -14 -11 -16 -28 l-4 -30 24 21 c30 27 57 21 50 -11 -3
-17 4 -31 21 -47 14 -13 29 -37 33 -52 4 -18 9 -24 14 -16 4 7 5 22 2 34 l-5
21 20 -20 c24 -25 36 -65 20 -65 -9 0 -9 -2 -1 -8 6 -4 14 -14 17 -22 3 -9 6
-6 6 10 2 33 18 59 29 44 4 -6 19 -14 33 -17 15 -4 29 -16 32 -28 7 -27 31
-20 35 10 5 33 -15 51 -49 44 -18 -3 -29 -1 -29 6 0 7 -9 9 -27 4 l-28 -6 30
33 c17 18 40 44 52 57 16 17 18 23 8 23 -18 0 -20 31 -3 48 7 7 17 8 30 1 12
-6 25 -6 38 1 23 12 25 7 10 -21 -6 -11 -7 -19 -1 -19 5 0 12 11 15 25 6 24
26 36 26 15 0 -5 -4 -10 -10 -10 -5 0 -10 -4 -10 -10 0 -5 7 -10 15 -10 21 0
19 -29 -2 -37 -26 -10 -45 -31 -38 -42 3 -6 13 -7 21 -4 12 4 15 1 12 -13 -2
-10 -11 -18 -20 -18 -10 1 -14 -4 -11 -12 3 -8 0 -20 -6 -28 -8 -10 -5 -16 15
-25 21 -9 24 -14 14 -26 -7 -8 -16 -13 -20 -10 -4 3 -10 -1 -13 -9 -3 -8 1
-17 9 -20 18 -7 18 -36 -1 -36 -9 0 -12 6 -8 16 5 14 3 14 -16 2 -18 -11 -23
-11 -30 0 -7 11 -11 10 -25 -3 -22 -22 -21 -23 14 -19 17 2 30 0 30 -4 -1 -18
-18 -28 -50 -27 -40 1 -61 -10 -54 -30 3 -7 1 -15 -4 -19 -5 -3 -9 13 -10 35
-2 49 -21 90 -22 47 0 -21 -4 -26 -19 -23 -13 2 -21 -3 -24 -17 -7 -24 -43
-20 -41 5 1 9 -2 14 -7 11 -9 -5 -10 -2 -14 79 -2 38 0 47 14 47 9 1 0 9 -19
20 -27 14 -38 16 -49 7 -11 -9 -13 -9 -8 0 9 15 -2 63 -14 63 -4 0 -19 -12
-33 -26 -17 -19 -31 -25 -45 -21 -15 4 -21 0 -21 -11 0 -13 -2 -13 -14 3 -8
11 -12 25 -9 32 4 9 0 11 -11 7 -12 -4 -16 0 -16 15 0 12 6 21 15 21 8 0 15 4
15 10 0 5 7 7 15 4 10 -4 15 0 15 14 0 14 10 24 35 32 19 6 35 17 35 24 0 25
-42 9 -85 -32 -41 -38 -45 -40 -45 -20 0 13 9 34 20 48 11 14 20 31 20 38 0 7
5 10 10 7 6 -3 10 3 10 14 0 12 7 21 16 21 8 0 12 5 9 11 -4 6 1 17 11 24 18
14 18 14 -4 15 -13 0 -22 5 -20 13 4 21 -22 85 -37 91 -8 3 -15 12 -15 21 0 8
-4 15 -10 15 -5 0 -10 7 -10 16 0 10 6 14 15 10 9 -3 15 0 15 9 0 8 3 15 6 15
4 0 4 -12 1 -26z m228 6 c4 -6 -7 -10 -25 -10 -18 0 -29 4 -25 10 3 6 15 10
25 10 10 0 22 -4 25 -10z m315 -3 c0 -7 -6 -22 -14 -33 -14 -18 -16 -18 -32
-2 -14 14 -15 20 -4 32 15 19 50 21 50 3z m-156 -13 c20 -8 21 -34 1 -34 -8 0
-15 -8 -15 -18 0 -15 6 -18 30 -14 34 5 39 -4 13 -24 -17 -12 -16 -13 6 -22
19 -7 21 -10 8 -15 -24 -9 -77 15 -77 35 0 10 -4 18 -10 18 -13 0 -13 -6 0
-31 8 -14 7 -19 -2 -19 -16 0 -39 47 -31 66 6 17 -1 18 -28 4 -16 -9 -19 -7
-19 9 0 23 42 36 69 21 15 -8 20 -6 24 10 6 22 8 23 31 14z m-144 -31 c-8 -3
-24 -10 -35 -16 -18 -9 -19 -9 -6 6 7 10 23 17 35 16 14 0 16 -2 6 -6z m-30
-43 c0 -5 -8 -10 -17 -10 -15 0 -16 2 -3 10 19 12 20 12 20 0z m280 -25 c0 -8
-4 -15 -10 -15 -5 0 -10 7 -10 15 0 8 5 15 10 15 6 0 10 -7 10 -15z m-106 -31
c9 -3 16 -13 16 -21 0 -8 -4 -12 -8 -9 -4 2 -13 -4 -20 -14 -10 -17 -9 -20 12
-26 14 -3 29 -3 34 0 9 6 22 -15 22 -35 0 -16 -26 -10 -45 11 -10 11 -23 20
-29 20 -7 0 -11 17 -11 40 0 41 2 44 29 34z m-202 -19 c0 -5 -5 -11 -11 -13
-6 -2 -11 4 -11 13 0 9 5 15 11 13 6 -2 11 -8 11 -13z m294 -30 c-5 -18 -2
-25 9 -25 8 0 15 -7 15 -15 0 -19 -29 -20 -36 0 -4 8 -9 13 -13 11 -3 -2 -6 9
-7 25 -1 23 3 29 19 29 15 0 18 -5 13 -25z m34 9 c0 -8 -4 -12 -10 -9 -5 3
-10 10 -10 16 0 5 5 9 10 9 6 0 10 -7 10 -16z m-504 -21 c-7 -7 -26 7 -26 19
0 6 6 6 15 -2 9 -7 13 -15 11 -17z m602 -3 c2 -13 11 -29 19 -36 10 -7 13 -16
8 -24 -5 -8 -4 -11 3 -6 6 3 13 2 16 -3 9 -14 -4 -41 -20 -41 -16 0 -37 46
-28 61 3 5 -6 9 -19 9 -25 0 -39 29 -29 58 7 23 47 9 50 -18z m-614 -35 c-4
-8 -10 -15 -15 -15 -4 0 -6 7 -3 15 4 8 10 15 15 15 4 0 6 -7 3 -15z m711 -22
c13 -19 12 -20 -13 -17 -38 3 -40 4 -17 14 19 8 19 9 -2 9 -13 1 -23 5 -23 11
0 17 40 5 55 -17z m-850 7 c-3 -5 -11 -10 -16 -10 -6 0 -7 5 -4 10 3 6 11 10
16 10 6 0 7 -4 4 -10z m735 -11 c0 -9 -36 -49 -45 -49 -7 0 -6 55 1 62 8 8 44
-3 44 -13z m-221 -54 c8 -4 8 -12 1 -26 -15 -27 -28 -24 -32 9 -2 22 -8 28
-35 30 -18 2 -33 7 -33 12 0 5 13 7 29 4 18 -4 32 -1 36 7 6 9 10 7 16 -8 4
-12 12 -24 18 -28z m-105 -18 c53 -30 57 -47 11 -47 -41 0 -81 30 -72 54 8 21
14 20 61 -7z m396 4 c0 -6 -4 -13 -10 -16 -5 -3 -10 1 -10 9 0 9 5 16 10 16 6
0 10 -4 10 -9z m-72 -13 c-6 -18 -28 -21 -28 -4 0 9 7 16 16 16 9 0 14 -5 12
-12z m182 -4 c0 -23 -20 -55 -31 -49 -10 7 -12 48 -2 58 12 13 33 7 33 -9z
m-230 -21 c0 -7 7 -10 15 -7 9 4 15 0 15 -9 0 -26 -24 -25 -46 2 -21 25 -21
27 -3 27 10 0 19 -6 19 -13z m-560 -89 c6 -33 31 -39 42 -11 5 12 16 17 30 15
19 -2 22 -8 20 -33 -6 -60 -9 -101 -11 -140 l-1 -41 -59 -1 c-48 -2 -59 1 -55
12 8 21 74 31 85 14 15 -24 22 -1 14 48 -4 26 -10 42 -12 36 -3 -7 -9 -13 -15
-13 -5 0 -27 -18 -49 -41 -41 -42 -42 -42 -39 5 1 23 -2 28 -14 23 -13 -5 -15
-1 -10 21 10 49 14 53 36 50 25 -3 26 7 12 66 -5 22 -4 28 7 24 8 -3 16 -18
19 -34z m-65 -4 c0 -9 -11 -15 -27 -17 -27 -2 -37 14 -21 31 12 12 48 2 48
-14z m599 6 c-3 -8 -14 -14 -25 -13 -26 2 -24 15 4 20 12 2 23 5 24 6 1 0 0
-5 -3 -13z m-403 -13 c1 -10 3 -28 4 -40 1 -13 -4 -31 -11 -40 -12 -16 -15
-16 -23 -3 -7 10 -5 20 6 32 10 11 13 26 9 43 -4 14 -2 25 4 25 5 0 11 -8 11
-17z m517 -28 c1 -22 -2 -25 -28 -25 -36 0 -41 26 -7 40 32 13 32 12 35 -15z
m34 -69 c6 -14 20 -27 32 -29 17 -3 16 -5 -5 -6 -15 0 -29 -8 -32 -15 -5 -11
-16 -13 -44 -9 -64 11 -82 62 -20 61 17 -1 33 4 35 10 6 20 22 14 34 -12z
m-551 -51 c-1 -15 -24 -12 -29 3 -3 9 2 13 12 10 10 -1 17 -7 17 -13z m287
-27 c-5 -15 -58 -24 -58 -9 0 9 20 17 48 20 8 0 12 -5 10 -11z m-1232 -80 c0
-29 2 -81 5 -115 4 -55 -3 -85 -16 -72 -15 16 -12 239 4 239 3 0 6 -24 7 -52z
m1154 27 c0 -8 -4 -15 -9 -15 -5 0 -11 7 -15 15 -3 9 0 15 9 15 8 0 15 -7 15
-15z m60 5 c0 -5 -4 -10 -10 -10 -5 0 -10 5 -10 10 0 6 5 10 10 10 6 0 10 -4
10 -10z m-200 -47 c0 -9 3 -13 7 -10 9 9 34 -13 27 -24 -10 -17 -29 -9 -41 18
-16 33 -16 46 -3 38 6 -3 10 -13 10 -22z m90 18 c0 -5 -7 -14 -15 -21 -16 -14
-18 -10 -9 14 6 17 24 22 24 7z m50 -21 c0 -5 -7 -10 -15 -10 -8 0 -15 5 -15
10 0 6 7 10 15 10 8 0 15 -4 15 -10z m-2523 -72 c-3 -8 -6 -5 -6 6 -1 11 2 17
5 13 3 -3 4 -12 1 -19z m-287 -17 c0 -6 -4 -13 -10 -16 -5 -3 -10 1 -10 9 0 9
5 16 10 16 6 0 10 -4 10 -9z m-30 -5 c0 -3 -4 -8 -10 -11 -5 -3 -10 -1 -10 4
0 6 5 11 10 11 6 0 10 -2 10 -4z m-90 -15 c0 -5 -12 -11 -27 -14 -26 -5 -26
-4 -8 9 22 16 35 18 35 5z m-165 -81 c3 -5 2 -10 -4 -10 -5 0 -13 5 -16 10 -3
6 -2 10 4 10 5 0 13 -4 16 -10z m3179 -42 c-5 -7 -7 -21 -6 -30 6 -32 -15 -19
-22 14 -4 21 -2 34 6 39 17 11 32 -6 22 -23z m-3338 -15 c-10 -10 -19 5 -10
18 6 11 8 11 12 0 2 -7 1 -15 -2 -18z m3164 17 c0 -5 -5 -10 -11 -10 -5 0 -7
5 -4 10 3 6 8 10 11 10 2 0 4 -4 4 -10z m95 -21 c-5 -13 -2 -19 10 -19 11 0
15 -7 13 -22 -3 -26 -38 -38 -38 -14 0 10 -6 13 -15 10 -19 -8 -19 -5 0 40 16
37 41 41 30 5z m-550 -27 c-3 -3 -11 0 -18 7 -9 10 -8 11 6 5 10 -3 15 -9 12
-12z m-2991 -47 c15 -23 22 -51 33 -140 3 -22 9 -42 13 -45 13 -8 38 -193 29
-220 -7 -25 -7 -25 -8 5 -1 25 -14 87 -48 225 -3 14 -10 28 -14 31 -5 3 -10
17 -11 32 -1 15 -6 27 -11 27 -5 0 -7 15 -3 33 4 22 3 27 -3 17 -8 -11 -12 -9
-20 13 -15 38 -14 43 8 44 11 1 27 -9 35 -22z m3224 -61 c25 -7 25 -27 -1 -32
-11 -2 -17 3 -17 13 0 13 -6 16 -24 11 -14 -3 -28 -2 -31 4 -7 11 37 13 73 4z
m72 -34 c0 -5 -9 -10 -20 -10 -11 0 -20 5 -20 10 0 6 9 10 20 10 11 0 20 -4
20 -10z m115 -29 c-5 -8 29 -39 61 -55 16 -9 19 -16 13 -34 -15 -41 -57 -23
-68 29 -4 19 -13 33 -20 31 -7 -1 -34 -4 -60 -6 -47 -4 -48 -4 -43 21 5 24 6
25 18 9 15 -21 49 -17 48 5 -1 11 6 14 27 11 16 -2 27 -7 24 -11z m259 -208
c-17 -17 -18 -17 -11 0 4 10 7 24 7 30 0 8 3 8 11 0 9 -9 7 -16 -7 -30z
m-3587 -125 c-3 -8 -6 -5 -6 6 -1 11 2 17 5 13 3 -3 4 -12 1 -19z m3443 -23
c0 -8 -4 -15 -9 -15 -5 0 -7 -9 -4 -20 3 -12 -1 -22 -11 -26 -9 -3 -13 -11
-10 -16 7 -11 -13 -28 -33 -28 -9 0 -6 11 7 35 11 20 20 41 20 48 0 14 20 37
32 37 4 0 8 -7 8 -15z m100 -9 c0 -2 -7 -7 -16 -10 -8 -3 -12 -2 -9 4 6 10 25
14 25 6z m-3543 -68 c-3 -7 -5 -2 -5 12 0 14 2 19 5 13 2 -7 2 -19 0 -25z
m3743 -8 c0 -5 -7 -7 -15 -4 -8 4 -15 8 -15 10 0 2 7 4 15 4 8 0 15 -4 15 -10z
m-4090 -28 c0 -15 -2 -15 -10 -2 -13 20 -13 33 0 25 6 -3 10 -14 10 -23z
m3730 -22 c-6 -11 -15 -18 -21 -14 -6 4 -6 11 2 20 17 21 31 17 19 -6z m-35
-80 c-3 -5 -10 -10 -16 -10 -5 0 -9 5 -9 10 0 6 7 10 16 10 8 0 12 -4 9 -10z
m-3780 -211 c11 -17 -1 -21 -15 -4 -8 9 -8 15 -2 15 6 0 14 -5 17 -11z"/>
<path d="M3872 3420 c0 -14 2 -19 5 -12 2 6 2 18 0 25 -3 6 -5 1 -5 -13z"/>
<path d="M3690 3010 c0 -5 5 -10 10 -10 6 0 10 5 10 10 0 6 -4 10 -10 10 -5 0
-10 -4 -10 -10z"/>
<path d="M3710 2969 c0 -6 -9 -9 -20 -6 -11 3 -20 1 -20 -4 0 -15 40 -10 56 6
14 13 14 15 0 15 -9 0 -16 -5 -16 -11z"/>
<path d="M3655 2909 c-12 -18 1 -20 36 -5 l34 15 -32 1 c-17 0 -35 -5 -38 -11z"/>
<path d="M4774 2836 c-3 -14 -1 -33 6 -43 10 -16 10 -14 6 9 -4 15 -2 30 4 33
13 8 13 25 0 25 -5 0 -12 -11 -16 -24z"/>
<path d="M4077 1953 c-4 -3 -7 -11 -7 -17 0 -6 5 -5 12 2 6 6 9 14 7 17 -3 3
-9 2 -12 -2z"/>
<path d="M4252 1786 c-9 -21 -8 -24 14 -29 16 -3 24 0 24 9 0 8 -4 14 -10 14
-5 0 -7 7 -4 15 10 25 -12 17 -24 -9z"/>
<path d="M3863 1643 c9 -9 19 -14 23 -11 10 10 -6 28 -24 28 -15 0 -15 -1 1
-17z"/>
<path d="M4074 919 c-3 -6 -1 -16 4 -21 8 -8 11 -5 9 11 -1 24 -3 25 -13 10z"/>
<path d="M3910 4108 l-94 -83 75 -5 c109 -8 106 -10 114 75 4 40 5 79 3 85 -2
6 -46 -26 -98 -72z"/>
<path d="M3783 3987 c-5 -7 -12 -25 -18 -42 -7 -22 -17 -31 -37 -33 -14 -2
-31 -9 -36 -15 -8 -9 3 -12 41 -13 29 -1 44 1 35 3 -22 6 -12 33 13 33 10 0
19 5 19 11 0 6 8 8 19 4 10 -3 24 1 31 10 24 28 32 15 11 -19 -27 -43 -26 -46
5 -46 22 0 25 2 14 15 -10 12 -10 18 0 30 10 12 15 12 35 -1 20 -13 26 -13 54
3 35 20 44 63 14 63 -10 0 -57 2 -105 4 -60 3 -90 1 -95 -7z"/>
<path d="M3964 3895 c-19 -14 -18 -14 4 -15 13 0 22 6 22 15 0 19 -1 19 -26 0z"/>
<path d="M90 3784 c0 -8 9 -14 21 -14 11 0 19 5 17 12 -6 17 -38 19 -38 2z"/>
<path d="M3580 3773 c0 -9 40 -36 45 -31 2 2 -8 11 -21 21 -13 10 -24 14 -24
10z"/>
<path d="M3628 3723 c6 -2 12 -16 12 -29 0 -13 5 -24 10 -24 6 0 10 8 10 18 0
20 -19 42 -34 41 -6 0 -5 -3 2 -6z"/>
<path d="M840 3620 c0 -5 5 -10 10 -10 6 0 10 5 10 10 0 6 -4 10 -10 10 -5 0
-10 -4 -10 -10z"/>
<path d="M4501 3569 c-13 -5 -22 -12 -19 -15 3 -3 21 2 39 10 37 16 19 21 -20
5z"/>
<path d="M4377 3546 c-6 -16 2 -28 14 -20 12 7 11 34 0 34 -5 0 -11 -6 -14
-14z"/>
<path d="M4210 3530 c0 -5 5 -10 10 -10 6 0 10 5 10 10 0 6 -4 10 -10 10 -5 0
-10 -4 -10 -10z"/>
<path d="M4267 3519 c-15 -9 -16 -13 -6 -26 11 -12 10 -14 -7 -11 -14 2 -20
-4 -22 -21 -2 -15 0 -21 7 -17 16 11 13 0 -6 -19 -9 -10 -18 -29 -19 -44 -2
-14 -5 -35 -8 -46 -5 -18 -1 -20 34 -17 36 4 39 6 34 28 -8 32 13 59 32 43 12
-10 12 -14 -3 -24 -11 -8 -14 -18 -9 -31 6 -16 9 -16 17 -4 8 13 10 13 19 0 7
-11 8 -6 4 17 -5 23 0 41 14 65 15 24 18 38 11 50 -7 12 -5 20 8 27 16 9 16
10 2 11 -17 0 -29 -19 -29 -47 0 -24 -25 -41 -53 -36 -20 4 -27 11 -27 29 0
13 7 27 16 32 9 5 14 18 12 30 -2 17 -6 19 -21 11z"/>
<path d="M4675 3505 c-3 -14 -7 -36 -10 -49 -3 -14 -12 -31 -20 -40 -20 -19
-19 -26 4 -26 24 0 36 16 51 67 11 36 11 44 -3 58 -15 15 -17 14 -22 -10z"/>
<path d="M4144 3475 c-7 -28 -14 -31 -32 -13 -9 9 -12 5 -11 -17 0 -17 4 -39
9 -50 6 -17 9 -17 14 -5 4 9 16 16 28 17 25 2 64 37 71 65 5 17 2 19 -18 14
-13 -3 -27 -2 -30 4 -11 17 -24 11 -31 -15z m46 -15 c0 -5 -4 -10 -10 -10 -5
0 -10 5 -10 10 0 6 5 10 10 10 6 0 10 -4 10 -10z"/>
<path d="M4925 3459 c-9 -17 -14 -38 -12 -47 4 -15 5 -15 6 1 1 10 9 17 21 17
11 0 20 5 20 10 0 6 -5 10 -11 10 -6 0 -9 9 -6 20 7 29 0 25 -18 -11z"/>
<path d="M4740 3468 c0 -7 5 -20 11 -28 9 -13 10 -13 6 1 -3 9 0 22 6 28 8 8
7 11 -6 11 -9 0 -17 -6 -17 -12z"/>
<path d="M4881 3454 c0 -11 3 -14 6 -6 3 7 2 16 -1 19 -3 4 -6 -2 -5 -13z"/>
<path d="M105 3450 c-3 -6 1 -7 9 -4 18 7 21 14 7 14 -6 0 -13 -4 -16 -10z"/>
<path d="M4805 3450 c3 -5 8 -10 11 -10 2 0 4 5 4 10 0 6 -5 10 -11 10 -5 0
-7 -4 -4 -10z"/>
<path d="M4776 3415 c-4 -11 1 -15 21 -15 14 0 24 1 22 3 -2 1 -11 8 -20 15
-14 10 -18 10 -23 -3z"/>
<path d="M1141 3364 c0 -11 3 -14 6 -6 3 7 2 16 -1 19 -3 4 -6 -2 -5 -13z"/>
<path d="M4985 3360 c3 -5 8 -10 11 -10 2 0 4 5 4 10 0 6 -5 10 -11 10 -5 0
-7 -4 -4 -10z"/>
<path d="M4760 3349 c0 -5 5 -7 10 -4 6 3 10 8 10 11 0 2 -4 4 -10 4 -5 0 -10
-5 -10 -11z"/>
<path d="M4128 3325 c2 -14 8 -28 13 -31 10 -6 11 2 3 34 -9 30 -22 28 -16 -3z"/>
<path d="M4753 3315 c-3 -9 -3 -18 0 -22 10 -10 37 6 37 22 0 20 -29 20 -37 0z"/>
<path d="M4096 3293 c-12 -12 -6 -33 9 -33 8 0 15 6 15 14 0 17 -14 28 -24 19z"/>
<path d="M4340 3284 c0 -8 5 -12 10 -9 6 3 10 10 10 16 0 5 -4 9 -10 9 -5 0
-10 -7 -10 -16z"/>
<path d="M4720 3260 c0 -13 5 -18 15 -14 8 4 15 10 15 14 0 4 -7 10 -15 14
-10 4 -15 -1 -15 -14z"/>
<path d="M4091 3214 c-13 -13 -21 -27 -18 -31 4 -3 7 0 7 8 1 10 3 9 11 -3 18
-31 39 -22 39 17 0 40 -6 42 -39 9z"/>
<path d="M1411 3064 c0 -11 3 -14 6 -6 3 7 2 16 -1 19 -3 4 -6 -2 -5 -13z"/>
<path d="M1422 2970 c0 -19 2 -27 5 -17 2 9 2 25 0 35 -3 9 -5 1 -5 -18z"/>
<path d="M1741 2886 c-10 -12 -10 -16 -2 -16 7 0 9 -4 6 -10 -3 -6 4 -10 16
-10 22 0 22 0 3 -15 -19 -14 -19 -14 1 -16 27 -3 37 -5 55 -12 8 -3 24 -7 34
-9 11 -2 21 -9 24 -16 2 -8 -2 -10 -14 -5 -10 4 -22 0 -29 -11 -7 -9 -17 -16
-21 -15 -5 1 -16 0 -24 -4 -8 -3 -31 -10 -51 -17 -41 -12 -118 -74 -107 -85 4
-4 25 8 47 28 29 27 52 37 88 42 26 3 57 8 68 9 11 2 31 0 45 -4 24 -8 24 -8
-5 -9 -64 -2 -167 -38 -199 -70 -40 -41 -15 -42 45 -1 50 34 73 37 96 14 13
-12 13 -18 4 -24 -10 -6 -10 -12 0 -29 11 -17 24 -21 74 -22 54 -2 116 -1 168
0 30 1 8 21 -24 21 -16 0 -29 4 -29 10 0 5 13 7 29 4 23 -5 29 -2 34 15 3 13
13 21 26 21 27 0 28 29 1 62 -19 25 -19 25 1 47 42 45 22 62 -136 109 -118 35
-195 41 -196 14 0 -15 -1 -15 -8 1 -6 17 -8 17 -20 3z m64 -16 c3 -5 1 -10 -4
-10 -6 0 -11 5 -11 10 0 6 2 10 4 10 3 0 8 -4 11 -10z m55 -200 c0 -5 -7 -10
-16 -10 -8 0 -12 5 -9 10 3 6 10 10 16 10 5 0 9 -4 9 -10z m136 -59 c-9 -13
-36 -15 -36 -2 0 5 3 17 6 26 6 15 8 15 22 2 8 -8 11 -20 8 -26z"/>
<path d="M2801 2881 c-1 -9 -9 -11 -23 -8 -13 4 -50 2 -83 -3 -33 -6 -78 -13
-100 -16 -49 -8 -145 -52 -145 -67 0 -7 -4 -7 -12 1 -7 7 -20 12 -29 12 -18 0
-49 -40 -49 -63 0 -8 -6 -20 -14 -26 -20 -17 -28 -85 -14 -128 11 -38 57 -73
93 -73 8 0 15 -4 15 -10 0 -5 5 -10 11 -10 5 0 7 5 3 12 -5 8 -2 9 10 5 12 -5
16 -3 14 5 -10 30 21 41 105 35 l82 -5 -54 17 c-50 15 -52 17 -35 32 23 20 59
39 73 39 6 0 11 -12 11 -27 1 -51 24 -68 91 -68 58 0 60 0 33 -12 -18 -8 -52
-11 -89 -8 l-60 4 45 -15 c76 -25 191 -29 268 -10 91 24 129 45 138 75 10 36
6 51 -24 90 -14 19 -20 31 -14 27 8 -5 12 0 12 13 0 12 -3 21 -7 21 -5 0 -9
11 -9 25 -1 14 2 25 7 25 23 0 4 27 -34 51 -84 53 -108 61 -158 57 -30 -3 -50
-1 -53 6 -3 6 -5 5 -5 -3z m144 -112 c5 -6 2 -9 -10 -10 -12 0 -7 -5 13 -10
37 -11 47 -49 11 -49 -13 0 -18 4 -13 11 5 9 -2 10 -22 6 -41 -9 -144 -15
-175 -10 -20 4 -25 10 -22 27 3 16 18 26 56 38 54 17 143 16 162 -3z m-225
-29 c0 -5 -5 -10 -11 -10 -5 0 -7 5 -4 10 3 6 8 10 11 10 2 0 4 -4 4 -10z m19
-56 c56 -11 33 -24 -45 -24 -48 0 -73 4 -69 10 4 6 10 8 14 6 4 -3 13 -1 21 5
18 10 37 11 79 3z m-34 -54 c-3 -5 -10 -10 -16 -10 -5 0 -9 5 -9 10 0 6 7 10
16 10 8 0 12 -4 9 -10z m-195 -24 c0 -3 -4 -8 -10 -11 -5 -3 -10 -1 -10 4 0 6
5 11 10 11 6 0 10 -2 10 -4z m335 -36 c-3 -5 -10 -10 -16 -10 -5 0 -9 5 -9 10
0 6 7 10 16 10 8 0 12 -4 9 -10z"/>
<path d="M4526 2633 c-6 -14 -5 -15 5 -6 7 7 10 15 7 18 -3 3 -9 -2 -12 -12z"/>
<path d="M1986 2562 c-2 -4 -26 -7 -53 -6 -26 1 -53 -2 -60 -8 -7 -5 -17 -7
-22 -4 -5 4 -13 1 -17 -5 -7 -12 31 -9 96 6 14 3 5 -4 -20 -15 -43 -20 -38
-20 36 -1 44 11 69 27 56 35 -6 3 -13 3 -16 -2z"/>
<path d="M4856 2555 c4 -8 8 -15 10 -15 2 0 4 7 4 15 0 8 -4 15 -10 15 -5 0
-7 -7 -4 -15z"/>
<path d="M4955 2542 c-16 -10 -31 -17 -33 -18 -10 -4 15 -37 37 -49 l26 -14
-28 -1 c-28 0 -28 -1 -21 -47 4 -27 11 -59 16 -72 5 -14 6 -38 3 -55 l-7 -31
26 27 c34 35 36 93 5 101 -12 3 -18 10 -14 17 4 6 13 9 19 7 9 -4 13 7 14 34
1 29 -4 45 -21 62 l-22 22 23 3 c12 2 22 10 22 18 0 17 -7 17 -45 -4z"/>
<path d="M2608 2523 c7 -3 16 -2 19 1 4 3 -2 6 -13 5 -11 0 -14 -3 -6 -6z"/>
<path d="M4433 2500 c0 -35 22 -41 30 -8 7 25 1 38 -17 38 -7 0 -13 -12 -13
-30z"/>
<path d="M3542 2470 c0 -14 2 -19 5 -12 2 6 2 18 0 25 -3 6 -5 1 -5 -13z"/>
<path d="M2808 2443 c7 -3 16 -2 19 1 4 3 -2 6 -13 5 -11 0 -14 -3 -6 -6z"/>
<path d="M4430 2409 c0 -5 5 -7 10 -4 6 3 10 8 10 11 0 2 -4 4 -10 4 -5 0 -10
-5 -10 -11z"/>
<path d="M4630 2340 c0 -5 5 -10 11 -10 5 0 7 5 4 10 -3 6 -8 10 -11 10 -2 0
-4 -4 -4 -10z"/>
<path d="M4992 2260 c0 -14 2 -19 5 -12 2 6 2 18 0 25 -3 6 -5 1 -5 -13z"/>
<path d="M4620 2230 c0 -11 4 -20 9 -20 5 0 11 9 14 20 3 13 0 20 -9 20 -8 0
-14 -9 -14 -20z"/>
<path d="M4710 2214 c0 -8 5 -12 10 -9 6 3 10 10 10 16 0 5 -4 9 -10 9 -5 0
-10 -7 -10 -16z"/>
<path d="M1839 2142 c-36 -37 -74 -80 -83 -95 -22 -36 -26 -114 -7 -126 7 -5
11 -13 8 -18 -10 -15 9 -36 24 -27 8 5 22 7 32 6 16 -3 18 3 16 53 -2 39 2 59
11 65 10 6 7 10 -13 15 -15 4 -27 11 -27 17 0 13 54 91 75 108 19 16 49 70 38
69 -5 0 -38 -31 -74 -67z"/>
<path d="M4778 2193 c22 -20 29 -47 15 -56 -5 -2 -2 -2 6 0 10 2 12 -4 7 -24
l-6 -28 14 24 c7 13 11 33 8 43 -3 13 0 19 9 18 24 -4 39 0 39 9 0 4 -17 11
-37 14 -21 3 -47 8 -58 13 -18 6 -18 5 3 -13z"/>
<path d="M4742 2169 c-7 -11 -19 -18 -27 -15 -8 3 -17 1 -20 -4 -4 -6 -15 -10
-25 -10 -12 0 -21 -10 -25 -29 -7 -34 -2 -59 34 -148 29 -71 51 -92 51 -49 0
13 4 36 10 50 7 21 6 26 -5 26 -8 0 -14 5 -12 12 1 6 -9 14 -23 18 -17 4 -21
8 -12 14 7 4 19 2 27 -4 8 -6 23 -9 35 -5 22 7 48 45 30 45 -6 0 -13 -7 -16
-15 -7 -16 -34 -21 -34 -6 0 6 9 16 21 24 13 10 17 17 9 22 -7 4 -9 22 -4 51
7 49 5 53 -14 23z m-4 -51 c-2 -13 -11 -24 -20 -26 -21 -4 -24 18 -6 36 19 19
30 14 26 -10z"/>
<path d="M4977 2183 c-3 -5 -5 -47 -6 -95 -1 -73 1 -88 14 -88 12 0 15 16 15
95 0 83 -8 113 -23 88z"/>
<path d="M2560 2171 c0 -6 -7 -8 -15 -5 -9 4 -15 0 -15 -10 0 -9 8 -16 19 -16
22 0 100 -60 100 -77 1 -7 5 -13 9 -13 9 0 32 -67 32 -91 -1 -10 -5 -8 -15 5
-11 14 -15 16 -15 5 0 -12 -2 -12 -11 1 -8 12 -9 9 -5 -12 5 -22 3 -26 -9 -22
-9 4 -15 0 -15 -9 0 -8 7 -17 15 -21 56 -21 -59 -31 -140 -12 -16 4 -40 9 -52
12 -23 4 -23 4 -3 24 11 11 29 20 40 20 13 0 18 5 14 15 -4 8 -2 15 3 15 6 0
11 24 12 54 l1 55 -32 -9 c-18 -5 -70 -10 -116 -13 -79 -3 -84 -5 -120 -40
-31 -30 -45 -37 -78 -37 -30 0 -41 -4 -41 -15 0 -11 11 -15 37 -15 41 0 138
-26 158 -43 22 -17 52 -15 63 5 14 25 26 23 31 -7 4 -18 1 -25 -11 -26 -12 0
-11 -2 4 -9 16 -7 17 -9 3 -9 -9 -1 -20 -5 -23 -11 -4 -6 6 -7 27 -4 31 6 32
5 14 -8 -11 -9 -16 -20 -12 -27 6 -9 12 -8 26 4 17 16 20 15 40 -5 16 -16 25
-19 33 -11 20 20 27 11 27 -34 l0 -46 28 15 c15 8 43 28 62 45 19 17 41 35 48
42 24 20 43 -19 38 -73 -6 -53 0 -61 14 -23 5 14 16 25 24 25 18 0 25 20 33
90 6 64 -6 95 -66 170 -84 104 -161 177 -161 151z"/>
<path d="M4871 2154 c-25 -29 -26 -27 14 -43 18 -7 21 -10 8 -7 -13 2 -23 0
-23 -6 0 -6 -9 -8 -21 -5 -18 5 -20 2 -15 -18 5 -18 3 -23 -7 -19 -8 3 -20 -2
-27 -11 -12 -14 -10 -16 13 -10 32 8 77 -1 77 -16 0 -6 -6 -6 -19 1 -27 14
-31 13 -24 -6 5 -14 2 -16 -20 -10 -15 3 -27 2 -27 -3 0 -5 12 -12 28 -15 83
-16 102 -18 102 -7 0 6 -7 11 -15 11 -9 0 -12 6 -9 15 4 8 12 15 19 15 8 0 12
14 10 43 -2 23 -3 59 -4 80 -1 46 -26 50 -60 11z"/>
<path d="M3760 2120 c-9 -6 -10 -10 -3 -10 6 0 15 5 18 10 8 12 4 12 -15 0z"/>
<path d="M3570 2025 c0 -8 7 -11 20 -8 22 6 19 15 -5 19 -8 1 -15 -4 -15 -11z"/>
<path d="M2080 2000 c0 -5 5 -10 10 -10 6 0 10 5 10 10 0 6 -4 10 -10 10 -5 0
-10 -4 -10 -10z"/>
<path d="M4983 1976 c3 -8 3 -17 -1 -21 -12 -12 -8 -75 5 -75 9 0 13 17 12 55
-1 30 -6 55 -11 55 -6 0 -8 -6 -5 -14z"/>
<path d="M2621 1972 c-1 -7 -5 -10 -11 -7 -5 3 -10 2 -10 -4 0 -5 -3 -16 -6
-25 -3 -9 -1 -16 5 -16 6 0 11 6 11 14 0 8 5 16 12 18 6 2 8 11 5 19 -4 10 -6
10 -6 1z"/>
<path d="M4810 1925 c0 -21 9 -42 26 -60 23 -25 27 -27 36 -12 15 27 28 19 22
-13 -4 -19 -2 -30 5 -30 6 0 11 5 11 10 0 6 4 10 10 10 5 0 7 -7 4 -15 -4 -8
-1 -15 5 -15 15 0 15 136 0 146 -6 3 -35 8 -65 9 l-54 3 0 -33z m52 -23 c-27
-4 -37 2 -27 17 4 8 13 7 28 -1 l22 -13 -23 -3z"/>
<path d="M3242 1910 c0 -14 2 -19 5 -12 2 6 2 18 0 25 -3 6 -5 1 -5 -13z"/>
<path d="M4751 1915 c-1 -11 -4 -30 -7 -42 -4 -16 -2 -23 7 -23 8 0 23 -7 33
-15 14 -11 16 -18 8 -28 -10 -12 -2 -40 12 -38 4 1 26 -17 51 -40 39 -36 87
-69 102 -69 12 0 -10 76 -23 83 -10 6 -12 12 -5 20 7 9 1 12 -22 12 -26 0 -34
5 -44 28 -7 16 -17 26 -23 22 -5 -3 -10 -1 -10 4 0 6 -7 11 -15 11 -8 0 -15 7
-15 15 0 8 -9 15 -20 15 -11 0 -20 5 -20 10 0 6 6 10 13 10 8 0 9 3 1 8 -6 4
-14 14 -17 22 -4 11 -6 10 -6 -5z m189 -201 c0 -17 -22 -14 -28 4 -2 7 3 12
12 12 9 0 16 -7 16 -16z"/>
<path d="M3001 1883 c1 -18 3 -22 6 -10 3 12 10 16 20 13 9 -4 13 -1 11 6 -3
7 -12 14 -21 16 -13 3 -17 -3 -16 -25z"/>
<path d="M1840 1893 c0 -25 137 -163 162 -163 17 0 16 18 -2 23 -27 7 -40 47
-30 90 l8 36 -47 6 c-25 3 -56 7 -68 9 -13 2 -23 1 -23 -1z"/>
<path d="M2835 1860 c4 -65 5 -67 15 -42 7 16 5 33 -4 55 l-13 32 2 -45z"/>
<path d="M3430 1885 c0 -8 4 -15 10 -15 5 0 7 7 4 15 -4 8 -8 15 -10 15 -2 0
-4 -7 -4 -15z"/>
<path d="M2340 1870 c-12 -23 -5 -26 16 -6 16 17 18 26 4 26 -5 0 -14 -9 -20
-20z"/>
<path d="M4973 1777 c-3 -43 5 -77 18 -77 6 0 9 18 7 45 -5 56 -22 78 -25 32z"/>
<path d="M3511 1784 c0 -11 3 -14 6 -6 3 7 2 16 -1 19 -3 4 -6 -2 -5 -13z"/>
<path d="M1 1722 l-2 -57 83 4 c74 4 78 6 38 11 -25 4 -42 8 -38 8 4 1 3 13
-2 26 -6 17 -5 26 3 29 7 2 -4 7 -23 12 -19 4 -40 11 -46 16 -8 6 -12 -8 -13
-49z"/>
<path d="M3531 1746 c-11 -13 -10 -80 1 -91 3 -3 8 8 12 25 3 18 10 29 16 25
13 -8 13 -2 -4 29 -11 22 -15 24 -25 12z"/>
<path d="M4652 1740 c0 -14 2 -19 5 -12 2 6 2 18 0 25 -3 6 -5 1 -5 -13z"/>
<path d="M2485 1730 c-3 -5 -17 -10 -31 -10 -13 0 -24 -4 -24 -10 0 -5 9 -10
19 -10 11 0 23 5 26 10 3 6 15 10 26 10 11 0 17 5 14 10 -3 6 -10 10 -15 10
-5 0 -12 -4 -15 -10z"/>
<path d="M4801 1728 c0 -7 4 -22 9 -33 8 -18 9 -17 9 7 1 15 -3 30 -9 33 -5 3
-10 0 -9 -7z"/>
<path d="M3462 1680 c0 -14 2 -19 5 -12 2 6 2 18 0 25 -3 6 -5 1 -5 -13z"/>
<path d="M3591 1664 c0 -11 3 -14 6 -6 3 7 2 16 -1 19 -3 4 -6 -2 -5 -13z"/>
<path d="M4745 1670 c-3 -5 -1 -10 4 -10 6 0 11 5 11 10 0 6 -2 10 -4 10 -3 0
-8 -4 -11 -10z"/>
<path d="M4847 1655 c-23 -23 -26 -24 -30 -8 -4 16 -5 16 -6 1 -1 -20 80 -141
94 -141 6 0 15 10 21 23 8 15 13 18 16 8 9 -25 18 -1 12 31 -4 18 -16 37 -28
43 -11 6 -18 7 -14 3 8 -9 -20 -40 -29 -31 -3 3 0 12 7 21 7 9 9 22 4 32 -4
10 -8 21 -8 25 -3 18 -15 16 -39 -7z"/>
<path d="M4977 1673 c-3 -7 -3 -89 1 -140 1 -13 6 -23 10 -23 4 0 9 38 10 85
1 50 -2 85 -7 85 -5 0 -12 -3 -14 -7z"/>
<path d="M1645 1649 c-11 -17 1 -21 15 -4 8 9 8 15 2 15 -6 0 -14 -5 -17 -11z"/>
<path d="M3263 1653 c4 -3 0 -15 -10 -25 -18 -20 -4 -25 15 -6 18 18 40 -6 23
-25 -7 -10 -9 -30 -5 -55 7 -42 28 -62 38 -36 3 8 13 14 23 14 15 0 16 2 3 10
-11 7 -19 5 -27 -7 -11 -14 -13 -10 -13 29 0 26 5 50 10 53 6 3 10 1 10 -4 0
-6 4 -11 9 -11 5 0 7 9 4 21 -4 14 -12 19 -24 16 -12 -3 -20 2 -24 14 -4 10
-14 19 -22 19 -9 0 -13 -3 -10 -7z"/>
<path d="M3650 1609 c5 -18 12 -34 16 -38 4 -3 4 2 1 12 -4 10 -7 27 -7 38 0
10 -4 19 -9 19 -6 0 -6 -12 -1 -31z"/>
<path d="M2758 1618 c-5 -11 -13 -15 -23 -12 -19 8 -19 -3 -1 -21 12 -12 16
-12 26 0 6 8 10 22 8 32 -3 17 -4 17 -10 1z"/>
<path d="M4775 1620 c3 -5 8 -10 11 -10 2 0 4 5 4 10 0 6 -5 10 -11 10 -5 0
-7 -4 -4 -10z"/>
<path d="M3454 1599 c-10 -17 -11 -120 -1 -110 9 9 19 121 12 121 -2 0 -7 -5
-11 -11z"/>
<path d="M3220 1592 c0 -4 10 -13 23 -21 22 -14 22 -14 3 8 -20 22 -26 25 -26
13z"/>
<path d="M4785 1590 c3 -5 11 -10 16 -10 6 0 7 5 4 10 -3 6 -11 10 -16 10 -6
0 -7 -4 -4 -10z"/>
<path d="M0 1578 c0 -4 16 -8 35 -8 45 0 45 7 0 12 -19 2 -35 0 -35 -4z"/>
<path d="M3360 1571 c-14 -26 -13 -31 6 -31 10 0 14 6 11 14 -3 7 0 19 6 25 8
8 8 11 -1 11 -6 0 -16 -9 -22 -19z"/>
<path d="M4770 1549 c0 -13 12 -33 28 -46 21 -18 23 -22 10 -23 -10 0 -18 5
-18 10 0 6 -3 10 -7 10 -5 0 -9 -41 -10 -91 -1 -76 1 -93 17 -109 10 -10 14
-20 9 -22 -5 -2 -7 -18 -3 -36 5 -24 10 -30 17 -23 6 6 19 11 29 11 14 0 18 7
16 31 -3 36 17 51 26 21 5 -13 13 -18 25 -15 23 6 39 -33 22 -50 -8 -8 -11 -8
-11 1 0 7 -9 12 -20 12 -11 0 -20 5 -20 12 0 6 -3 9 -6 6 -3 -3 2 -23 11 -44
10 -25 12 -40 5 -42 -5 -2 -10 -15 -10 -29 0 -20 -4 -24 -19 -20 -13 3 -21 -1
-24 -14 -4 -15 -1 -17 26 -12 21 4 28 3 23 -5 -4 -7 -3 -12 3 -12 6 0 8 -12 5
-30 -5 -22 -2 -31 10 -36 9 -3 14 -9 11 -13 -6 -11 33 -71 46 -71 8 0 5 7 -5
19 -9 10 -14 25 -10 35 4 11 -2 26 -16 42 -20 20 -21 24 -7 24 9 0 17 -4 17
-10 0 -5 4 -10 9 -10 5 0 9 35 9 78 0 42 1 85 2 95 4 20 26 23 34 5 3 -7 4 10
3 37 -2 50 -2 50 -35 50 -23 0 -37 6 -44 20 -18 32 -61 65 -85 65 -29 0 -29
11 -2 28 13 8 18 19 15 29 -4 9 1 24 10 34 16 18 16 19 -4 19 -23 0 -29 14
-11 25 5 4 20 -1 31 -12 20 -18 21 -18 10 2 -22 39 -41 57 -54 52 -10 -4 -10
-6 0 -6 12 -1 18 -31 6 -31 -3 0 -19 14 -35 31 -28 30 -29 30 -29 8z"/>
<path d="M3670 1540 c0 -18 -10 -24 -32 -21 -3 0 -10 -14 -13 -31 -4 -18 -14
-38 -21 -45 -11 -12 -14 -10 -20 13 -4 16 -2 29 6 34 9 5 9 9 1 14 -12 8 -15
3 -28 -71 -8 -47 -7 -52 10 -57 13 -3 17 0 13 9 -3 9 0 12 8 9 8 -3 17 0 22 7
5 8 3 10 -7 5 -8 -4 -6 -1 4 7 9 8 17 21 17 30 0 22 17 30 24 11 8 -22 8 -26
-4 -19 -15 9 -12 -8 4 -31 21 -27 27 -14 15 30 -6 22 -7 42 -2 45 13 10 30 55
26 69 -7 19 -23 14 -23 -8z"/>
<path d="M3410 1534 c0 -8 5 -12 10 -9 6 3 10 10 10 16 0 5 -4 9 -10 9 -5 0
-10 -7 -10 -16z"/>
<path d="M3237 1520 c-6 -23 3 -26 21 -8 16 16 15 28 -2 28 -7 0 -16 -9 -19
-20z"/>
<path d="M4321 1522 c-6 -2 -11 -11 -11 -21 0 -14 9 -18 44 -18 41 -1 44 1 37
21 -8 20 -39 28 -70 18z"/>
<path d="M4972 1458 c1 -37 2 -39 5 -10 2 17 8 32 14 32 5 0 9 5 9 10 0 6 -7
10 -15 10 -11 0 -15 -11 -13 -42z"/>
<path d="M13 1463 c9 -2 23 -2 30 0 6 3 -1 5 -18 5 -17 0 -22 -2 -12 -5z"/>
<path d="M4283 1443 c-7 -15 -10 -29 -7 -32 4 -3 9 0 11 7 7 18 23 15 23 -5 0
-15 2 -16 10 -3 8 11 12 12 18 3 6 -10 15 -9 37 3 47 24 55 37 18 29 -18 -3
-34 -2 -38 4 -10 17 -25 13 -25 -6 0 -15 -3 -15 -18 4 l-17 23 -12 -27z"/>
<path d="M215 1449 c-4 -6 -4 -13 -1 -16 3 -4 6 -1 6 5 0 6 8 13 18 15 15 4
15 5 0 6 -9 0 -20 -4 -23 -10z"/>
<path d="M4419 1404 c-7 -8 -7 -14 0 -19 7 -4 3 -14 -10 -28 l-20 -22 22 -5
c15 -4 26 -16 31 -38 10 -37 23 -42 31 -11 9 34 29 11 25 -27 -4 -30 -2 -33
17 -29 19 6 19 5 3 -8 -10 -8 -18 -17 -18 -20 0 -3 8 -8 18 -10 16 -4 16 -5 0
-6 -12 -1 -18 -9 -18 -23 0 -14 3 -18 8 -11 4 6 16 11 27 10 16 -2 19 3 17 23
-2 19 0 22 10 12 17 -17 43 -15 59 4 11 13 9 14 -15 8 -24 -6 -27 -4 -24 12 2
11 13 20 28 23 27 3 42 19 33 34 -3 5 -8 5 -12 -1 -3 -5 -17 -13 -29 -17 -22
-6 -23 -4 -21 28 3 30 -3 42 -34 72 -21 20 -45 38 -53 39 -9 1 -19 7 -22 13
-9 14 -40 12 -53 -3z m61 -64 c0 -5 -4 -10 -10 -10 -5 0 -10 5 -10 10 0 6 5
10 10 10 6 0 10 -4 10 -10z"/>
<path d="M4890 1406 c0 -9 5 -16 10 -16 6 0 10 4 10 9 0 6 -4 13 -10 16 -5 3
-10 -1 -10 -9z"/>
<path d="M2567 1399 c7 -7 15 -10 18 -7 3 3 -2 9 -12 12 -14 6 -15 5 -6 -5z"/>
<path d="M3290 1405 c0 -15 18 -40 24 -34 3 3 -1 14 -9 25 -8 10 -14 15 -15 9z"/>
<path d="M3826 1395 c-3 -8 -1 -15 4 -15 13 0 22 18 11 24 -5 3 -11 -1 -15 -9z"/>
<path d="M3718 1383 c7 -3 16 -2 19 1 4 3 -2 6 -13 5 -11 0 -14 -3 -6 -6z"/>
<path d="M4237 1383 c-12 -12 -7 -25 7 -20 18 7 40 -18 30 -34 -4 -8 -3 -9 4
-5 17 11 14 37 -5 52 -21 15 -27 17 -36 7z"/>
<path d="M4716 1382 c-4 -6 0 -24 8 -39 13 -23 15 -24 15 -8 -1 32 -14 61 -23
47z"/>
<path d="M3630 1379 c0 -9 31 -71 48 -94 11 -16 13 -16 9 -2 -4 9 -2 17 3 17
16 0 12 50 -5 66 -13 14 -15 14 -15 0 0 -21 -10 -20 -26 2 -7 9 -14 14 -14 11z"/>
<path d="M3750 1360 c0 -11 -5 -20 -11 -20 -5 0 -7 -5 -3 -11 3 -6 2 -14 -4
-18 -6 -4 9 -13 34 -20 43 -13 46 -16 40 -42 -7 -34 -8 -33 34 -13 29 15 30
18 15 27 -12 7 -20 5 -26 -4 -7 -11 -9 -10 -9 4 0 10 -11 22 -24 27 -29 11
-42 77 -16 84 9 2 6 4 -7 5 -17 1 -23 -5 -23 -19z"/>
<path d="M4660 1360 c0 -5 5 -10 11 -10 5 0 7 5 4 10 -3 6 -8 10 -11 10 -2 0
-4 -4 -4 -10z"/>
<path d="M3587 1346 c-3 -8 3 -26 14 -40 22 -28 42 -35 33 -11 -4 8 -12 15
-20 15 -14 0 -18 12 -15 38 2 16 -6 15 -12 -2z"/>
<path d="M1993 1335 c-3 -9 -3 -18 -1 -21 3 -3 8 4 11 16 6 23 -1 27 -10 5z"/>
<path d="M3855 1330 c-4 -6 -10 -8 -15 -5 -4 3 -10 -1 -13 -8 -3 -7 4 -12 19
-12 13 0 25 7 28 18 4 18 -9 24 -19 7z"/>
<path d="M4946 1325 c-3 -9 0 -15 9 -15 16 0 20 16 6 24 -5 3 -11 -1 -15 -9z"/>
<path d="M3891 1314 c0 -11 3 -14 6 -6 3 7 2 16 -1 19 -3 4 -6 -2 -5 -13z"/>
<path d="M4316 1309 c-11 -11 -15 -19 -9 -19 12 0 38 28 32 34 -2 2 -13 -5
-23 -15z"/>
<path d="M77 1306 c34 -8 71 -19 82 -26 18 -9 21 -8 21 10 0 16 -6 20 -34 20
-18 0 -55 2 -82 5 -47 5 -46 4 13 -9z"/>
<path d="M318 1302 c-82 -3 -81 -2 -65 -62 1 -5 -2 -9 -8 -10 -5 0 -13 9 -17
22 -4 16 -6 18 -7 6 -1 -10 -6 -17 -13 -15 -9 1 -11 -27 -10 -108 2 -60 5
-123 8 -138 6 -29 6 -29 21 -7 11 16 14 41 11 103 -3 45 -6 88 -9 96 -2 9 8
17 29 23 28 8 32 11 21 24 -6 8 -9 17 -5 21 3 3 6 1 6 -7 0 -10 3 -10 15 0 12
10 15 10 15 0 0 -8 8 -10 21 -7 15 4 23 0 26 -14 3 -10 9 -19 14 -19 5 0 9 -9
9 -20 0 -22 15 -27 26 -8 4 7 3 8 -4 4 -7 -4 -12 -1 -12 8 0 9 6 16 13 16 15
0 17 73 2 86 -5 5 -45 8 -87 6z"/>
<path d="M4344 1295 c-4 -8 -3 -23 0 -32 4 -9 1 -20 -6 -25 -8 -5 -1 -8 20 -8
18 0 31 4 28 8 -2 4 -1 14 4 22 10 16 -9 50 -28 50 -7 0 -15 -7 -18 -15z"/>
<path d="M4660 1291 c0 -10 36 -21 44 -14 3 3 3 10 0 14 -7 12 -44 12 -44 0z"/>
<path d="M3518 1278 c12 -6 22 -15 22 -19 0 -4 23 -18 50 -31 28 -13 50 -27
50 -31 0 -5 5 -5 10 -2 6 4 17 1 25 -5 8 -7 15 -9 15 -4 0 4 6 0 13 -11 8 -10
19 -15 25 -11 6 4 23 -1 37 -10 14 -9 25 -12 25 -8 0 5 -26 22 -58 38 -31 17
-68 37 -82 47 -14 9 -35 15 -48 13 -16 -3 -21 0 -16 8 5 8 2 9 -9 5 -10 -3
-17 -3 -17 2 0 4 -11 13 -25 19 -33 15 -48 14 -17 0z"/>
<path d="M3910 1250 c-9 -17 -8 -20 8 -20 18 0 42 18 42 32 0 17 -40 7 -50
-12z"/>
<path d="M335 1220 c3 -5 8 -10 11 -10 2 0 4 5 4 10 0 6 -5 10 -11 10 -5 0 -7
-4 -4 -10z"/>
<path d="M4640 1230 c-1 -3 -4 -16 -6 -30 -3 -18 -2 -22 7 -13 6 6 9 19 6 29
-3 11 -6 17 -7 14z"/>
<path d="M4675 1197 c-32 -27 -32 -31 2 -41 18 -6 24 -2 29 18 10 43 0 51 -31
23z"/>
<path d="M3890 1200 c-13 -8 -13 -10 2 -10 9 0 20 5 23 10 8 13 -5 13 -25 0z"/>
<path d="M0 1150 c0 -43 6 -46 68 -34 27 6 30 9 21 25 -5 11 -19 19 -31 19
-25 0 -14 15 17 23 11 3 -1 5 -27 6 l-48 1 0 -40z"/>
<path d="M4770 1183 c0 -4 5 -15 10 -23 8 -13 10 -13 10 2 0 9 -4 20 -10 23
-5 3 -10 3 -10 -2z"/>
<path d="M380 1138 c0 -4 4 -8 9 -8 6 0 12 4 15 8 3 5 -1 9 -9 9 -8 0 -15 -4
-15 -9z"/>
<path d="M4605 1140 c3 -5 11 -10 16 -10 6 0 7 5 4 10 -3 6 -11 10 -16 10 -6
0 -7 -4 -4 -10z"/>
<path d="M4650 1140 c0 -5 5 -10 10 -10 6 0 10 5 10 10 0 6 -4 10 -10 10 -5 0
-10 -4 -10 -10z"/>
<path d="M3992 1108 c-10 -30 -10 -31 3 -14 13 17 21 46 12 46 -1 0 -8 -15
-15 -32z"/>
<path d="M4767 1107 c-13 -20 -12 -24 9 -40 20 -15 24 -15 24 -3 0 8 -6 17
-12 20 -9 3 -8 8 5 16 9 6 15 15 12 21 -10 15 -22 11 -38 -14z"/>
<path d="M4725 1110 c3 -5 8 -10 11 -10 2 0 4 5 4 10 0 6 -5 10 -11 10 -5 0
-7 -4 -4 -10z"/>
<path d="M4350 1099 c0 -5 5 -7 10 -4 6 3 10 8 10 11 0 2 -4 4 -10 4 -5 0 -10
-5 -10 -11z"/>
<path d="M38 1093 c23 -2 59 -2 80 0 20 2 1 4 -43 4 -44 0 -61 -2 -37 -4z"/>
<path d="M8 1053 c7 -3 16 -2 19 1 4 3 -2 6 -13 5 -11 0 -14 -3 -6 -6z"/>
<path d="M3960 1050 c0 -5 5 -10 11 -10 5 0 7 5 4 10 -3 6 -8 10 -11 10 -2 0
-4 -4 -4 -10z"/>
<path d="M4851 1014 c-1 -38 4 -55 16 -65 15 -12 16 -12 8 1 -5 8 -12 38 -16
65 l-6 50 -2 -51z"/>
<path d="M4280 1039 c0 -5 5 -7 10 -4 6 3 10 8 10 11 0 2 -4 4 -10 4 -5 0 -10
-5 -10 -11z"/>
<path d="M4401 1023 c-1 -26 37 -43 50 -22 5 8 9 17 9 22 0 12 -28 8 -36 -5
-5 -8 -10 -6 -15 8 -7 18 -8 18 -8 -3z"/>
<path d="M4560 1020 c-13 -11 -30 -20 -39 -20 -10 0 -17 -9 -17 -25 -1 -14 3
-25 9 -25 5 0 3 -8 -5 -17 -22 -26 -28 -61 -12 -74 16 -13 19 -49 3 -49 -5 0
-8 4 -5 9 3 5 -10 19 -28 32 -27 18 -35 31 -38 60 -2 21 0 35 3 33 4 -2 11 2
17 9 8 9 2 12 -24 14 -19 1 -32 -3 -29 -8 4 -5 -1 -9 -9 -9 -9 0 -16 -7 -16
-16 0 -10 -6 -14 -15 -10 -8 3 -15 1 -15 -3 0 -13 28 -22 35 -11 12 19 22 10
17 -15 -5 -29 15 -58 35 -51 7 3 13 0 13 -7 0 -18 60 -88 70 -82 4 3 11 -5 14
-18 8 -30 48 -72 74 -79 16 -5 25 0 33 15 9 18 9 20 -1 10 -10 -9 -16 -9 -26
2 -8 7 -14 18 -14 24 0 14 37 14 45 1 7 -12 25 -4 25 11 0 6 -4 7 -10 4 -5 -3
-10 -1 -10 5 0 6 -10 8 -24 4 -19 -4 -25 -1 -30 21 -8 32 1 65 17 65 7 0 23 3
36 7 21 5 23 3 18 -16 -4 -17 -2 -21 10 -17 8 3 19 6 24 6 5 0 9 11 9 25 0 13
7 28 16 33 12 7 13 11 5 17 -9 5 -9 10 -1 20 16 20 2 38 -25 33 -21 -4 -22 -2
-15 24 8 26 7 28 -16 22 -14 -4 -24 -2 -24 5 0 6 -9 11 -21 11 -15 0 -19 5
-17 22 4 29 -14 33 -42 8z m-10 -66 c0 -8 -4 -14 -10 -14 -5 0 -10 9 -10 21 0
11 5 17 10 14 6 -3 10 -13 10 -21z m148 -56 c-7 -19 -38 -22 -38 -4 0 10 9 16
21 16 12 0 19 -5 17 -12z"/>
<path d="M4170 1009 c0 -5 5 -7 10 -4 6 3 10 8 10 11 0 2 -4 4 -10 4 -5 0 -10
-5 -10 -11z"/>
<path d="M4970 996 c0 -2 7 -6 15 -10 8 -3 15 -1 15 4 0 6 -7 10 -15 10 -8 0
-15 -2 -15 -4z"/>
<path d="M23 963 c15 -2 37 -2 50 0 12 2 0 4 -28 4 -27 0 -38 -2 -22 -4z"/>
<path d="M4756 928 c-15 -58 6 -81 43 -47 26 25 27 39 1 32 -15 -4 -20 0 -20
16 0 28 -16 27 -24 -1z"/>
<path d="M4295 920 c3 -5 11 -10 16 -10 6 0 7 5 4 10 -3 6 -11 10 -16 10 -6 0
-7 -4 -4 -10z"/>
<path d="M4855 900 c-7 -12 2 -30 16 -30 12 0 12 27 0 35 -5 3 -12 1 -16 -5z"/>
<path d="M0 861 c0 -16 6 -21 26 -21 23 0 25 -3 19 -22 -4 -13 -10 -52 -12
-88 -5 -61 -6 -63 -19 -40 -12 23 -13 16 -13 -70 0 -58 5 -104 12 -118 12 -20
14 -17 25 46 6 38 27 118 47 177 19 59 35 111 35 115 0 4 -21 14 -47 21 -27 7
-54 15 -60 17 -8 2 -13 -5 -13 -17z"/>
<path d="M4958 868 c9 -9 15 -9 24 0 9 9 7 12 -12 12 -19 0 -21 -3 -12 -12z"/>
<path d="M4349 847 c26 -28 31 -32 31 -19 0 4 -13 16 -28 26 l-27 19 24 -26z"/>
<path d="M4940 820 c0 -5 9 -10 21 -10 11 0 17 5 14 10 -3 6 -13 10 -21 10 -8
0 -14 -4 -14 -10z"/>
<path d="M4235 810 c-3 -5 -1 -10 4 -10 6 0 11 5 11 10 0 6 -2 10 -4 10 -3 0
-8 -4 -11 -10z"/>
<path d="M4854 805 c3 -21 16 -31 16 -12 0 9 -4 18 -9 21 -5 4 -8 -1 -7 -9z"/>
<path d="M4660 765 c0 -8 5 -15 10 -15 6 0 10 7 10 15 0 8 -4 15 -10 15 -5 0
-10 -7 -10 -15z"/>
<path d="M4862 758 c-10 -12 -9 -23 6 -56 l18 -40 13 30 c14 30 7 53 -9 28 -6
-10 -9 -4 -12 20 -3 28 -5 31 -16 18z"/>
<path d="M4345 711 c-7 -12 12 -24 25 -16 11 7 4 25 -10 25 -5 0 -11 -4 -15
-9z"/>
<path d="M1 93 c-1 -87 0 -93 19 -93 22 0 25 11 10 38 -6 9 -14 46 -19 82 l-9
65 -1 -92z"/>
<path d="M4976 65 c-3 -9 0 -15 9 -15 8 0 15 7 15 15 0 8 -4 15 -9 15 -5 0
-11 -7 -15 -15z"/>
<path d="M4805 10 c-3 -5 -1 -10 4 -10 6 0 11 5 11 10 0 6 -2 10 -4 10 -3 0
-8 -4 -11 -10z"/>
<path d="M4933 3 c9 -2 25 -2 35 0 9 3 1 5 -18 5 -19 0 -27 -2 -17 -5z"/>
</g>
</svg>
